<svg width="25" height="13" viewBox="0 0 25 13" fill="none" xmlns="http://www.w3.org/2000/svg">
<path d="M1.18134 2.65277L8.57446 11.975C9.51528 13.1613 11.5322 11.8771 11.0815 10.5156C10.16 7.73132 13.341 6.17989 15.5367 5.72144C18.45 5.11316 21.3733 5.21183 24.1376 3.95975C25.8936 3.16437 24.3702 0.578134 22.6234 1.36935C19.3898 2.83401 15.6193 2.16257 12.3449 3.58725C9.41822 4.86066 7.10409 8.03625 8.18872 11.3131L10.6958 9.85367L3.30261 0.531494C3.01997 0.252721 2.63893 0.0964355 2.24194 0.0964355C1.84495 0.0964355 1.46392 0.252721 1.18127 0.531494C0.908223 0.817106 0.755859 1.19703 0.755859 1.59216C0.755859 1.9873 0.908284 2.36716 1.18134 2.65277Z" fill="#3F3D56"/>
</svg>
