<svg width="15" height="8" viewBox="0 0 15 8" fill="none" xmlns="http://www.w3.org/2000/svg">
<path d="M0.863378 2.38574C0.544599 3.77708 0.768197 5.23761 1.48862 6.46985C1.9104 7.09638 2.5284 7.56507 3.24546 7.80228C3.96252 8.03949 4.73802 8.03177 5.45023 7.78036C8.24723 6.91198 11.0067 5.89497 13.7798 4.95264C14.1583 4.83902 14.4785 4.58383 14.6736 4.24014C14.8688 3.89646 14.9238 3.49074 14.8274 3.10745C14.7184 2.72592 14.4641 2.40243 14.119 2.20651C13.7739 2.01059 13.3658 1.95792 12.9823 2.05981L6.05246 4.41464C5.52973 4.59227 5.00889 4.79427 4.47623 4.94012C4.42054 4.95537 4.21704 5.00011 4.228 4.99911C4.25356 4.99674 4.41156 5.01361 4.23618 5.00146C4.13618 4.97138 4.13688 4.97795 4.23826 5.02115L4.10569 4.94571C4.22669 5.04642 4.0911 4.93224 4.04941 4.88995C4.01267 4.85267 3.90469 4.70399 3.98813 4.82617C3.928 4.73896 3.87543 4.64675 3.83103 4.55057C3.90422 4.71263 3.76675 4.31175 3.75705 4.25626C3.70089 3.6309 3.73671 3.00071 3.86338 2.38574C3.86145 1.98851 3.7028 1.6081 3.42191 1.32721C3.14102 1.04632 2.76061 0.887672 2.36338 0.885742C1.96863 0.89552 1.59279 1.05669 1.31357 1.33591C1.03436 1.61512 0.873156 1.991 0.863378 2.38574Z" fill="#3F3D56"/>
</svg>
