<svg width="67" height="28" viewBox="0 0 67 28" fill="none" xmlns="http://www.w3.org/2000/svg">
<path d="M66.9507 13.1399C66.9001 12.0211 66.712 10.9128 66.3907 9.83993C65.6341 7.37105 64.1731 5.17681 62.1871 3.52651C60.2011 1.87622 57.7764 0.841684 55.2107 0.549921C55.1542 0.544919 55.0972 0.544919 55.0407 0.549921C54.9651 0.528483 54.8883 0.511796 54.8107 0.499933C49.8628 -0.106164 44.8419 0.40995 40.1207 2.00994C32.8607 4.43994 26.4907 9.33993 23.4207 16.3399C22.1792 14.6449 20.5432 13.2782 18.6543 12.3581C16.7654 11.4381 14.6807 10.9925 12.5807 11.0599C9.8745 11.2388 7.28927 12.248 5.17758 13.9499C3.0659 15.6518 1.53053 17.9635 0.780734 20.5699C0.702956 20.8884 0.727801 21.2233 0.851718 21.5268C0.975635 21.8303 1.19229 22.0869 1.47074 22.2599C2.27625 22.9459 3.23206 23.4324 4.26071 23.6799C6.48071 24.1499 8.70071 24.5799 10.9407 24.9699C15.3007 25.7299 19.6807 26.3466 24.0807 26.8199C33.0199 27.7796 42.0146 28.1204 51.0007 27.8399C53.9907 27.7399 56.8807 27.6399 59.6207 26.3199C61.6144 25.3377 63.3172 23.852 64.5607 22.0099C66.3137 19.3977 67.1539 16.2793 66.9507 13.1399Z" fill="#E6E6E6"/>
</svg>
