<svg width="67" height="29" viewBox="0 0 67 29" fill="none" xmlns="http://www.w3.org/2000/svg">
<path d="M65.8811 10.2399C65.1281 7.77086 63.6694 5.57589 61.6848 3.92526C59.7001 2.27464 57.2761 1.24044 54.7111 0.949953C54.6512 0.944948 54.591 0.944948 54.5311 0.949953C54.4592 0.927468 54.3856 0.91073 54.3111 0.899934C45.3711 -0.260066 35.4311 2.55995 28.7411 8.69995C26.2575 10.9433 24.2716 13.6821 22.9111 16.7399C21.6709 15.046 20.0365 13.6799 18.1494 12.7599C16.2623 11.8399 14.1795 11.3937 12.0811 11.4599C9.37491 11.6388 6.78974 12.648 4.67805 14.3499C2.56636 16.0518 1.03095 18.3635 0.281137 20.9699C0.198711 21.2884 0.221318 21.6249 0.345652 21.9294C0.469985 22.234 0.689395 22.4902 0.97114 22.6599C1.77538 23.3478 2.73167 23.8345 3.76112 24.0799C5.97112 24.5499 8.2011 24.9799 10.4311 25.3699C14.7911 26.1299 19.1745 26.7466 23.5811 27.2199C26.4911 27.5299 29.4078 27.7766 32.3311 27.9599C38.3711 28.3399 44.4411 28.4299 50.4911 28.2399C53.4911 28.1399 56.3711 28.0399 59.1111 26.7199C61.1077 25.738 62.8138 24.2525 64.0611 22.4099C65.2353 20.6376 66.0068 18.6295 66.3212 16.5269C66.6357 14.4242 66.4854 12.2782 65.8811 10.2399Z" fill="#E6E6E6"/>
</svg>
