<svg width="586" height="541" viewBox="0 0 586 541" fill="none" xmlns="http://www.w3.org/2000/svg">
<path d="M69.8906 529.09C69.8606 530.06 69.8106 531.03 69.7306 532.01C68.5806 533.49 67.444 534.967 66.3206 536.44C65.4006 537.64 64.4906 538.82 63.5906 540C63.5706 540.02 63.5606 540.04 63.5406 540.06C63.4906 540.13 63.4406 540.2 63.3806 540.28L63.0006 540L62.0506 539.3L56.6706 535.33C51.1291 534.237 45.9083 531.9 41.4025 528.494C36.8967 525.088 33.2236 520.703 30.6606 515.67C27.2506 508.88 25.8906 501.1 24.5206 493.41C22.6306 482.79 20.6806 472.37 13.1406 465.04C18.3068 465.487 23.3947 466.593 28.2806 468.33C27.6331 470.37 27.3885 472.517 27.5606 474.65C27.6106 475.25 27.7906 475.98 28.3806 476.15C28.6407 476.17 28.9017 476.128 29.143 476.029C29.3843 475.93 29.5992 475.777 29.7706 475.58C30.7106 474.75 31.6606 473.92 32.6106 473.09C33.3706 472.43 34.1306 471.77 34.8906 471.11C38.6235 472.927 42.1703 475.104 45.4806 477.61C50.6427 481.493 55.1584 486.167 58.8606 491.46C64.5234 499.677 68.1343 509.131 69.3906 519.03C69.8221 522.365 69.9893 525.729 69.8906 529.09Z" fill="#3F3D56"/>
<path d="M80.2709 515.91C79.93 517.368 79.5026 518.803 78.9909 520.21C75.8209 524.19 72.7342 528.123 69.7309 532.01C68.5809 533.49 67.4442 534.967 66.3209 536.44C65.4009 537.64 64.4909 538.82 63.5909 540C63.5709 540.02 63.5609 540.04 63.5409 540.06C63.5209 540.04 63.4909 540.02 63.471 540C63.081 539.65 62.711 539.3 62.341 538.93C60.1959 536.854 58.204 534.624 56.381 532.26C49.2703 523.098 44.8208 512.155 43.521 500.63C43.451 499.94 43.391 499.26 43.331 498.57C42.8427 491.512 43.5699 484.422 45.481 477.61C48.4527 466.842 54.2496 457.064 62.271 449.29C61.391 456.54 63.561 463.26 66.721 469.86C65.4941 472.47 64.9669 475.355 65.191 478.23C65.241 478.83 65.421 479.56 66.011 479.72C66.511 479.86 67.001 479.5 67.401 479.16C68.341 478.33 69.301 477.5 70.241 476.67C73.561 482.73 77.101 488.8 79.251 495.23C79.7368 496.687 80.1441 498.169 80.471 499.67C81.6099 505.031 81.5416 510.579 80.2709 515.91Z" fill="#FF1744"/>
<path d="M66.3207 536.44C65.4007 537.64 64.4907 538.82 63.5907 540C63.5707 540.02 63.5607 540.04 63.5407 540.06C63.4907 540.13 63.4407 540.2 63.3807 540.28L63.0007 540H42.0907L41.8407 540.81C41.1007 540.56 40.3607 540.29 39.6307 540C32.3679 537.221 25.697 533.091 19.9707 527.83C13.3197 521.6 8.09768 514.002 4.66406 505.561C1.23044 497.119 -0.33321 488.034 0.0807325 478.93C4.24073 484.61 10.1407 487.99 16.6707 490.61C16.5707 490.88 16.4707 491.14 16.3907 491.41C15.7389 493.446 15.4942 495.59 15.6707 497.72C15.7207 498.33 15.9007 499.06 16.4807 499.22C16.7403 499.245 17.0021 499.207 17.244 499.109C17.4859 499.012 17.7008 498.858 17.8707 498.66C18.8207 497.83 19.7707 496.99 20.7207 496.17C21.4807 495.51 22.2307 494.85 22.9907 494.19C23.3507 493.88 23.7107 493.57 24.0607 493.26C24.2207 493.31 24.3707 493.36 24.5207 493.41C30.9907 495.53 37.6307 497.51 43.5207 500.63C44.9975 501.413 46.4297 502.278 47.8107 503.22C55.7812 508.816 61.2753 517.281 63.1407 526.84C63.4507 528.438 63.6511 530.055 63.7407 531.68L65.4507 534.84L66.3207 536.44Z" fill="#FF1744"/>
<path d="M63.3837 539.5L63.291 539.593L63.1651 539.5H63.0008H42.7825C46.3526 538.213 49.8164 536.647 53.1418 534.818L53.1454 534.816C54.3831 534.122 55.5538 533.415 56.6564 532.677C59.1045 531.074 61.3927 529.239 63.4896 527.198L63.4912 527.197C65.9061 524.824 68.0287 522.172 69.8143 519.296C73.1882 513.922 75.274 508.141 77.2933 502.303L77.2935 502.303L77.5383 501.593C78.2475 499.535 78.9597 497.469 79.7199 495.403C81.9723 489.294 84.6806 483.222 89.2157 477.479C93.7484 471.738 100.124 466.303 109.734 461.497C139.058 446.836 164.539 416.266 185.91 377.962C207.287 339.647 224.585 293.53 237.512 247.686L237.512 247.685C238.173 245.334 238.823 242.983 239.463 240.631C241.614 232.738 243.632 224.881 245.516 217.06C245.897 215.527 246.258 213.994 246.618 212.465C253.567 183.356 258.812 153.868 262.327 124.149L262.328 124.146C264.779 102.543 265.732 83.4872 265.121 68.4838C264.954 61.3765 264.112 54.3017 262.607 47.3545L335.269 44.2874C335.3 44.4323 335.338 44.615 335.384 44.8349C335.516 45.4705 335.711 46.4167 335.961 47.6574C336.46 50.139 337.18 53.7992 338.059 58.5117C339.838 68.0868 342.277 82.0108 344.846 99.2039L344.846 99.2044C346.536 110.44 348.275 123.085 349.934 136.81C350.044 137.759 350.154 138.718 350.264 139.677L350.264 139.679C350.944 145.377 351.604 151.274 352.233 157.322C354.813 181.923 356.952 209.191 357.981 237.708V237.709C358.111 241.177 358.221 244.661 358.311 248.163L358.311 248.163C358.951 272.362 358.741 297.317 357.302 322.211C352.468 405.901 333.658 488.781 285.865 539.5H63.5908H63.3837Z" fill="#2F2E41" stroke="black"/>
<path d="M354.014 251.007L455.686 190.329L469.504 232.938L301.666 367.121L354.014 251.007Z" fill="#2F2E41"/>
<path d="M580.211 145.29C580.121 145.1 580.021 144.91 579.911 144.72C575.858 137.104 569.734 130.789 562.246 126.503C554.758 122.218 546.211 120.137 537.591 120.5C533.55 120.693 529.514 120.032 525.746 118.561C521.978 117.089 518.562 114.84 515.721 111.96L515.321 111.55C511.602 107.799 507.438 104.518 502.921 101.78L502.581 101.57L502.301 101.87C499.69 104.645 496.728 107.069 493.491 109.08C493.861 108.66 494.201 108.23 494.541 107.78C494.542 107.78 494.544 107.78 494.545 107.779C494.546 107.779 494.547 107.778 494.548 107.777C494.549 107.776 494.55 107.775 494.55 107.774C494.551 107.773 494.551 107.771 494.551 107.77C496.339 105.406 497.821 102.826 498.961 100.09L499.141 99.66L498.781 99.4801L498.721 99.4501C486.642 93.3069 472.931 91.1345 459.544 93.2426C446.157 95.3507 433.778 101.632 424.171 111.19C422.901 112.45 421.681 113.76 420.541 115.1C419.901 115.85 419.271 116.61 418.671 117.39C412.647 125.12 408.483 134.133 406.501 143.73V143.74C406.381 144.3 406.271 144.85 406.171 145.41C404.302 155.616 404.928 166.122 407.994 176.035C411.06 185.947 416.476 194.972 423.781 202.34C425.261 203.83 426.821 205.26 428.431 206.6C429.601 207.58 430.811 208.51 432.041 209.39C443.569 217.554 453.792 227.42 462.361 238.65C465.934 243.377 469.166 248.353 472.031 253.54C474.097 257.272 476.668 260.701 479.671 263.73C480.191 264.24 480.731 264.76 481.291 265.27L481.931 265.87L482.111 265.01C482.381 263.716 482.575 262.407 482.691 261.09V261.08C482.81 259.797 482.84 258.507 482.781 257.22C483.724 259.813 484.41 262.493 484.831 265.22V265.23C484.991 266.24 485.111 267.24 485.201 268.27L485.221 268.49L485.411 268.63C485.991 269.05 486.581 269.45 487.181 269.83C493.687 274.075 501.171 276.584 508.921 277.12C509.981 277.2 511.061 277.24 512.131 277.24C513.251 277.24 514.371 277.2 515.491 277.12C527.098 276.262 537.938 271.004 545.798 262.421C553.658 253.838 557.945 242.577 557.781 230.94C557.803 224.967 559.018 219.058 561.355 213.561C563.692 208.064 567.104 203.09 571.391 198.93C571.441 198.87 571.501 198.81 571.561 198.75L571.721 198.59C577.467 192.898 581.598 185.782 583.691 177.97L583.851 177.36L583.491 177.35H583.221C581.689 177.322 580.16 177.208 578.641 177.01C575.284 176.603 571.985 175.808 568.811 174.64C573.481 174.9 578.571 173.94 584.631 171.7L584.921 171.59L584.951 171.29C585.98 162.345 584.33 153.296 580.211 145.29Z" fill="#3F3D56"/>
<path opacity="0.15" d="M571.751 133.518C567.267 129.006 561.892 125.478 555.968 123.158C550.044 120.838 543.703 119.778 537.347 120.046C533.307 120.238 529.272 119.576 525.505 118.105C521.738 116.633 518.323 114.383 515.484 111.503L515.083 111.096C511.364 107.346 507.201 104.064 502.686 101.325L502.341 101.117L502.065 101.41C499.454 104.186 496.491 106.609 493.252 108.618C495.534 105.928 497.378 102.895 498.717 99.6311L498.9 99.2024L498.484 98.9911C489.428 94.3948 479.413 92.0048 469.257 92.0159C459.101 92.027 449.092 94.439 440.045 99.0551C430.999 103.671 423.172 110.361 417.203 118.577C411.235 126.794 407.293 136.306 405.7 146.336C409.467 138.687 414.715 131.862 421.139 126.256C427.564 120.65 435.036 116.375 443.125 113.678C451.214 110.982 459.757 109.917 468.26 110.546C476.763 111.175 485.057 113.485 492.66 117.343L493.076 117.554L492.893 117.983C491.554 121.247 489.71 124.279 487.428 126.969C490.667 124.961 493.63 122.537 496.241 119.762L496.517 119.469L496.862 119.677C501.377 122.416 505.541 125.697 509.259 129.448L509.66 129.855C512.499 132.735 515.914 134.984 519.681 136.456C523.448 137.928 527.483 138.59 531.523 138.397C542.089 137.943 552.485 141.168 560.94 147.522C569.394 153.876 575.382 162.965 577.884 173.241C580.091 172.708 582.264 172.039 584.389 171.239L584.677 171.133L584.711 170.828C585.492 164.035 584.733 157.153 582.489 150.694C580.246 144.235 576.576 138.364 571.751 133.518Z" fill="black"/>
<path d="M26.0508 0C26.798 11.5557 28.8271 22.9926 32.1008 34.1C38.5668 56.143 49.8678 76.4664 65.1808 93.59C65.6408 94.1 66.1008 94.61 66.5608 95.11C67.0208 95.62 67.4908 96.12 67.9608 96.62C68.4308 97.12 68.9008 97.61 69.3808 98.1C69.8608 98.59 70.3308 99.08 70.8208 99.57C72.7408 101.51 74.7208 103.39 76.7408 105.22C77.2508 105.68 77.7608 106.13 78.2708 106.58C79.8008 107.94 81.3508 109.26 82.9408 110.54C83.4708 110.97 84.0008 111.4 84.5308 111.82C85.0708 112.24 85.6008 112.66 86.1408 113.08C86.6808 113.49 87.2208 113.9 87.7608 114.31C88.8508 115.13 89.9508 115.93 91.0508 116.72C91.5208 117.05 91.9808 117.37 92.4508 117.7C93.6608 118.54 94.8708 119.36 96.1008 120.16C96.6008 120.48 97.1008 120.81 97.6008 121.12C97.7508 121.22 97.9008 121.32 98.0508 121.41C98.5408 121.73 99.0408 122.03 99.5408 122.34C100.111 122.7 100.691 123.05 101.281 123.4C102.441 124.1 103.611 124.78 104.791 125.45C105.991 126.12 107.191 126.78 108.401 127.42C109.591 128.05 110.781 128.67 111.981 129.26C112.501 129.52 113.011 129.77 113.531 130.02C113.731 130.12 113.921 130.21 114.121 130.31L115.651 131.03C116.261 131.32 116.881 131.6 117.501 131.88C118.121 132.16 118.741 132.43 119.361 132.7C120.601 133.25 121.861 133.77 123.111 134.28C123.741 134.53 124.381 134.79 125.011 135.03C125.641 135.28 126.281 135.52 126.911 135.76C127.951 136.15 129.001 136.53 130.051 136.89C130.641 137.11 131.231 137.31 131.821 137.5C132.131 137.6 132.431 137.71 132.731 137.81C133.521 138.07 134.321 138.33 135.121 138.57C137.201 139.22 139.301 139.83 141.401 140.39C142.351 140.65 143.311 140.89 144.271 141.13C145.051 141.32 145.831 141.5 146.611 141.68C147.071 141.79 147.541 141.9 148.011 142C149.921 142.42 151.831 142.8 153.761 143.15C154.511 143.29 155.251 143.42 156.001 143.54C156.181 143.57 156.351 143.6 156.521 143.63C157.431 143.78 158.351 143.92 159.271 144.05L159.691 144.11C160.481 144.22 161.271 144.33 162.061 144.43C162.371 144.46 162.681 144.5 162.991 144.54C163.691 144.63 164.391 144.71 165.091 144.78C165.641 144.84 166.191 144.89 166.751 144.94C167.441 145.01 168.121 145.07 168.811 145.13C169.821 145.21 170.841 145.28 171.851 145.34C172.821 145.4 173.791 145.45 174.761 145.49C175.661 145.53 176.561 145.56 177.451 145.58C177.801 145.59 178.141 145.6 178.481 145.6C179.411 145.62 180.341 145.63 181.261 145.63C196.099 145.623 210.86 143.485 225.091 139.28C233.471 136.805 241.632 133.641 249.491 129.82C253.601 127.82 257.714 125.91 261.831 124.09C288.45 112.138 316.529 103.746 345.341 99.13C359.776 96.859 374.358 95.6457 388.971 95.5C399.256 95.4015 409.478 93.8701 419.341 90.95C421.021 90.46 422.751 89.9 424.481 89.3L426.481 88.61L424.851 87.25C420.052 83.1561 414.757 79.6822 409.091 76.91C418.12 78.2652 426.934 80.7897 435.311 84.42L435.811 84.64L436.311 84.4C452.662 76.4595 466.796 64.5981 477.453 49.8724C488.109 35.1467 494.959 18.0139 497.391 0H26.0508Z" fill="#3F3D56"/>
<g opacity="0.15">
<path d="M497.391 0C494.959 18.0139 488.109 35.1467 477.452 49.8724C466.795 64.5981 452.662 76.4595 436.311 84.4L435.811 84.64L435.311 84.42C426.934 80.7897 418.12 78.2652 409.091 76.91C414.757 79.6822 420.052 83.1561 424.851 87.25L426.481 88.61L424.481 89.3C422.751 89.9 421.021 90.46 419.341 90.95C409.478 93.8701 399.256 95.4015 388.971 95.5C374.358 95.6457 359.776 96.859 345.341 99.13C316.529 103.746 288.45 112.138 261.831 124.09C257.711 125.91 253.597 127.82 249.491 129.82C241.632 133.641 233.471 136.805 225.091 139.28C210.86 143.485 196.099 145.623 181.261 145.63C180.341 145.63 179.411 145.62 178.481 145.6C178.141 145.6 177.801 145.59 177.451 145.58C176.561 145.56 175.661 145.53 174.761 145.49C173.791 145.45 172.821 145.4 171.851 145.34C170.841 145.28 169.821 145.21 168.811 145.13C168.121 145.07 167.441 145.01 166.751 144.94C166.191 144.89 165.641 144.84 165.091 144.78C164.391 144.71 163.691 144.63 162.991 144.54C162.681 144.5 162.371 144.46 162.061 144.43C161.271 144.33 160.481 144.22 159.691 144.11L159.271 144.05C158.351 143.92 157.431 143.78 156.521 143.63C156.351 143.6 156.181 143.57 156.001 143.54C155.251 143.42 154.511 143.29 153.761 143.15C151.831 142.8 149.921 142.42 148.011 142C147.541 141.9 147.071 141.79 146.611 141.68C145.831 141.5 145.051 141.32 144.271 141.13C143.311 140.89 142.351 140.65 141.401 140.39C139.301 139.83 137.201 139.22 135.121 138.57C134.321 138.33 133.521 138.07 132.731 137.81C132.431 137.71 132.131 137.6 131.821 137.5C131.231 137.31 130.641 137.11 130.051 136.89C129.001 136.53 127.951 136.15 126.911 135.76C126.281 135.52 125.641 135.28 125.011 135.03C124.381 134.79 123.741 134.53 123.111 134.28C121.861 133.77 120.601 133.25 119.361 132.7C118.741 132.43 118.121 132.16 117.501 131.88C116.881 131.6 116.261 131.32 115.651 131.03L114.121 130.31C113.921 130.21 113.731 130.12 113.531 130.02C113.011 129.77 112.501 129.52 111.981 129.26C110.781 128.67 109.591 128.05 108.401 127.42C107.191 126.78 105.991 126.12 104.791 125.45C103.611 124.78 102.441 124.1 101.281 123.4C100.691 123.05 100.111 122.7 99.5407 122.34C99.0407 122.03 98.5407 121.73 98.0507 121.41C97.9007 121.32 97.7507 121.22 97.6007 121.12C97.1007 120.81 96.6007 120.48 96.1007 120.16C94.8707 119.36 93.6607 118.54 92.4507 117.7C91.9807 117.37 91.5207 117.05 91.0507 116.72C89.9507 115.93 88.8507 115.13 87.7607 114.31C87.2207 113.9 86.6807 113.49 86.1407 113.08C85.6007 112.66 85.0707 112.24 84.5307 111.82C84.0007 111.4 83.4707 110.97 82.9407 110.54C81.3607 109.25 79.804 107.93 78.2707 106.58C77.7607 106.13 77.2507 105.68 76.7407 105.22C74.7207 103.39 72.7407 101.51 70.8207 99.57C70.3307 99.08 69.8607 98.59 69.3807 98.1C68.9007 97.61 68.4307 97.12 67.9607 96.62C67.4907 96.12 67.0207 95.62 66.5607 95.11C66.1007 94.61 65.6407 94.1 65.1807 93.59C99.5961 109.912 138.821 112.97 175.351 102.18C183.731 99.7062 191.893 96.5421 199.751 92.72C220.521 82.5243 242.251 74.4113 264.621 68.5C288.76 62.1331 313.588 58.7479 338.551 58.42C338.771 58.41 339.001 58.41 339.221 58.41C349.51 58.3032 359.734 56.7686 369.601 53.85C371.281 53.36 373.001 52.8 374.731 52.2L376.731 51.51L375.111 50.15C370.308 46.0559 365.01 42.582 359.341 39.81C368.373 41.1651 377.19 43.6896 385.571 47.32L386.071 47.54L386.571 47.3C407.529 37.1205 424.722 20.5612 435.681 0H497.391Z" fill="black"/>
</g>
<path d="M432.393 441.695L403.902 225.11C403.704 223.582 403.203 222.11 402.428 220.778C401.653 219.447 400.62 218.284 399.389 217.357L401.2 214.967C402.749 216.132 404.048 217.595 405.023 219.269C405.998 220.944 406.628 222.797 406.876 224.719L435.368 441.305L432.393 441.695Z" fill="#3F3D56"/>
<path d="M439.952 324.54C446.621 324.54 452.027 319.134 452.027 312.465C452.027 305.797 446.621 300.391 439.952 300.391C433.284 300.391 427.878 305.797 427.878 312.465C427.878 319.134 433.284 324.54 439.952 324.54Z" fill="#FFB8B8"/>
<path d="M379.374 359.812C381.635 356.166 384.478 352.916 387.789 350.188C384.811 353.661 382.78 357.844 381.894 362.332C382.683 363.006 383.523 363.619 384.406 364.165C387.063 365.777 389.983 366.908 393.034 367.505C395.513 362.238 399.13 357.586 403.622 353.884C400.184 357.897 398.017 362.843 397.397 368.091C400.867 368.307 404.35 368.088 407.765 367.44C412.889 366.492 417.994 364.696 421.946 361.305C426.224 357.636 428.853 352.342 430.263 346.884C431.672 341.43 431.962 335.756 432.241 330.129C432.376 327.448 435.032 324.736 435.167 322.055L434.993 322.029C433.975 320.321 433.251 318.453 432.852 316.505C432.665 315.528 432.723 314.52 433.022 313.571C433.32 312.622 433.85 311.763 434.564 311.07C435.405 310.406 436.406 309.976 437.465 309.82C437.579 309.713 437.7 309.612 437.826 309.511C440.099 307.721 442.666 306.34 445.412 305.428C443.604 306.323 442.099 307.729 441.083 309.471C442.729 309.359 444.376 309.248 446.022 309.138C446.639 308.652 447.281 308.198 447.944 307.778C448.706 307.329 449.5 306.937 450.32 306.605C449.39 307.205 448.617 308.019 448.065 308.978C450.192 308.769 452.356 308.3 453.686 306.697C455.889 304.045 454.376 299.798 451.704 297.618C449.751 296.094 447.368 295.222 444.892 295.126C442.417 295.03 439.974 295.715 437.908 297.083C434.134 293.326 428.088 292.475 423.021 294.104C419.666 295.249 416.635 297.182 414.18 299.74C415.378 299.765 416.574 299.859 417.761 300.023C416.056 300.018 414.374 300.409 412.847 301.166C412.093 302.025 411.385 302.922 410.726 303.856C410.293 304.469 409.878 305.093 409.481 305.729C407.15 309.666 405.095 313.76 403.331 317.981C401.143 322.835 398.847 327.709 395.492 331.844C390.356 338.127 383.108 342.325 375.103 343.654C373.609 349.29 375.569 355.314 379.374 359.812Z" fill="#2F2E41"/>
<path d="M437.936 297.419C436.184 299.323 434.895 301.605 434.169 304.088C433.443 306.571 433.3 309.188 433.75 311.736L437.936 297.419Z" fill="#FD6584"/>
<path d="M475.311 368.469C474.996 369.077 474.55 369.608 474.007 370.025C473.464 370.442 472.836 370.735 472.167 370.883C471.498 371.032 470.805 371.031 470.137 370.882C469.468 370.734 468.84 370.44 468.297 370.023L454.381 379.161L454.398 370.51L467.61 363.158C468.372 362.292 469.425 361.736 470.57 361.595C471.715 361.454 472.871 361.738 473.82 362.393C474.77 363.048 475.446 364.028 475.72 365.148C475.995 366.268 475.85 367.45 475.311 368.469Z" fill="#FFB8B8"/>
<path d="M425.256 335.191C425.256 335.191 419.545 343.103 419.716 352.371C419.886 361.639 427.767 392.236 431.67 392.165C435.572 392.093 466.478 374.447 466.478 374.447L461.935 366.235L439.676 376.403C439.676 376.403 441.769 330.984 425.256 335.191Z" fill="#FF1744"/>
<path d="M448.331 339.751L445.961 337.542L444.781 330.365L431.759 326.201L426.169 331.071L416.47 333.663L412.692 351.982V384.323L441 394L450.844 368.773C450.844 368.773 456 360 454.069 350.362L448.331 339.751Z" fill="#FF1744"/>
<path d="M452.721 429.88C451.884 429.308 450.894 429.002 449.881 429H388.881C387.555 429 386.283 429.527 385.345 430.464C384.408 431.402 383.881 432.674 383.881 434C383.881 435.326 384.408 436.598 385.345 437.536C386.283 438.473 387.555 439 388.881 439H449.881C450.936 438.998 451.964 438.664 452.819 438.045C453.673 437.425 454.311 436.552 454.641 435.55C454.797 435.048 454.878 434.526 454.881 434C454.88 433.19 454.683 432.392 454.307 431.675C453.931 430.957 453.387 430.342 452.721 429.88Z" fill="#FF1744"/>
<path d="M471.029 496.509L477.326 495.726L477.448 470.539L468.154 471.695L471.029 496.509Z" fill="#FFB8B8"/>
<path d="M435.849 480.692C436.161 481.071 436.475 481.446 436.792 481.822C437.423 482.574 438.065 483.32 438.709 484.059C439.034 484.429 439.362 484.8 439.688 485.166L439.683 485.178L439.706 485.19L439.713 485.196L440.276 485.553L441.936 483.518L442.701 482.581L443.783 481.254L445.764 478.825L456.197 466.04L448.288 461.035L447.524 462.247L447.52 462.246L447.142 462.847L440.052 474.053L438.604 476.345L438.559 476.414L437.689 477.782L436.939 478.967L436.102 480.293L435.849 480.692Z" fill="#FFB8B8"/>
<path d="M401.604 412.115C401.857 413.175 402.123 414.235 402.397 415.288C402.903 417.249 403.446 419.194 404.025 421.126C404.023 421.13 404.027 421.131 404.03 421.136C404.474 421.946 405.01 422.701 405.628 423.386C405.652 423.42 405.683 423.448 405.708 423.479C406.166 423.977 406.683 424.416 407.248 424.787C407.453 424.917 407.662 425.049 407.866 425.18C408.608 425.64 409.351 426.07 410.097 426.479C411.425 427.202 412.763 427.85 414.112 428.423C414.219 428.472 414.328 428.517 414.437 428.562C420.059 430.776 425.949 432.235 431.954 432.902C434.999 433.316 438.139 433.642 441.391 433.979C442.455 434.086 443.521 434.199 444.6 434.315C444.681 434.324 444.767 434.331 444.852 434.342C446.393 434.506 447.957 434.683 449.555 434.875C451.567 435.117 453.635 435.391 455.771 435.71L454.678 438.506C453.828 440.653 452.653 442.658 451.194 444.449C450.138 445.611 449.327 446.975 448.812 448.458C448.297 449.942 448.087 451.514 448.196 453.081L448.218 455.323C447.525 456.201 447.045 457.227 446.815 458.322C446.586 459.417 446.613 460.55 446.895 461.633L446.964 461.891L436.287 474.599L435.595 475.423L438.558 476.413L442.202 477.635L448.38 479.698L463.268 464.792L463.98 464.081L463.994 464.037L474.552 429.361C474.642 429.054 474.72 428.739 474.782 428.423C475.079 426.991 475.089 425.513 474.81 424.077C474.531 422.641 473.968 421.275 473.155 420.059C472.379 418.887 471.377 417.881 470.208 417.099C469.039 416.317 467.726 415.776 466.346 415.506L463.163 414.882L456.66 413.605L452.078 412.709L451.987 412.691L438.477 410.041L438.813 405.942L438.663 405.82L433.878 402.001L417.33 388.791L417.287 388.759L416.199 387.89L415.971 388.08C415.904 388.137 415.836 388.194 415.772 388.253C413.812 390.041 412.04 392.025 410.483 394.173C407.903 397.671 405.525 401.313 403.359 405.081C403.265 405.244 403.179 405.393 403.104 405.527L403.077 405.567C403.042 405.631 403.02 405.672 403.012 405.683C401.939 407.649 401.451 409.881 401.604 412.115Z" fill="#2F2E41"/>
<path d="M405.038 399.184C405.183 398.949 405.346 398.715 405.51 398.49C406.778 396.798 408.14 395.178 409.587 393.636C411.221 391.877 413.353 383.022 413.381 383L438.447 392.113L442.381 392L439.653 399.289L439.652 399.293L442.992 405.504L443.025 405.51L453.781 407.618L464.865 409.791L470.819 410.959C472.2 411.229 473.512 411.77 474.681 412.552C475.851 413.334 476.852 414.34 477.629 415.513C478.441 416.729 479.003 418.095 479.283 419.531C479.562 420.967 479.553 422.444 479.255 423.876C479.198 424.167 479.126 424.463 479.043 424.75L480.166 439.307C480.839 448.014 480.194 456.772 478.253 465.286L477.986 479.228L477.406 479.092L468.779 477.075L466.5 476.544L464.007 467.816C463.723 466.821 463.475 465.811 463.269 464.794C462.927 463.13 462.691 461.446 462.563 459.753L460.404 431.19C459.544 431.058 458.694 430.922 457.854 430.782C453.965 430.148 450.26 429.453 446.74 428.696C436.675 426.696 426.878 423.53 417.547 419.26C415.255 418.171 413.073 417.017 411.003 415.797C410.242 415.353 409.497 414.898 408.767 414.434C408.594 414.328 408.425 414.223 408.258 414.113C406.751 413.138 405.514 411.8 404.658 410.222C403.803 408.645 403.357 406.878 403.361 405.083C403.346 402.997 403.929 400.95 405.038 399.184Z" fill="#2F2E41"/>
<path d="M470.532 492.224L477.347 491.371L478.416 491.236L478.681 495.341L488.2 501.034C488.671 501.315 489.039 501.739 489.252 502.244C489.464 502.75 489.51 503.31 489.381 503.843C489.253 504.376 488.957 504.854 488.537 505.207C488.118 505.56 487.596 505.77 487.049 505.805L475.643 506.548L473.414 502.616L472.91 506.726L468.613 507.007L468.875 492.433L470.532 492.224Z" fill="#2F2E41"/>
<path d="M436.765 479.017L442.208 483.206L443.063 483.863L440.363 486.966L443.12 497.709C443.257 498.24 443.221 498.801 443.016 499.309C442.811 499.818 442.45 500.248 441.983 500.536C441.517 500.825 440.97 500.956 440.424 500.912C439.877 500.868 439.359 500.65 438.945 500.29L430.317 492.792L431.5 488.429L428.25 490.995L425 488.172L435.44 478L436.765 479.017Z" fill="#2F2E41"/>
<path d="M390.226 323.348C390.622 323.907 390.89 324.546 391.013 325.22C391.135 325.894 391.108 326.586 390.934 327.249C390.759 327.911 390.442 328.527 390.004 329.054C389.566 329.58 389.018 330.004 388.398 330.296L390.157 346.851L382.472 342.878L381.979 327.766C381.558 326.692 381.546 325.502 381.944 324.419C382.342 323.337 383.124 322.439 384.14 321.894C385.157 321.35 386.338 321.197 387.459 321.465C388.581 321.733 389.565 322.403 390.226 323.348Z" fill="#FFB8B8"/>
<path d="M427.791 345.04C426.751 347.028 425.453 348.871 423.931 350.52C419.551 355.2 405.631 364.98 396.511 369.7C392.421 371.81 389.512 372.581 388.411 372.08C383.155 369.687 378.409 330.33 381.381 330L389.381 337V339L393.011 355.02C393.011 355.02 393.821 354.04 395.201 352.47C399.701 347.38 407.351 337.98 416.381 334C419.211 339.19 427.241 344.42 427.241 344.42C427.241 344.42 427.451 344.64 427.791 345.04Z" fill="#FF1744"/>
<path d="M433.881 442H406.066L405.894 440.696L377.858 228.553C377.479 225.691 377.956 222.78 379.228 220.188C380.5 217.596 382.51 215.439 385.005 213.986C387.5 212.534 390.369 211.852 393.251 212.027C396.133 212.201 398.899 213.224 401.201 214.967L399.389 217.357C397.559 215.972 395.36 215.159 393.069 215.021C390.778 214.882 388.497 215.425 386.513 216.579C384.53 217.734 382.932 219.45 381.921 221.51C380.91 223.571 380.531 225.885 380.832 228.16L408.696 439H433.881V442Z" fill="#3F3D56"/>
</svg>
