<svg width="267" height="295" viewBox="0 0 267 295" fill="none" xmlns="http://www.w3.org/2000/svg">
<path d="M100.48 136.352C99.5413 144.459 95.7013 148.512 88.96 148.512C81.28 147.403 77.44 143.563 77.44 136.992V132.768C77.44 127.904 75.3067 123.424 71.04 119.328C63.5307 132.981 52.6507 139.808 38.4 139.808H38.016C23.5947 139.808 12.6293 132.256 5.12 117.152C3.584 112.544 2.816 108.491 2.816 104.992V103.712C2.816 96.8853 5.16267 91.1253 9.856 86.432H11.136L12.416 87.328L11.776 91.168C11.776 93.8987 12.2453 96.5867 13.184 99.232C14.1227 101.877 15.488 104.267 17.28 106.4C19.1573 108.533 21.4613 110.283 24.192 111.648C27.008 112.928 30.2507 113.568 33.92 113.568H34.176C37.248 113.568 40.192 113.141 43.008 112.288C45.824 111.349 48.3413 109.984 50.56 108.192C52.7787 106.4 54.656 104.139 56.192 101.408C57.8133 98.6773 58.9227 95.4773 59.52 91.808V89.888C59.52 81.44 54.4853 75.808 44.416 72.992H41.6C40.32 72.992 39.2533 73.632 38.4 74.912V75.168C38.4 75.424 40.1067 76.064 43.52 77.088C49.664 80.8427 52.736 85.8773 52.736 92.192C52.736 94.0693 52.3947 95.9893 51.712 97.952C51.0293 99.8293 50.0053 101.579 48.64 103.2C47.36 104.736 45.696 106.016 43.648 107.04C41.6 107.979 39.2107 108.448 36.48 108.448H36.096C34.2187 108.448 32.2987 108.107 30.336 107.424C28.4587 106.741 26.7093 105.76 25.088 104.48C23.552 103.115 22.272 101.408 21.248 99.36C20.3093 97.312 19.84 94.9227 19.84 92.192V90.272C19.84 87.7973 20.3093 85.3227 21.248 82.848C22.1867 80.3733 23.5947 78.1973 25.472 76.32C27.3493 74.3573 29.6533 72.7787 32.384 71.584C35.2 70.3893 38.4853 69.792 42.24 69.792C47.1893 69.792 51.6693 70.8587 55.68 72.992C59.6907 75.04 63.0613 77.728 65.792 81.056C68.608 84.2987 70.7413 87.968 72.192 92.064C73.728 96.16 74.496 100.256 74.496 104.352C74.496 105.973 74.3253 107.509 73.984 108.96C73.728 110.411 73.472 111.733 73.216 112.928H75.776L77.44 113.312V81.312C77.44 79.6053 77.696 77.984 78.208 76.448C78.72 74.8267 79.4453 73.4187 80.384 72.224C81.408 70.944 82.6453 69.9627 84.096 69.28C85.632 68.512 87.3813 68.128 89.344 68.128C94.464 68.128 98.176 71.2427 100.48 77.472V136.352ZM187.322 47.392C187.322 50.3787 186.426 52.8107 184.634 54.688C182.927 56.48 180.282 57.376 176.698 57.376C174.223 57.376 171.749 56.864 169.274 55.84C166.799 54.7307 164.069 53.0667 161.082 50.848C157.754 48.3733 154.213 46.5813 150.458 45.472C146.789 44.2773 143.034 43.68 139.194 43.68C136.634 43.68 134.117 44.0213 131.642 44.704C129.167 45.3013 126.949 46.24 124.986 47.52C123.109 48.7147 121.573 50.208 120.378 52C119.183 53.792 118.586 55.7973 118.586 58.016C118.586 62.624 121.359 67.1893 126.906 71.712C128.869 74.1867 129.85 76.704 129.85 79.264V136.992C129.85 138.187 129.594 139.467 129.082 140.832C128.655 142.112 127.973 143.307 127.034 144.416C126.181 145.44 125.071 146.293 123.706 146.976C122.426 147.659 120.89 148 119.098 148H118.714C117.519 148 116.282 147.787 115.002 147.36C113.807 146.848 112.655 146.165 111.546 145.312C110.522 144.459 109.669 143.392 108.986 142.112C108.303 140.832 107.962 139.339 107.962 137.632V78.752C107.962 77.8987 108.133 76.8747 108.474 75.68C108.901 74.4853 109.498 73.376 110.266 72.352C111.034 71.2427 111.93 70.304 112.954 69.536C114.063 68.768 115.343 68.384 116.794 68.384C114.319 67.0187 111.93 65.312 109.626 63.264C107.322 61.216 105.317 58.9973 103.61 56.608C101.818 54.2187 100.41 51.744 99.386 49.184C98.2767 46.5387 97.722 43.9787 97.722 41.504C97.722 38.0907 98.6607 34.8053 100.538 31.648C102.33 28.4907 104.847 25.7173 108.09 23.328C111.333 20.8533 115.173 18.9333 119.61 17.568C124.133 16.1173 129.039 15.392 134.33 15.392H136.762C141.114 15.392 145.978 16.032 151.354 17.312C156.815 18.5067 162.021 20.4267 166.97 23.072C171.919 25.632 176.271 28.96 180.026 33.056C183.781 37.0667 186.213 41.8453 187.322 47.392ZM161.788 116C163.068 116.171 164.433 116.469 165.884 116.896C167.335 117.237 168.913 117.664 170.62 118.176V94.24L170.364 92.576V87.968C169.169 82.4213 166.012 79.648 160.892 79.648H160.38C154.577 80.3307 151.676 82.72 151.676 86.816V87.712C151.676 90.6987 155.601 94.7093 163.452 99.744C166.183 103.755 167.548 107.125 167.548 109.856C167.548 112.587 165.628 114.635 161.788 116ZM170.748 80.544C171.004 76.192 172.241 73.0347 174.46 71.072C176.679 69.1093 179.153 68.128 181.884 68.128C188.711 69.8347 192.124 73.248 192.124 78.368V146.72C192.039 150.048 191.271 152.48 189.82 154.016C188.455 155.552 186.321 156.363 183.42 156.448L179.324 156.576H178.428C173.223 156.576 170.62 153.333 170.62 146.848V136.608C170.62 128.16 166.183 122.699 157.308 120.224C156.199 120.224 155.345 120.053 154.748 119.712C148.604 120.651 145.532 122.016 145.532 123.808V125.344C148.263 124.661 150.14 124.32 151.164 124.32C159.271 124.32 164.049 129.269 165.5 139.168V140.192C163.452 149.067 159.185 153.504 152.7 153.504H149.116C142.46 153.504 137.852 148.384 135.292 138.144V134.56C135.292 127.477 140.412 121.675 150.652 117.152C141.436 115.445 136.743 112.928 136.572 109.6C136.487 107.723 136.401 106.315 136.316 105.376C136.316 104.352 136.316 103.755 136.316 103.584C136.316 100.171 137.852 97.0987 140.924 94.368H142.46C145.191 94.368 146.556 95.6053 146.556 98.08C146.044 98.08 145.02 98.9333 143.484 100.64V101.408C145.105 107.552 148.689 110.624 154.236 110.624C156.625 110.624 157.82 109.259 157.82 106.528C157.82 103.712 154.065 100.085 146.556 95.648C142.119 90.4427 139.9 86.0907 139.9 82.592V80.544C139.9 74.9973 144.508 71.3707 153.724 69.664C161.404 69.664 167.036 73.2907 170.62 80.544H170.748ZM208.931 99.104C208.931 104.224 218.275 112.075 236.963 122.656V100C232.952 93.4293 227.235 90.144 219.811 90.144C212.558 91.2533 208.931 94.24 208.931 99.104ZM237.603 146.848C233.166 141.899 227.832 139.424 221.603 139.424C216.227 139.424 211.235 143.264 206.627 150.944C205.091 151.968 203.64 152.48 202.275 152.48C198.008 152.48 195.875 149.493 195.875 143.52V140.448C195.875 134.133 200.184 129.483 208.803 126.496C222.371 126.496 232.568 133.664 239.395 148H240.547V144.288C240.547 141.387 233.635 134.475 219.811 123.552C205.987 112.715 199.075 104.864 199.075 100C202.232 91.2107 207.054 85.1947 213.539 81.952V81.056C202.616 74.4 197.155 65.696 197.155 54.944C197.155 44.2773 205.006 37.6213 220.707 34.976C232.824 37.3653 238.883 42.1867 238.883 49.44V53.92C238.883 61.1733 233.123 65.9947 221.603 68.384C214.264 68.384 208.248 65.696 203.555 60.32L202.659 62.112C205.816 71.1573 211.832 75.68 220.707 75.68C229.667 73.2907 236.622 72.096 241.571 72.096H242.467C256.291 72.096 263.203 77.216 263.203 87.456V148.896C262.264 156.747 258.979 160.672 253.347 160.672H250.659C247.16 160.672 242.808 156.064 237.603 146.848Z" fill="white"/>
<path d="M80.904 207.9V233.712C80.904 234.792 80.688 235.872 80.256 236.952C79.824 238.032 79.212 239.04 78.42 239.976C77.628 240.84 76.656 241.56 75.504 242.136C74.352 242.712 73.02 243 71.508 243C69.636 243 67.8 242.424 66 241.272C64.272 240.12 63.084 238.356 62.436 235.98C61.716 234.252 60.636 232.632 59.196 231.12C57.756 229.608 56.1 228.312 54.228 227.232C52.428 226.08 50.52 225.18 48.504 224.532C46.488 223.884 44.544 223.56 42.672 223.56H42.348C40.98 223.56 39.54 223.812 38.028 224.316C36.588 224.748 35.184 225.36 33.816 226.152C32.52 226.944 31.332 227.88 30.252 228.96C29.244 229.968 28.524 231.048 28.092 232.2C26.868 233.64 25.86 234.612 25.068 235.116C24.276 235.548 23.592 235.764 23.016 235.764H21.828C19.596 235.764 17.796 235.116 16.428 233.82C15.06 232.524 14.376 230.076 14.376 226.476V226.368C14.376 224.64 14.7 222.912 15.348 221.184C16.068 219.456 17.04 217.908 18.264 216.54C19.488 215.172 21 214.092 22.8 213.3C24.6 212.436 26.58 212.004 28.74 212.004C31.62 212.004 34.644 212.4 37.812 213.192C41.052 213.984 44.184 215.208 47.208 216.864C50.232 218.448 53.004 220.536 55.524 223.128C58.044 225.648 60.06 228.636 61.572 232.092C61.932 232.884 62.148 233.28 62.22 233.28V208.656C62.22 207.792 62.4 206.856 62.76 205.848C63.192 204.768 63.624 203.652 64.056 202.5C64.56 201.276 64.992 200.052 65.352 198.828C65.784 197.532 66 196.236 66 194.94C66 194.076 65.784 192.78 65.352 191.052C64.992 189.252 64.272 187.488 63.192 185.76C62.112 184.032 60.6 182.52 58.656 181.224C56.712 179.856 54.192 179.172 51.096 179.172C49.152 179.172 47.316 179.532 45.588 180.252C43.932 180.972 43.104 181.98 43.104 183.276C43.176 183.708 43.392 183.924 43.752 183.924C45.336 183.564 46.632 183.384 47.64 183.384C49.224 183.384 50.808 183.744 52.392 184.464C54.048 185.112 55.488 186.012 56.712 187.164C58.008 188.316 59.052 189.684 59.844 191.268C60.636 192.852 61.032 194.544 61.032 196.344V197.424C61.032 199.008 60.672 200.592 59.952 202.176C59.232 203.688 58.26 205.056 57.036 206.28C55.812 207.432 54.372 208.404 52.716 209.196C51.132 209.916 49.44 210.276 47.64 210.276C44.76 210.276 42.384 209.592 40.512 208.224C38.64 206.856 37.164 205.272 36.084 203.472C35.004 201.672 34.248 199.908 33.816 198.18C33.384 196.452 33.168 195.192 33.168 194.4C33.168 191.952 33.744 189.612 34.896 187.38C36.12 185.076 37.704 183.06 39.648 181.332C41.592 179.604 43.752 178.236 46.128 177.228C48.576 176.148 51.06 175.608 53.58 175.608H55.092L58.224 176.04C60.024 176.256 61.608 176.58 62.976 177.012C64.344 177.444 65.64 178.02 66.864 178.74C68.16 179.388 69.456 180.216 70.752 181.224C72.048 182.232 73.488 183.492 75.072 185.004C77.232 187.668 78.708 189.828 79.5 191.484C80.364 193.14 80.796 194.94 80.796 196.884V207.036C80.868 207.324 80.904 207.612 80.904 207.9ZM171.299 206.928C171.299 208.872 170.939 210.888 170.219 212.976C169.499 214.992 168.455 216.864 167.087 218.592C165.719 220.248 164.063 221.652 162.119 222.804C160.247 223.884 158.087 224.424 155.639 224.424H154.991C153.119 224.424 151.283 224.028 149.483 223.236C147.755 222.444 146.207 221.4 144.839 220.104C143.471 218.736 142.355 217.152 141.491 215.352C140.699 213.48 140.303 211.5 140.303 209.412C140.303 207.684 140.627 205.956 141.275 204.228C141.995 202.428 143.003 200.844 144.299 199.476C145.667 198.036 147.287 196.884 149.159 196.02C151.031 195.084 153.155 194.616 155.531 194.616C155.963 194.616 156.503 194.688 157.151 194.832C157.799 194.904 158.591 195.012 159.527 195.156C159.887 195.156 160.103 194.904 160.175 194.4V194.184C157.367 191.088 154.019 189.54 150.131 189.54C148.547 189.54 146.963 189.864 145.379 190.512C143.867 191.088 142.463 191.952 141.167 193.104C139.943 194.256 138.935 195.66 138.143 197.316C137.351 198.9 136.955 200.7 136.955 202.716C136.955 202.932 136.991 203.04 137.063 203.04C136.991 203.256 136.955 203.58 136.955 204.012V232.74C136.955 233.892 136.703 235.08 136.199 236.304C135.767 237.528 135.083 238.644 134.147 239.652C133.283 240.588 132.239 241.38 131.015 242.028C129.791 242.676 128.423 243 126.911 243H126.371C125.075 243 123.995 242.856 123.131 242.568C122.339 242.28 121.583 241.848 120.863 241.272C120.143 240.624 119.315 239.796 118.379 238.788C117.515 237.78 116.363 236.556 114.923 235.116C106.499 226.908 100.091 220.788 95.6992 216.756C91.3792 212.724 89.1472 210.492 89.0032 210.06C87.2752 207.828 86.4112 205.488 86.4112 203.04V202.608C86.4112 201.384 86.7352 200.052 87.3832 198.612C88.9672 195.084 91.1272 191.916 93.8632 189.108C96.6712 186.228 99.8392 183.816 103.367 181.872C106.967 179.856 110.783 178.308 114.815 177.228C118.919 176.148 123.095 175.608 127.343 175.608C131.087 175.608 134.903 176.112 138.791 177.12C142.751 178.056 146.531 179.424 150.131 181.224C153.803 183.024 157.187 185.256 160.283 187.92C163.451 190.584 166.115 193.572 168.275 196.884C170.291 200.052 171.299 203.4 171.299 206.928ZM103.691 193.536H102.827C101.747 193.536 100.667 193.752 99.5872 194.184C98.5072 194.616 97.5352 195.192 96.6712 195.912C95.8072 196.56 95.0872 197.388 94.5112 198.396C94.0072 199.332 93.7552 200.34 93.7552 201.42C93.7552 202.644 94.2952 204.012 95.3752 205.524C96.4552 207.036 97.7512 208.548 99.2632 210.06C100.775 211.5 102.359 212.904 104.015 214.272C105.671 215.568 107.075 216.648 108.227 217.512C109.523 218.52 110.819 219.456 112.115 220.32C113.483 221.184 114.851 222.012 116.219 222.804V202.824C116.219 201.96 115.823 200.988 115.031 199.908C114.239 198.828 113.231 197.82 112.007 196.884C110.855 195.948 109.523 195.156 108.011 194.508C106.499 193.86 105.059 193.536 103.691 193.536ZM137.653 246.86C137.725 247.22 137.833 247.652 137.977 248.156C138.121 248.66 138.301 249.308 138.517 250.1C138.157 254.636 136.645 258.2 133.981 260.792C131.245 263.456 127.033 265.364 121.345 266.516C121.057 266.588 120.625 266.624 120.049 266.624H118.753C113.281 266.624 109.141 265.292 106.333 262.628C103.525 259.964 102.085 256.472 102.013 252.152C102.085 251.648 102.157 251.216 102.229 250.856C102.301 250.496 102.373 250.172 102.445 249.884L102.553 249.668C104.641 242.828 110.617 238.724 120.481 237.356C122.929 237.356 125.197 237.644 127.285 238.22L128.041 238.436C131.425 239.444 134.737 241.028 137.977 243.188C141.217 245.348 144.097 247.832 146.617 250.64C149.209 253.52 151.261 256.616 152.773 259.928C154.357 263.312 155.149 266.732 155.149 270.188C155.149 271.916 154.861 273.824 154.285 275.912L153.529 278.396C153.313 279.188 152.881 280.016 152.233 280.88C151.585 281.744 150.757 282.572 149.749 283.364C148.813 284.156 147.661 284.804 146.293 285.308C144.997 285.812 143.557 286.064 141.973 286.064C139.453 286.064 137.617 285.452 136.465 284.228C135.313 283.076 134.737 281.888 134.737 280.664V279.908C134.737 279.836 134.809 279.584 134.953 279.152L135.061 278.828C135.493 277.388 136.969 275.696 139.489 273.752C141.361 271.016 142.585 268.676 143.161 266.732C143.737 264.86 144.025 262.916 144.025 260.9C144.025 259.82 143.881 258.632 143.593 257.336C143.377 256.04 143.017 254.744 142.513 253.448C142.009 252.152 141.361 250.928 140.569 249.776C139.777 248.624 138.805 247.652 137.653 246.86ZM128.689 250.1L128.365 251.288C126.637 254.384 124.405 255.932 121.669 255.932C120.661 255.932 119.833 255.788 119.185 255.5L118.105 255.176L115.189 253.556H114.325C112.957 253.556 112.273 254.132 112.273 255.284C112.345 255.86 112.633 256.508 113.137 257.228C113.569 258.02 114.325 258.704 115.405 259.28L117.349 260.36C117.997 260.648 118.897 260.792 120.049 260.792C120.697 260.792 121.597 260.612 122.749 260.252C123.829 259.964 124.909 259.496 125.989 258.848C126.997 258.2 127.897 257.372 128.689 256.364C129.409 255.428 129.769 254.312 129.769 253.016C129.769 252.008 129.409 251.036 128.689 250.1ZM251.552 231.552C251.552 233.568 251.228 235.296 250.58 236.736C249.932 238.176 249.104 239.364 248.096 240.3C247.088 241.236 245.972 241.92 244.748 242.352C243.524 242.784 242.336 243 241.184 243C239.96 243 238.7 242.748 237.404 242.244C236.18 241.74 235.064 241.056 234.056 240.192C233.048 239.256 232.22 238.14 231.572 236.844C230.996 235.548 230.708 234.108 230.708 232.524L230.6 217.944C230.6 216 231.248 214.056 232.544 212.112C234.056 209.016 234.812 205.812 234.812 202.5C234.812 200.556 234.452 198.576 233.732 196.56C233.012 194.472 231.932 192.6 230.492 190.944C229.124 189.216 227.432 187.812 225.416 186.732C223.4 185.58 221.096 185.004 218.504 185.004H218.396C216.092 185.004 214.004 185.436 212.132 186.3C210.332 187.092 209.432 188.136 209.432 189.432C209.432 189.72 209.576 189.972 209.864 190.188H210.08C212.096 189.756 213.464 189.54 214.184 189.54C215.912 189.54 217.676 189.9 219.476 190.62C221.276 191.268 222.896 192.24 224.336 193.536C225.848 194.76 227.036 196.308 227.9 198.18C228.836 199.98 229.304 202.032 229.304 204.336V204.768C229.304 206.496 228.944 208.26 228.224 210.06C227.504 211.788 226.496 213.372 225.2 214.812C223.904 216.18 222.32 217.296 220.448 218.16C218.648 219.024 216.632 219.456 214.4 219.456H214.292C209.54 219.456 205.544 217.44 202.304 213.408L201.332 211.896C198.38 214.704 194.924 216.108 190.964 216.108H190.856C188.84 216.108 186.932 215.712 185.132 214.92C183.332 214.128 181.748 213.048 180.38 211.68C179.084 210.312 178.04 208.728 177.248 206.928C176.456 205.128 176.06 203.22 176.06 201.204C176.06 199.404 176.42 197.64 177.14 195.912C177.86 194.112 178.868 192.528 180.164 191.16C181.46 189.72 182.972 188.568 184.7 187.704C186.5 186.768 188.444 186.3 190.532 186.3H191.504C191.792 186.3 192.224 186.336 192.8 186.408C193.448 186.408 194.096 186.48 194.744 186.624C195.392 186.696 196.004 186.876 196.58 187.164C197.228 187.38 197.732 187.668 198.092 188.028C198.38 188.028 198.596 187.704 198.74 187.056C198.74 186.048 198.344 185.184 197.552 184.464C196.76 183.672 195.788 183.024 194.636 182.52C193.484 182.016 192.26 181.656 190.964 181.44C189.74 181.152 188.66 181.008 187.724 181.008H187.4C184.808 181.008 182.144 181.728 179.408 183.168C179.192 183.24 178.904 183.276 178.544 183.276H178.112C175.808 182.916 174.656 181.908 174.656 180.252V180.144C174.656 178.632 175.376 177.624 176.816 177.12C178.256 176.544 180.236 176.256 182.756 176.256C184.988 176.256 187.004 176.508 188.804 177.012C190.604 177.444 192.152 177.948 193.448 178.524C194.816 179.1 195.896 179.676 196.688 180.252C197.552 180.828 198.164 181.26 198.524 181.548C199.532 182.484 200.432 183.348 201.224 184.14C202.088 184.932 202.808 185.724 203.384 186.516L204.572 188.136C207.812 185.472 210.692 183.6 213.212 182.52C215.732 181.44 218.54 180.9 221.636 180.9C222.284 180.9 223.22 180.972 224.444 181.116C225.668 181.26 227.18 181.548 228.98 181.98C229.556 182.124 230.024 182.268 230.384 182.412C230.744 182.556 231.032 182.628 231.248 182.628H231.356C231.572 181.764 231.968 180.936 232.544 180.144C233.192 179.28 233.948 178.524 234.812 177.876C235.748 177.156 236.756 176.616 237.836 176.256C238.916 175.824 240.032 175.608 241.184 175.608C242.48 175.608 243.74 175.86 244.964 176.364C246.188 176.868 247.268 177.588 248.204 178.524C249.212 179.46 250.004 180.648 250.58 182.088C251.228 183.528 251.552 185.148 251.552 186.948V231.552Z" fill="white"/>
</svg>
