<svg width="1907" height="904" viewBox="0 0 1907 904" fill="none" xmlns="http://www.w3.org/2000/svg">
<rect x="121.436" y="356.062" width="1669.46" height="302.513" rx="151.256" fill="#FF1744"/>
<path d="M479.186 226.613C490.041 202.158 505.822 180.209 525.54 162.138L541.811 147.195C542.363 146.701 543.028 146.351 543.748 146.175C544.467 145.999 545.218 146.002 545.936 146.184C546.654 146.366 547.316 146.722 547.864 147.221C548.412 147.719 548.83 148.344 549.08 149.041L556.349 169.917C560.878 183.014 569.209 196.39 581.007 209.543C581.79 210.382 582.685 210.606 583.3 210.662C583.915 210.718 584.866 210.606 585.704 209.822C586.487 209.151 586.879 208.143 586.823 207.136C584.754 173.443 594.818 135.441 616.849 94.0811C635.077 59.7169 660.407 32.9084 692.055 14.2151L715.148 0.614982C718.167 -1.17599 722.025 1.17466 721.857 4.70063L720.627 31.5652C719.789 49.9226 721.913 66.1532 726.946 79.6415C733.096 96.1519 741.931 111.487 753.226 125.255C761.086 134.824 769.995 143.478 779.785 151.056C803.364 169.199 822.537 192.446 835.868 219.057C849.166 245.9 856.093 275.454 856.109 305.415C856.109 331.832 850.909 357.409 840.621 381.532C830.687 404.756 816.351 425.834 798.405 443.6C780.289 461.509 759.265 475.613 735.836 485.408C711.569 495.594 685.848 500.743 659.288 500.743C632.729 500.743 607.008 495.594 582.741 485.464C559.37 475.727 538.118 461.526 520.172 443.656C502.055 425.746 487.853 404.814 477.956 381.587C467.683 357.531 462.413 331.633 462.468 305.471C462.468 278.159 468.059 251.63 479.186 226.613Z" fill="#FF1744"/>
<path d="M920.089 724.361C928.69 743.723 941.194 761.101 956.818 775.408L969.711 787.24C970.148 787.63 970.675 787.908 971.245 788.047C971.815 788.187 972.411 788.184 972.979 788.04C973.548 787.895 974.072 787.614 974.507 787.219C974.941 786.825 975.272 786.33 975.47 785.777L981.23 769.249C984.819 758.88 991.42 748.289 1000.77 737.876C1001.39 737.211 1002.1 737.034 1002.59 736.99C1003.07 736.945 1003.83 737.034 1004.49 737.654C1005.11 738.186 1005.42 738.984 1005.38 739.781C1003.74 766.457 1011.71 796.545 1029.17 829.292C1043.61 856.5 1063.68 877.725 1088.76 892.525L1107.06 903.293C1109.45 904.711 1112.51 902.85 1112.37 900.059L1111.4 878.789C1110.73 864.254 1112.42 851.404 1116.4 840.725C1121.28 827.652 1128.28 815.511 1137.23 804.61C1143.46 797.034 1150.52 790.182 1158.27 784.182C1176.96 769.818 1192.15 751.412 1202.71 730.343C1213.25 709.09 1218.74 685.691 1218.75 661.969C1218.75 641.054 1214.63 620.803 1206.48 601.705C1198.61 583.317 1187.25 566.628 1173.03 552.562C1158.67 538.383 1142.01 527.216 1123.45 519.461C1104.22 511.396 1083.84 507.32 1062.8 507.32C1041.75 507.32 1021.37 511.396 1002.14 519.417C983.624 527.126 966.785 538.369 952.565 552.518C938.21 566.698 926.956 583.271 919.114 601.66C910.975 620.707 906.799 641.212 906.842 661.925C906.842 683.549 911.272 704.553 920.089 724.361Z" fill="#FF1744"/>
<path d="M95.7312 456.161C99.6352 454.015 102.527 450.406 103.771 446.128C104.39 444.006 104.584 441.784 104.343 439.587C104.102 437.39 103.43 435.263 102.366 433.326C101.301 431.389 99.8647 429.682 98.1391 428.301C96.4136 426.921 94.4326 425.894 92.3097 425.28L27.7839 406.533C25.6527 405.874 23.4115 405.645 21.191 405.861C18.9706 406.077 16.8154 406.733 14.8511 407.79C12.8869 408.848 11.153 410.286 9.75056 412.021C8.34813 413.756 7.30529 415.753 6.68288 417.896C6.06046 420.038 5.87092 422.283 6.12535 424.499C6.37977 426.716 7.07306 428.859 8.16474 430.805C9.25642 432.75 10.7247 434.459 12.4837 435.831C14.2428 437.203 16.2576 438.211 18.4104 438.796L82.9524 457.572C87.2307 458.815 91.8273 458.307 95.7312 456.161Z" fill="#FF1744"/>
<path d="M329.865 610.762C361.103 593.589 384.24 564.71 394.186 530.478C404.131 496.246 400.071 459.466 382.898 428.228C365.725 396.99 336.846 373.853 302.614 363.908C268.382 353.962 231.602 358.022 200.364 375.195C169.126 392.368 145.989 421.247 136.043 455.479C126.098 489.711 130.158 526.491 147.331 557.73C164.504 588.968 193.383 612.104 227.615 622.05C261.847 631.995 298.627 627.935 329.865 610.762ZM135.613 257.412C139.518 255.266 144.115 254.758 148.394 256.001C152.673 257.244 156.283 260.137 158.43 264.041L190.805 322.933C192.952 326.838 193.459 331.435 192.216 335.714C190.973 339.993 188.081 343.603 184.176 345.75C180.271 347.896 175.674 348.404 171.395 347.161C167.116 345.917 163.506 343.025 161.359 339.121L128.984 280.229C126.837 276.324 126.33 271.727 127.573 267.448C128.816 263.169 131.708 259.559 135.613 257.412ZM340.116 234.83C344.393 236.073 348.002 238.965 350.149 242.869C352.295 246.773 352.803 251.37 351.56 255.648L332.829 320.203C332.212 322.323 331.183 324.3 329.802 326.022C328.42 327.744 326.713 329.177 324.778 330.239C320.869 332.384 316.269 332.888 311.988 331.641C309.869 331.024 307.892 329.995 306.17 328.614C304.448 327.232 303.015 325.525 301.953 323.59C299.808 319.681 299.303 315.081 300.55 310.8L319.297 246.275C320.541 241.997 323.433 238.388 327.337 236.242C331.241 234.095 335.837 233.588 340.116 234.83Z" fill="#FF1744"/>
<mask id="path-6-outside-1_806_215" maskUnits="userSpaceOnUse" x="62.4365" y="181.718" width="1769" height="656" fill="black">
<rect fill="white" x="62.4365" y="181.718" width="1769" height="656"/>
<path fill-rule="evenodd" clip-rule="evenodd" d="M472.104 695.118H398.251V649.957L367.435 634.017C357.163 628.704 346.891 623.214 336.619 617.546C296.947 662.531 247.004 685.023 186.788 685.023C163.765 685.023 150.127 684.315 145.877 682.898L121.437 559.102C152.961 581.771 182.006 593.106 208.572 593.106C217.427 593.106 226.46 591.512 235.669 588.324C244.878 585.136 253.202 580.709 260.641 575.041C268.079 569.02 274.101 561.758 278.705 553.257C283.31 544.402 285.612 534.484 285.612 523.504C285.612 518.191 284.55 512.878 282.425 507.564C280.299 501.897 277.111 496.761 272.861 492.156C268.965 487.197 264.36 483.301 259.047 480.467C253.734 477.28 247.889 475.686 241.513 475.686C233.721 475.686 226.814 477.457 220.792 480.999C215.125 484.541 212.291 490.031 212.291 497.47C212.291 506.325 215.479 514.294 221.855 521.379C228.231 528.463 236.554 534.13 246.827 538.381L185.194 563.352C184.84 562.998 183.423 561.227 180.944 558.039C178.464 554.497 175.808 549.892 172.974 544.225C170.494 538.558 168.192 532.005 166.067 524.567C163.942 516.774 162.879 508.273 162.879 499.063C162.879 485.604 165.536 473.383 170.849 462.403C176.162 451.068 183.246 441.327 192.101 433.181C200.956 425.034 211.051 418.835 222.386 414.585C233.721 409.98 245.587 407.678 257.984 407.678C272.507 407.678 286.498 411.397 299.958 418.835C313.418 425.919 325.284 435.306 335.556 446.995C345.828 458.684 353.975 471.966 359.996 486.843C366.372 501.72 369.56 516.774 369.56 532.005C369.56 543.694 367.966 554.497 364.778 564.415L398.251 577.167V398.114H387.508L414.074 364.641H504.969C502.643 355.609 501.479 346.576 501.479 337.544C501.479 321.251 505.73 306.197 514.231 292.382C522.732 278.214 535.129 265.994 551.423 255.722C568.071 245.096 588.615 236.772 613.055 230.75C637.496 224.729 665.478 221.718 697.003 221.718C729.944 221.718 763.417 226.145 797.421 235.001L823.987 355.609C755.624 321.251 692.398 304.071 634.308 304.071C590.386 304.071 568.425 317.354 568.425 343.92C568.425 348.879 569.31 355.786 571.081 364.641H621.685L596.713 398.114H586.49V695.118H510.512V398.114H496.013H486.603H472.104V695.118ZM1790.25 531.084C1774.58 412.136 1671.8 355.515 1597.37 341.972C1568.91 336.793 1551.9 334.601 1546.32 335.397L1488.27 482.919C1532.34 461.989 1570.79 454.511 1603.62 460.486C1614.57 462.478 1625.37 466.48 1636.04 472.492C1646.71 478.503 1656 485.848 1663.92 494.527C1671.76 503.643 1677.57 513.972 1681.35 525.516C1685.05 537.497 1685.66 550.274 1683.19 563.847C1682 570.414 1679.49 576.742 1675.67 582.832C1671.77 589.359 1666.67 594.99 1660.38 599.726C1654.45 604.979 1647.88 608.759 1640.68 611.067C1633.39 613.812 1625.81 614.468 1617.93 613.034C1608.3 611.281 1600.16 607.539 1593.51 601.806C1587.3 596.153 1585.04 588.729 1586.71 579.535C1588.7 568.589 1594.43 559.456 1603.91 552.133C1613.38 544.811 1624.95 539.678 1638.6 536.734L1568.03 492.005C1567.52 492.363 1565.37 494.234 1561.59 497.617C1557.72 501.437 1553.41 506.531 1548.63 512.899C1544.29 519.347 1539.97 526.929 1535.67 535.645C1531.29 544.799 1528.06 555.068 1525.99 566.451C1522.96 583.088 1523.5 598.791 1527.6 613.558C1531.62 628.764 1538.18 642.397 1547.29 654.459C1556.41 666.521 1567.49 676.453 1580.55 684.256C1593.52 692.497 1607.67 698.012 1622.99 700.801C1640.94 704.067 1659.07 702.617 1677.38 696.45C1695.62 690.721 1712.39 681.788 1727.72 669.65C1743.05 657.512 1756.1 642.926 1766.89 625.892C1778.12 608.937 1785.45 591.047 1788.87 572.22C1791.5 557.772 1791.96 544.06 1790.25 531.084ZM872.785 725.736H797.869V714.488C793.431 693.485 785.758 677.529 774.849 666.621C770.763 662.534 765.859 659.101 760.137 656.322C754.416 653.543 748.531 651.745 742.482 650.928C736.271 650.274 730.141 650.846 724.092 652.644C717.88 654.606 712.241 658.12 707.173 663.188C704.721 665.64 702.759 668.582 701.288 672.015C699.654 675.611 698.754 679.453 698.591 683.54C698.101 687.626 698.428 691.55 699.572 695.309C700.553 699.233 702.514 702.666 705.457 705.608C709.053 709.204 713.058 711.575 717.472 712.719C721.722 713.7 725.563 712.474 728.996 709.041C733.083 704.954 735.29 699.805 735.617 693.593C735.944 687.381 734.718 680.924 731.939 674.222L771.907 691.141C771.907 691.468 771.743 692.939 771.417 695.555C770.926 698.334 770.027 701.685 768.719 705.608C767.248 709.368 765.286 713.455 762.834 717.868C760.219 722.445 756.786 726.859 752.536 731.109C746.324 737.321 739.458 741.735 731.939 744.35C724.256 747.129 716.491 748.355 708.644 748.028C700.798 747.701 693.278 745.903 686.086 742.634C678.729 739.528 672.191 735.114 666.469 729.393C659.767 722.691 655.026 714.517 652.247 704.872C649.305 695.391 648.161 685.583 648.815 675.448C649.468 665.313 651.839 655.423 655.925 645.778C659.849 635.97 665.325 627.551 672.354 620.522C677.749 615.128 683.47 610.878 689.518 607.772C729.266 587.361 768.565 595.543 797.869 612.05V590.251V440.952C786.889 428.909 773.252 422.887 756.958 422.887C745.269 422.887 733.758 426.252 722.423 432.982C738.716 440.775 751.291 451.578 760.146 465.393C769.001 478.852 773.429 492.49 773.429 506.304C773.429 519.409 772.012 530.744 769.178 540.308C766.345 549.517 764.219 555.007 762.803 556.778L678.324 558.904C698.868 547.923 709.14 530.921 709.14 507.898C709.14 490.541 700.285 479.384 682.574 474.425C675.136 486.468 669.646 500.636 666.104 516.93L661.322 509.492C654.238 496.032 646.976 482.926 639.538 470.174L617.223 430.857C647.685 386.581 687.533 364.443 736.768 364.443H743.675C765.991 367.277 784.055 372.944 797.869 381.445V364.443H905.954L879.92 397.916H872.785V725.736ZM1137.94 716.704H1060.9V691.201C1049.21 687.659 1037.7 685.888 1026.37 685.888C1016.1 685.888 1006.35 687.659 997.145 691.201C988.29 694.743 980.32 699.348 973.236 705.015C966.152 711.036 960.13 717.589 955.171 724.674C950.567 732.112 947.556 739.55 946.139 746.989L929.668 727.33C922.23 718.475 914.969 709.797 907.884 701.296C900.8 692.795 893.539 684.471 886.101 676.324C891.414 669.24 897.967 662.687 905.759 656.665C913.906 650.29 922.584 644.977 931.794 640.726C941.003 636.121 950.567 632.579 960.485 630.1C970.402 627.266 979.966 625.849 989.175 625.849C1002.64 625.849 1015.56 627.266 1027.96 630.1C1040.71 632.933 1051.69 636.475 1060.9 640.726V632.756C1053.11 626.381 1043.55 620.536 1032.21 615.223C1021.23 609.556 1009.54 604.597 997.145 600.346C985.102 596.096 973.059 592.731 961.016 590.251C949.327 587.772 939.055 586.532 930.2 586.532L921.167 587.063C916.917 586.709 912.843 585.292 908.947 582.813C905.051 579.979 903.103 576.083 903.103 571.124C903.103 566.873 904.874 562.977 908.416 559.435L962.185 505.154C933.254 490.797 904.219 462.713 901.975 418.705C901.665 412.631 902.393 406.3 904.158 399.712C906.458 391.128 910.539 383.128 916.401 375.712C922.061 368.242 928.686 361.994 936.276 356.967C943.865 351.939 952.01 348.452 960.711 346.504C969.466 344.357 977.96 344.386 986.194 346.592C993.223 348.476 999.603 351.576 1005.33 355.893C1011.12 360.011 1015.91 365.038 1019.7 370.975C1023.49 376.912 1026.03 383.478 1027.33 390.673C1028.69 397.669 1028.35 404.96 1026.32 412.546C1024.93 417.736 1023.04 422.366 1020.66 426.435C1018.33 430.304 1016.03 433.648 1013.77 436.465C1011.31 439.229 1009.11 441.42 1007.17 443.04C1005.28 444.46 1004.21 445.243 1003.96 445.389L972.782 421.951C979.248 421.116 984.823 419.187 989.508 416.163C994.193 413.139 997.204 409.131 998.541 404.141C999.664 399.948 998.887 396.424 996.209 393.566C993.329 390.655 989.681 388.608 985.263 387.424C981.648 386.455 978.093 386.466 974.599 387.455C971.159 388.245 967.96 389.741 965.002 391.944C961.897 393.894 959.314 396.304 957.253 399.175C955.245 401.847 953.841 404.68 953.038 407.674C951.38 413.863 951.188 419.802 952.461 425.493C953.788 430.984 956.106 435.991 959.414 440.515C962.775 444.839 966.826 448.599 971.566 451.794C976.306 454.99 981.187 457.261 986.207 458.606C992.28 460.233 998.859 460.883 1005.94 460.556L1018.4 447.859C1022.29 443.609 1036.46 429.44 1060.9 405.354V364.443H1177.84L1145.96 397.916H1137.94V716.704ZM1060.9 493.021V553.591C1041.42 546.506 1023.71 542.964 1007.77 542.964H1002.99C1006.53 539.422 1010.78 535.703 1015.74 531.807C1020.7 527.91 1026.19 523.306 1032.21 517.993L1060.9 493.021ZM1247.34 646.468L1424.41 752.972C1440.02 746.191 1455.43 739.21 1470.63 732.03C1486.24 724.85 1501.64 717.471 1516.85 709.892L1360.19 607.577C1381 593.217 1398.4 578.458 1412.41 563.3C1426.41 547.743 1437.82 532.785 1446.62 518.425C1455.43 504.065 1461.63 490.901 1465.23 478.935C1469.23 466.968 1471.23 457.395 1471.23 450.214C1471.23 445.428 1470.43 440.841 1468.83 436.453C1467.63 432.065 1465.63 428.674 1462.83 426.281C1454.42 419.5 1446.22 413.716 1438.22 408.929C1430.62 403.744 1422.01 398.758 1412.41 393.971C1403.2 389.184 1392.4 384.198 1380 379.013C1367.99 373.827 1353.59 367.844 1336.78 361.063C1311.57 352.287 1281.76 331.744 1247.34 299.434L1248.54 427.478C1257.35 441.439 1274.76 455.4 1300.77 469.361C1310.37 472.951 1318.97 475.743 1326.58 477.738C1334.58 479.333 1341.38 480.73 1346.98 481.926C1352.99 483.123 1357.59 484.519 1360.79 486.115C1363.99 487.311 1365.59 489.705 1365.59 493.295C1365.59 498.48 1362.99 503.865 1357.79 509.45C1352.59 515.034 1346.18 520.02 1338.58 524.408C1330.98 528.796 1322.77 532.585 1313.97 535.776C1305.57 538.569 1297.76 539.965 1290.56 539.965C1279.76 539.965 1270.15 539.167 1261.75 537.571C1253.35 535.976 1246.74 533.981 1241.94 531.588L1247.34 646.468Z"/>
</mask>
<path fill-rule="evenodd" clip-rule="evenodd" d="M472.104 695.118H398.251V649.957L367.435 634.017C357.163 628.704 346.891 623.214 336.619 617.546C296.947 662.531 247.004 685.023 186.788 685.023C163.765 685.023 150.127 684.315 145.877 682.898L121.437 559.102C152.961 581.771 182.006 593.106 208.572 593.106C217.427 593.106 226.46 591.512 235.669 588.324C244.878 585.136 253.202 580.709 260.641 575.041C268.079 569.02 274.101 561.758 278.705 553.257C283.31 544.402 285.612 534.484 285.612 523.504C285.612 518.191 284.55 512.878 282.425 507.564C280.299 501.897 277.111 496.761 272.861 492.156C268.965 487.197 264.36 483.301 259.047 480.467C253.734 477.28 247.889 475.686 241.513 475.686C233.721 475.686 226.814 477.457 220.792 480.999C215.125 484.541 212.291 490.031 212.291 497.47C212.291 506.325 215.479 514.294 221.855 521.379C228.231 528.463 236.554 534.13 246.827 538.381L185.194 563.352C184.84 562.998 183.423 561.227 180.944 558.039C178.464 554.497 175.808 549.892 172.974 544.225C170.494 538.558 168.192 532.005 166.067 524.567C163.942 516.774 162.879 508.273 162.879 499.063C162.879 485.604 165.536 473.383 170.849 462.403C176.162 451.068 183.246 441.327 192.101 433.181C200.956 425.034 211.051 418.835 222.386 414.585C233.721 409.98 245.587 407.678 257.984 407.678C272.507 407.678 286.498 411.397 299.958 418.835C313.418 425.919 325.284 435.306 335.556 446.995C345.828 458.684 353.975 471.966 359.996 486.843C366.372 501.72 369.56 516.774 369.56 532.005C369.56 543.694 367.966 554.497 364.778 564.415L398.251 577.167V398.114H387.508L414.074 364.641H504.969C502.643 355.609 501.479 346.576 501.479 337.544C501.479 321.251 505.73 306.197 514.231 292.382C522.732 278.214 535.129 265.994 551.423 255.722C568.071 245.096 588.615 236.772 613.055 230.75C637.496 224.729 665.478 221.718 697.003 221.718C729.944 221.718 763.417 226.145 797.421 235.001L823.987 355.609C755.624 321.251 692.398 304.071 634.308 304.071C590.386 304.071 568.425 317.354 568.425 343.92C568.425 348.879 569.31 355.786 571.081 364.641H621.685L596.713 398.114H586.49V695.118H510.512V398.114H496.013H486.603H472.104V695.118ZM1790.25 531.084C1774.58 412.136 1671.8 355.515 1597.37 341.972C1568.91 336.793 1551.9 334.601 1546.32 335.397L1488.27 482.919C1532.34 461.989 1570.79 454.511 1603.62 460.486C1614.57 462.478 1625.37 466.48 1636.04 472.492C1646.71 478.503 1656 485.848 1663.92 494.527C1671.76 503.643 1677.57 513.972 1681.35 525.516C1685.05 537.497 1685.66 550.274 1683.19 563.847C1682 570.414 1679.49 576.742 1675.67 582.832C1671.77 589.359 1666.67 594.99 1660.38 599.726C1654.45 604.979 1647.88 608.759 1640.68 611.067C1633.39 613.812 1625.81 614.468 1617.93 613.034C1608.3 611.281 1600.16 607.539 1593.51 601.806C1587.3 596.153 1585.04 588.729 1586.71 579.535C1588.7 568.589 1594.43 559.456 1603.91 552.133C1613.38 544.811 1624.95 539.678 1638.6 536.734L1568.03 492.005C1567.52 492.363 1565.37 494.234 1561.59 497.617C1557.72 501.437 1553.41 506.531 1548.63 512.899C1544.29 519.347 1539.97 526.929 1535.67 535.645C1531.29 544.799 1528.06 555.068 1525.99 566.451C1522.96 583.088 1523.5 598.791 1527.6 613.558C1531.62 628.764 1538.18 642.397 1547.29 654.459C1556.41 666.521 1567.49 676.453 1580.55 684.256C1593.52 692.497 1607.67 698.012 1622.99 700.801C1640.94 704.067 1659.07 702.617 1677.38 696.45C1695.62 690.721 1712.39 681.788 1727.72 669.65C1743.05 657.512 1756.1 642.926 1766.89 625.892C1778.12 608.937 1785.45 591.047 1788.87 572.22C1791.5 557.772 1791.96 544.06 1790.25 531.084ZM872.785 725.736H797.869V714.488C793.431 693.485 785.758 677.529 774.849 666.621C770.763 662.534 765.859 659.101 760.137 656.322C754.416 653.543 748.531 651.745 742.482 650.928C736.271 650.274 730.141 650.846 724.092 652.644C717.88 654.606 712.241 658.12 707.173 663.188C704.721 665.64 702.759 668.582 701.288 672.015C699.654 675.611 698.754 679.453 698.591 683.54C698.101 687.626 698.428 691.55 699.572 695.309C700.553 699.233 702.514 702.666 705.457 705.608C709.053 709.204 713.058 711.575 717.472 712.719C721.722 713.7 725.563 712.474 728.996 709.041C733.083 704.954 735.29 699.805 735.617 693.593C735.944 687.381 734.718 680.924 731.939 674.222L771.907 691.141C771.907 691.468 771.743 692.939 771.417 695.555C770.926 698.334 770.027 701.685 768.719 705.608C767.248 709.368 765.286 713.455 762.834 717.868C760.219 722.445 756.786 726.859 752.536 731.109C746.324 737.321 739.458 741.735 731.939 744.35C724.256 747.129 716.491 748.355 708.644 748.028C700.798 747.701 693.278 745.903 686.086 742.634C678.729 739.528 672.191 735.114 666.469 729.393C659.767 722.691 655.026 714.517 652.247 704.872C649.305 695.391 648.161 685.583 648.815 675.448C649.468 665.313 651.839 655.423 655.925 645.778C659.849 635.97 665.325 627.551 672.354 620.522C677.749 615.128 683.47 610.878 689.518 607.772C729.266 587.361 768.565 595.543 797.869 612.05V590.251V440.952C786.889 428.909 773.252 422.887 756.958 422.887C745.269 422.887 733.758 426.252 722.423 432.982C738.716 440.775 751.291 451.578 760.146 465.393C769.001 478.852 773.429 492.49 773.429 506.304C773.429 519.409 772.012 530.744 769.178 540.308C766.345 549.517 764.219 555.007 762.803 556.778L678.324 558.904C698.868 547.923 709.14 530.921 709.14 507.898C709.14 490.541 700.285 479.384 682.574 474.425C675.136 486.468 669.646 500.636 666.104 516.93L661.322 509.492C654.238 496.032 646.976 482.926 639.538 470.174L617.223 430.857C647.685 386.581 687.533 364.443 736.768 364.443H743.675C765.991 367.277 784.055 372.944 797.869 381.445V364.443H905.954L879.92 397.916H872.785V725.736ZM1137.94 716.704H1060.9V691.201C1049.21 687.659 1037.7 685.888 1026.37 685.888C1016.1 685.888 1006.35 687.659 997.145 691.201C988.29 694.743 980.32 699.348 973.236 705.015C966.152 711.036 960.13 717.589 955.171 724.674C950.567 732.112 947.556 739.55 946.139 746.989L929.668 727.33C922.23 718.475 914.969 709.797 907.884 701.296C900.8 692.795 893.539 684.471 886.101 676.324C891.414 669.24 897.967 662.687 905.759 656.665C913.906 650.29 922.584 644.977 931.794 640.726C941.003 636.121 950.567 632.579 960.485 630.1C970.402 627.266 979.966 625.849 989.175 625.849C1002.64 625.849 1015.56 627.266 1027.96 630.1C1040.71 632.933 1051.69 636.475 1060.9 640.726V632.756C1053.11 626.381 1043.55 620.536 1032.21 615.223C1021.23 609.556 1009.54 604.597 997.145 600.346C985.102 596.096 973.059 592.731 961.016 590.251C949.327 587.772 939.055 586.532 930.2 586.532L921.167 587.063C916.917 586.709 912.843 585.292 908.947 582.813C905.051 579.979 903.103 576.083 903.103 571.124C903.103 566.873 904.874 562.977 908.416 559.435L962.185 505.154C933.254 490.797 904.219 462.713 901.975 418.705C901.665 412.631 902.393 406.3 904.158 399.712C906.458 391.128 910.539 383.128 916.401 375.712C922.061 368.242 928.686 361.994 936.276 356.967C943.865 351.939 952.01 348.452 960.711 346.504C969.466 344.357 977.96 344.386 986.194 346.592C993.223 348.476 999.603 351.576 1005.33 355.893C1011.12 360.011 1015.91 365.038 1019.7 370.975C1023.49 376.912 1026.03 383.478 1027.33 390.673C1028.69 397.669 1028.35 404.96 1026.32 412.546C1024.93 417.736 1023.04 422.366 1020.66 426.435C1018.33 430.304 1016.03 433.648 1013.77 436.465C1011.31 439.229 1009.11 441.42 1007.17 443.04C1005.28 444.46 1004.21 445.243 1003.96 445.389L972.782 421.951C979.248 421.116 984.823 419.187 989.508 416.163C994.193 413.139 997.204 409.131 998.541 404.141C999.664 399.948 998.887 396.424 996.209 393.566C993.329 390.655 989.681 388.608 985.263 387.424C981.648 386.455 978.093 386.466 974.599 387.455C971.159 388.245 967.96 389.741 965.002 391.944C961.897 393.894 959.314 396.304 957.253 399.175C955.245 401.847 953.841 404.68 953.038 407.674C951.38 413.863 951.188 419.802 952.461 425.493C953.788 430.984 956.106 435.991 959.414 440.515C962.775 444.839 966.826 448.599 971.566 451.794C976.306 454.99 981.187 457.261 986.207 458.606C992.28 460.233 998.859 460.883 1005.94 460.556L1018.4 447.859C1022.29 443.609 1036.46 429.44 1060.9 405.354V364.443H1177.84L1145.96 397.916H1137.94V716.704ZM1060.9 493.021V553.591C1041.42 546.506 1023.71 542.964 1007.77 542.964H1002.99C1006.53 539.422 1010.78 535.703 1015.74 531.807C1020.7 527.91 1026.19 523.306 1032.21 517.993L1060.9 493.021ZM1247.34 646.468L1424.41 752.972C1440.02 746.191 1455.43 739.21 1470.63 732.03C1486.24 724.85 1501.64 717.471 1516.85 709.892L1360.19 607.577C1381 593.217 1398.4 578.458 1412.41 563.3C1426.41 547.743 1437.82 532.785 1446.62 518.425C1455.43 504.065 1461.63 490.901 1465.23 478.935C1469.23 466.968 1471.23 457.395 1471.23 450.214C1471.23 445.428 1470.43 440.841 1468.83 436.453C1467.63 432.065 1465.63 428.674 1462.83 426.281C1454.42 419.5 1446.22 413.716 1438.22 408.929C1430.62 403.744 1422.01 398.758 1412.41 393.971C1403.2 389.184 1392.4 384.198 1380 379.013C1367.99 373.827 1353.59 367.844 1336.78 361.063C1311.57 352.287 1281.76 331.744 1247.34 299.434L1248.54 427.478C1257.35 441.439 1274.76 455.4 1300.77 469.361C1310.37 472.951 1318.97 475.743 1326.58 477.738C1334.58 479.333 1341.38 480.73 1346.98 481.926C1352.99 483.123 1357.59 484.519 1360.79 486.115C1363.99 487.311 1365.59 489.705 1365.59 493.295C1365.59 498.48 1362.99 503.865 1357.79 509.45C1352.59 515.034 1346.18 520.02 1338.58 524.408C1330.98 528.796 1322.77 532.585 1313.97 535.776C1305.57 538.569 1297.76 539.965 1290.56 539.965C1279.76 539.965 1270.15 539.167 1261.75 537.571C1253.35 535.976 1246.74 533.981 1241.94 531.588L1247.34 646.468Z" fill="#FFEBEE"/>
<path d="M121.437 558.904L133.113 542.666L92.0088 513.108L101.815 562.778L121.437 558.904ZM235.669 588.126L229.127 569.226H229.127L235.669 588.126ZM260.641 574.843L272.762 590.752L272.996 590.573L273.225 590.388L260.641 574.843ZM278.705 553.059L296.291 562.585L296.372 562.436L296.45 562.286L278.705 553.059ZM282.425 507.366L263.698 514.389L263.774 514.592L263.855 514.794L282.425 507.366ZM272.861 491.958L257.135 504.315L257.626 504.94L258.165 505.524L272.861 491.958ZM259.047 480.269L248.757 497.419L249.19 497.679L249.635 497.916L259.047 480.269ZM220.792 480.801L210.652 463.562L210.42 463.698L210.192 463.841L220.792 480.801ZM221.855 521.18L236.721 507.801L236.721 507.801L221.855 521.18ZM246.827 538.182L254.336 556.719L299.607 538.378L254.474 519.702L246.827 538.182ZM387.508 397.916L371.843 385.482L346.102 417.916H387.508V397.916ZM414.074 364.443V344.443H404.414L398.408 352.01L414.074 364.443ZM621.685 364.443L637.716 376.402L661.557 344.443H621.685V364.443ZM141.103 555.261L141.058 555.03L101.815 562.778L101.861 563.009L141.103 555.261ZM109.76 575.141C143.186 599.178 176.285 612.908 208.572 612.908V572.908C187.728 572.908 162.736 563.968 133.113 542.666L109.76 575.141ZM208.572 612.908C219.866 612.908 231.108 610.869 242.211 607.026L229.127 569.226C221.811 571.759 214.988 572.908 208.572 572.908V612.908ZM242.211 607.026C253.342 603.173 263.564 597.759 272.762 590.752L248.52 558.934C242.841 563.261 236.415 566.703 229.127 569.226L242.211 607.026ZM273.225 590.388C282.732 582.692 290.445 573.378 296.291 562.585L261.12 543.534C257.756 549.743 253.426 554.951 248.057 559.298L273.225 590.388ZM296.45 562.286C302.68 550.304 305.612 537.171 305.612 523.306H265.612C265.612 531.402 263.94 538.104 260.961 543.832L296.45 562.286ZM305.612 523.306C305.612 515.258 303.991 507.43 300.994 499.938L263.855 514.794C265.109 517.928 265.612 520.727 265.612 523.306H305.612ZM301.151 500.344C298.086 492.17 293.498 484.829 287.557 478.393L258.165 505.524C260.725 508.297 262.513 511.228 263.698 514.389L301.151 500.344ZM288.587 479.602C283.059 472.566 276.336 466.824 268.458 462.622L249.635 497.916C252.383 499.382 254.87 501.433 257.135 504.315L288.587 479.602ZM269.337 463.119C260.822 458.011 251.404 455.487 241.513 455.487V495.487C244.375 495.487 246.645 496.152 248.757 497.419L269.337 463.119ZM241.513 455.487C230.577 455.487 220.091 458.009 210.652 463.562L230.933 498.039C233.536 496.508 236.865 495.487 241.513 495.487V455.487ZM210.192 463.841C197.932 471.503 192.291 483.865 192.291 497.271H232.291C232.291 496.677 232.348 496.389 232.359 496.34C232.367 496.303 232.333 496.468 232.189 496.748C232.041 497.035 231.845 497.309 231.637 497.53C231.436 497.743 231.319 497.807 231.392 497.761L210.192 463.841ZM192.291 497.271C192.291 511.463 197.582 524.108 206.989 534.56L236.721 507.801C233.376 504.085 232.291 500.79 232.291 497.271H192.291ZM206.989 534.56C215.666 544.201 226.607 551.461 239.18 556.663L254.474 519.702C246.502 516.403 240.795 512.328 236.721 507.801L206.989 534.56ZM239.317 519.646L239.075 519.744L254.095 556.817L254.336 556.719L239.317 519.646ZM357.715 582.928L391.131 595.658L405.371 558.279L371.955 545.549L357.715 582.928ZM387.666 377.916H387.508V417.916H387.666V377.916ZM403.174 410.349L429.74 376.876L398.408 352.01L371.843 385.482L403.174 410.349ZM571.081 384.443H621.685V344.443H571.081V384.443ZM605.654 352.484L605.506 352.682L637.568 376.6L637.716 376.402L605.654 352.484ZM566.49 398.114L566.49 694.92H606.49L606.49 398.114H566.49ZM656.932 460.302L634.616 420.985L599.829 440.729L622.144 480.046L656.932 460.302ZM414.074 384.443H504.918V344.443H414.074V384.443ZM398.251 695.118H358.251V735.118H398.251V695.118ZM472.104 695.118V735.118H512.104V695.118H472.104ZM398.251 649.957H438.251V625.612L416.628 614.428L398.251 649.957ZM367.435 634.017L385.812 598.488L367.435 634.017ZM336.619 617.546L355.942 582.523L327.844 567.021L306.618 591.089L336.619 617.546ZM145.877 682.898L106.634 690.645L111.143 713.484L133.228 720.845L145.877 682.898ZM121.437 559.102L144.789 526.627L62.5822 467.511L82.194 566.849L121.437 559.102ZM235.669 588.324L248.753 626.124L248.753 626.124L235.669 588.324ZM260.641 575.041L284.882 606.859L285.351 606.502L285.809 606.131L260.641 575.041ZM278.705 553.257L313.877 572.309L314.038 572.012L314.194 571.712L278.705 553.257ZM282.425 507.564L244.971 521.609L245.124 522.016L245.285 522.42L282.425 507.564ZM272.861 492.156L241.408 516.869L242.39 518.119L243.469 519.288L272.861 492.156ZM259.047 480.467L238.467 514.767L239.333 515.287L240.223 515.762L259.047 480.467ZM220.792 480.999L200.511 446.521L200.048 446.794L199.592 447.079L220.792 480.999ZM221.855 521.379L251.587 494.62L251.587 494.62L221.855 521.379ZM246.827 538.381L261.847 575.453L352.384 538.77L262.121 501.42L246.827 538.381ZM185.194 563.352L156.91 591.636L175.651 610.378L200.215 600.425L185.194 563.352ZM180.944 558.039L148.174 580.978L148.752 581.802L149.37 582.597L180.944 558.039ZM172.974 544.225L136.328 560.258L136.738 561.197L137.197 562.114L172.974 544.225ZM166.067 524.567L127.476 535.091L127.54 535.324L127.606 535.555L166.067 524.567ZM170.849 462.403L206.855 479.825L206.962 479.603L207.067 479.38L170.849 462.403ZM192.101 433.181L165.019 403.743L165.019 403.743L192.101 433.181ZM222.386 414.585L236.431 452.038L236.939 451.847L237.441 451.643L222.386 414.585ZM299.958 418.835L280.611 453.845L280.967 454.042L281.328 454.232L299.958 418.835ZM335.556 446.995L305.509 473.399L305.509 473.399L335.556 446.995ZM359.996 486.843L322.918 501.851L323.071 502.227L323.231 502.6L359.996 486.843ZM364.778 564.415L326.697 552.175L315.089 588.29L350.538 601.795L364.778 564.415ZM398.251 577.167L384.011 614.546L438.251 635.209V577.167H398.251ZM398.251 398.114H438.251V358.114H398.251V398.114ZM387.508 398.114L356.177 373.248L304.696 438.114H387.508V398.114ZM414.074 364.641V324.641H394.753L382.743 339.775L414.074 364.641ZM504.969 364.641V404.641H556.578L543.705 354.664L504.969 364.641ZM514.231 292.382L548.297 313.346L548.415 313.155L548.531 312.962L514.231 292.382ZM551.423 255.722L572.755 289.559L572.85 289.499L572.944 289.439L551.423 255.722ZM613.055 230.75L622.624 269.589L622.624 269.589L613.055 230.75ZM797.421 235.001L836.485 226.396L831.214 202.467L807.501 196.292L797.421 235.001ZM823.987 355.609L806.024 391.349L881.132 429.098L863.05 347.004L823.987 355.609ZM571.081 364.641L531.858 372.486L538.289 404.641H571.081V364.641ZM621.685 364.641L653.746 388.56L701.431 324.641H621.685V364.641ZM596.713 398.114V438.114H616.777L628.774 422.032L596.713 398.114ZM586.49 398.114V358.114H546.49V398.114H586.49ZM586.49 695.118V735.118H626.49V695.118H586.49ZM510.512 695.118H470.512V735.118H510.512V695.118ZM510.512 398.114H550.512V358.114H510.512V398.114ZM472.104 398.114V358.114H432.104V398.114H472.104ZM1597.37 341.972L1590.21 381.325L1597.37 341.972ZM1790.25 531.084L1829.91 525.859L1829.91 525.859L1790.25 531.084ZM1546.32 335.397L1540.67 295.798L1517.63 299.087L1509.1 320.749L1546.32 335.397ZM1488.27 482.919L1451.05 468.271L1413.97 562.493L1505.43 519.05L1488.27 482.919ZM1603.62 460.486L1610.78 421.133L1610.78 421.133L1603.62 460.486ZM1663.92 494.527L1694.25 468.445L1693.86 467.998L1693.47 467.563L1663.92 494.527ZM1681.35 525.516L1719.57 513.713L1719.47 513.39L1719.36 513.069L1681.35 525.516ZM1683.19 563.847L1722.55 571.008V571.008L1683.19 563.847ZM1675.67 582.832L1641.79 561.567L1641.56 561.935L1641.34 562.308L1675.67 582.832ZM1660.38 599.726L1636.32 567.771L1635.05 568.727L1633.86 569.781L1660.38 599.726ZM1640.68 611.067L1628.48 572.973L1627.52 573.281L1626.57 573.637L1640.68 611.067ZM1617.93 613.034L1625.09 573.68L1625.09 573.68L1617.93 613.034ZM1593.51 601.806L1566.58 631.383L1566.98 631.744L1567.39 632.096L1593.51 601.806ZM1586.71 579.535L1626.06 586.696V586.696L1586.71 579.535ZM1638.6 536.734L1647.03 575.836L1742.52 555.248L1660.01 502.95L1638.6 536.734ZM1568.03 492.005L1589.45 458.221L1567.06 444.031L1545.27 459.114L1568.03 492.005ZM1561.59 497.617L1534.92 467.803L1534.17 468.474L1533.45 469.182L1561.59 497.617ZM1548.63 512.899L1516.63 488.895L1516.02 489.715L1515.44 490.565L1548.63 512.899ZM1535.67 535.645L1499.8 517.948L1499.69 518.164L1499.59 518.381L1535.67 535.645ZM1525.99 566.451L1486.64 559.29V559.29L1525.99 566.451ZM1527.6 613.558L1566.27 603.339L1566.21 603.101L1566.14 602.863L1527.6 613.558ZM1547.29 654.459L1515.38 678.572V678.572L1547.29 654.459ZM1580.55 684.256L1601.99 650.492L1601.53 650.201L1601.07 649.923L1580.55 684.256ZM1622.99 700.801L1630.15 661.447L1622.99 700.801ZM1677.38 696.45L1665.39 658.29L1665 658.412L1664.62 658.542L1677.38 696.45ZM1766.89 625.892L1733.54 603.808L1733.32 604.146L1733.1 604.488L1766.89 625.892ZM1788.87 572.22L1828.22 579.382V579.381L1788.87 572.22ZM797.869 725.736H757.869V765.736H797.869V725.736ZM872.785 725.736V765.736H912.785V725.736H872.785ZM797.869 714.488H837.869V710.309L837.005 706.219L797.869 714.488ZM760.137 656.322L777.614 620.342L777.613 620.342L760.137 656.322ZM742.482 650.928L747.839 611.288L747.256 611.209L746.67 611.147L742.482 650.928ZM724.092 652.644L712.693 614.303L712.369 614.399L712.047 614.501L724.092 652.644ZM707.173 663.188L735.457 691.472L735.458 691.472L707.173 663.188ZM701.288 672.015L737.703 688.567L737.883 688.171L738.054 687.772L701.288 672.015ZM698.591 683.54L738.306 688.306L738.495 686.727L738.559 685.138L698.591 683.54ZM699.572 695.309L738.378 685.608L738.133 684.629L737.839 683.663L699.572 695.309ZM717.472 712.719L707.433 751.439L707.954 751.574L708.477 751.695L717.472 712.719ZM735.617 693.593L695.672 691.491V691.491L735.617 693.593ZM731.939 674.222L747.532 637.386L657.574 599.306L694.989 689.543L731.939 674.222ZM771.907 691.141H811.907V664.637L787.5 654.305L771.907 691.141ZM771.417 695.555L810.808 702.506L810.983 701.515L811.108 700.516L771.417 695.555ZM768.719 705.608L805.969 720.184L806.343 719.229L806.667 718.257L768.719 705.608ZM762.834 717.868L797.564 737.714L797.684 737.504L797.801 737.294L762.834 717.868ZM752.536 731.109L724.252 702.825L724.251 702.825L752.536 731.109ZM731.939 744.35L718.798 706.57L718.565 706.651L718.333 706.735L731.939 744.35ZM708.644 748.028L706.979 787.994H706.979L708.644 748.028ZM686.086 742.634L702.638 706.219L702.144 705.995L701.644 705.784L686.086 742.634ZM666.469 729.393L694.754 701.109L694.753 701.108L666.469 729.393ZM652.247 704.872L690.684 693.798L690.571 693.406L690.45 693.017L652.247 704.872ZM648.815 675.448L608.898 672.873L648.815 675.448ZM655.925 645.778L692.756 661.384L692.914 661.011L693.065 660.634L655.925 645.778ZM672.354 620.522L700.638 648.807L700.639 648.806L672.354 620.522ZM689.518 607.772L671.246 572.189L671.246 572.189L689.518 607.772ZM797.869 612.05L778.238 646.901L837.869 680.492V612.05H797.869ZM797.869 440.952H837.869V425.454L827.428 414.002L797.869 440.952ZM722.423 432.982L702.001 398.588L637.668 436.786L705.165 469.068L722.423 432.982ZM760.146 465.393L726.471 486.979L726.599 487.179L726.729 487.377L760.146 465.393ZM769.178 540.308L807.41 552.071L807.471 551.872L807.53 551.671L769.178 540.308ZM762.803 556.778L763.809 596.766L782.412 596.298L794.038 581.766L762.803 556.778ZM678.324 558.904L659.469 523.626L679.33 598.891L678.324 558.904ZM682.574 474.425L693.359 435.906L664.365 427.788L648.542 453.405L682.574 474.425ZM666.104 516.93L632.456 538.56L684.676 619.792L705.191 525.427L666.104 516.93ZM661.322 509.492L625.925 528.121L626.735 529.66L627.674 531.122L661.322 509.492ZM639.538 470.174L604.75 489.919L604.867 490.125L604.987 490.329L639.538 470.174ZM617.223 430.857L584.269 408.185L570.072 428.819L582.435 450.601L617.223 430.857ZM743.675 364.443L748.714 324.762L746.205 324.443H743.675V364.443ZM797.869 381.445L776.905 415.511L837.869 453.028V381.445H797.869ZM797.869 364.443V324.443H757.869V364.443H797.869ZM905.954 364.443L937.528 389.001L987.74 324.443H905.954V364.443ZM879.92 397.916V437.916H899.483L911.494 422.473L879.92 397.916ZM872.785 397.916V357.916H832.785V397.916H872.785ZM1060.9 716.704H1020.9V756.704H1060.9V716.704ZM1137.94 716.704V756.704H1177.94V716.704H1137.94ZM1060.9 691.201H1100.9V661.526L1072.5 652.92L1060.9 691.201ZM997.145 691.201L982.786 653.867L982.537 653.963L982.29 654.062L997.145 691.201ZM973.236 705.015L948.248 673.78L947.784 674.152L947.33 674.537L973.236 705.015ZM955.171 724.674L922.402 701.735L921.755 702.66L921.161 703.62L955.171 724.674ZM946.139 746.989L915.478 772.677L969.649 837.333L985.432 754.473L946.139 746.989ZM929.668 727.33L960.329 701.641L960.313 701.622L960.297 701.602L929.668 727.33ZM907.884 701.296L938.613 675.688L938.613 675.688L907.884 701.296ZM886.101 676.324L854.101 652.324L834.222 678.828L856.561 703.295L886.101 676.324ZM905.759 656.665L930.217 688.317L930.315 688.242L930.412 688.166L905.759 656.665ZM931.794 640.726L948.556 677.044L949.123 676.783L949.682 676.503L931.794 640.726ZM960.485 630.1L970.186 668.905L970.833 668.744L971.473 668.561L960.485 630.1ZM1027.96 630.1L1019.05 669.094L1019.17 669.121L1019.28 669.147L1027.96 630.1ZM1060.9 640.726L1044.14 677.044L1100.9 703.243V640.726H1060.9ZM1060.9 632.756H1100.9V613.801L1086.23 601.798L1060.9 632.756ZM1032.21 615.223L1013.87 650.768L1014.54 651.118L1015.23 651.441L1032.21 615.223ZM997.145 600.346L983.832 638.066L984.002 638.126L984.172 638.184L997.145 600.346ZM961.016 590.251L952.716 629.381L952.833 629.405L952.95 629.429L961.016 590.251ZM930.2 586.532V546.532H929.024L927.851 546.601L930.2 586.532ZM921.167 587.063L917.846 626.925L920.678 627.161L923.516 626.994L921.167 587.063ZM908.947 582.813L885.42 615.162L886.424 615.893L887.472 616.559L908.947 582.813ZM908.416 559.435L936.7 587.719L936.767 587.652L936.834 587.585L908.416 559.435ZM962.185 505.154L990.603 533.304L1029.59 493.947L979.965 469.323L962.185 505.154ZM901.975 418.705L941.923 416.668L901.975 418.705ZM904.158 399.712L865.521 389.359V389.359L904.158 399.712ZM916.401 375.712L947.782 400.516L948.034 400.196L948.281 399.871L916.401 375.712ZM936.276 356.967L958.365 390.314L958.366 390.314L936.276 356.967ZM960.711 346.504L969.449 385.538L969.846 385.449L970.24 385.352L960.711 346.504ZM986.194 346.592L975.842 385.229L975.842 385.229L986.194 346.592ZM1005.33 355.893L981.267 387.843L981.698 388.168L982.138 388.481L1005.33 355.893ZM1027.33 390.673L987.972 397.788L988.016 398.032L988.063 398.275L1027.33 390.673ZM1026.32 412.546L1064.95 422.899L1064.95 422.898L1026.32 412.546ZM1020.66 426.435L1054.93 447.058L1055.06 446.851L1055.18 446.641L1020.66 426.435ZM1013.77 436.465L1043.64 463.076L1044.32 462.307L1044.97 461.505L1013.77 436.465ZM1007.17 443.04L1031.22 475.002L1032.02 474.396L1032.8 473.75L1007.17 443.04ZM1003.96 445.389L979.917 477.36L1000.98 493.199L1023.85 480.09L1003.96 445.389ZM972.782 421.951L967.659 382.281L870.197 394.867L948.745 453.923L972.782 421.951ZM989.508 416.163L967.815 382.556L967.815 382.556L989.508 416.163ZM998.541 404.141L1037.18 414.493L1037.18 414.493L998.541 404.141ZM996.209 393.566L1025.39 366.211L1025.03 365.819L1024.65 365.438L996.209 393.566ZM985.263 387.424L974.91 426.061L974.91 426.061L985.263 387.424ZM974.599 387.455L983.55 426.441L984.531 426.216L985.499 425.941L974.599 387.455ZM965.002 391.944L986.27 425.822L987.617 424.976L988.894 424.025L965.002 391.944ZM957.253 399.175L989.232 423.203L989.494 422.854L989.749 422.499L957.253 399.175ZM953.038 407.674L991.675 418.027L991.675 418.027L953.038 407.674ZM952.461 425.493L913.427 434.229L913.501 434.56L913.58 434.889L952.461 425.493ZM959.414 440.515L927.125 464.125L927.473 464.6L927.833 465.064L959.414 440.515ZM986.207 458.606L975.855 497.243H975.855L986.207 458.606ZM1005.94 460.556L1007.79 500.513L1023.49 499.788L1034.5 488.564L1005.94 460.556ZM1018.4 447.859L1046.96 475.868L1047.43 475.386L1047.88 474.888L1018.4 447.859ZM1060.9 405.354L1088.98 433.844L1100.9 422.094V405.354H1060.9ZM1060.9 364.443V324.443H1020.9V364.443H1060.9ZM1177.84 364.443L1206.8 392.029L1271.17 324.443H1177.84V364.443ZM1145.96 397.916V437.916H1163.1L1174.92 425.502L1145.96 397.916ZM1137.94 397.916V357.916H1097.94V397.916H1137.94ZM1060.9 553.591L1047.23 591.182L1100.9 610.699V553.591H1060.9ZM1060.9 493.021H1100.9V405.177L1034.64 462.849L1060.9 493.021ZM1002.99 542.964L974.705 514.68L906.42 582.964H1002.99V542.964ZM1032.21 517.993L1005.95 487.82L1005.85 487.909L1005.75 487.999L1032.21 517.993ZM1424.41 752.972L1403.8 787.249L1421.45 797.871L1440.35 789.658L1424.41 752.972ZM1247.34 646.468L1207.39 648.347L1208.39 669.718L1226.73 680.746L1247.34 646.468ZM1470.63 732.03L1453.91 695.692L1453.73 695.775L1453.55 695.86L1470.63 732.03ZM1516.85 709.892L1534.69 745.692L1597.15 714.561L1538.72 676.402L1516.85 709.892ZM1360.19 607.577L1337.47 574.655L1288.44 608.492L1338.32 641.067L1360.19 607.577ZM1412.41 563.3L1441.79 590.445L1441.96 590.255L1442.14 590.063L1412.41 563.3ZM1446.62 518.425L1480.72 539.331L1480.72 539.331L1446.62 518.425ZM1465.23 478.935L1427.29 466.249L1427.1 466.825L1426.93 467.407L1465.23 478.935ZM1468.83 436.453L1430.25 447.008L1430.69 448.605L1431.25 450.161L1468.83 436.453ZM1462.83 426.281L1488.81 395.87L1488.39 395.505L1487.95 395.152L1462.83 426.281ZM1438.22 408.929L1415.68 441.975L1416.66 442.646L1417.69 443.258L1438.22 408.929ZM1412.41 393.971L1393.95 429.458L1394.26 429.617L1394.57 429.771L1412.41 393.971ZM1380 379.013L1364.13 415.733L1364.35 415.827L1364.57 415.918L1380 379.013ZM1336.78 361.063L1351.75 323.968L1350.85 323.605L1349.93 323.286L1336.78 361.063ZM1247.34 299.434L1274.72 270.273L1206.47 206.189L1207.35 299.809L1247.34 299.434ZM1248.54 427.478L1208.55 427.853L1208.65 439.208L1214.71 448.813L1248.54 427.478ZM1300.77 469.361L1281.85 504.605L1284.23 505.883L1286.76 506.829L1300.77 469.361ZM1326.58 477.738L1316.43 516.429L1317.58 516.732L1318.75 516.966L1326.58 477.738ZM1346.98 481.926L1338.63 521.044L1338.89 521.101L1339.16 521.154L1346.98 481.926ZM1360.79 486.115L1342.94 521.914L1344.82 522.849L1346.78 523.582L1360.79 486.115ZM1357.79 509.45L1328.52 482.185V482.185L1357.79 509.45ZM1338.58 524.408L1318.59 489.763L1318.59 489.764L1338.58 524.408ZM1313.97 535.776L1326.58 573.736L1327.1 573.566L1327.6 573.382L1313.97 535.776ZM1261.75 537.571L1269.21 498.274L1269.21 498.273L1261.75 537.571ZM1241.94 531.588L1259.79 495.788L1198.79 465.385L1201.99 533.467L1241.94 531.588ZM398.251 735.118H472.104V655.118H398.251V735.118ZM358.251 649.957V695.118H438.251V649.957H358.251ZM349.058 669.546L379.874 685.485L416.628 614.428L385.812 598.488L349.058 669.546ZM317.295 652.57C327.876 658.407 338.464 664.066 349.058 669.546L385.812 598.488C375.862 593.342 365.905 588.02 355.942 582.523L317.295 652.57ZM186.788 725.023C258.432 725.023 319.32 697.637 366.619 644.003L306.618 591.089C274.574 627.425 235.576 645.023 186.788 645.023V725.023ZM133.228 720.845C141.386 723.565 151.413 724.137 157.217 724.438C165.035 724.844 174.983 725.023 186.788 725.023V645.023C175.57 645.023 167.187 644.848 161.368 644.546C158.442 644.394 156.578 644.23 155.544 644.107C153.876 643.909 155.563 643.963 158.526 644.951L133.228 720.845ZM82.194 566.849L106.634 690.645L185.119 675.151L160.679 551.354L82.194 566.849ZM208.572 553.106C193.45 553.106 172.511 546.561 144.789 526.627L98.0836 591.577C133.411 616.981 170.563 633.106 208.572 633.106V553.106ZM222.585 550.525C217.162 552.402 212.549 553.106 208.572 553.106V633.106C222.306 633.106 235.757 630.622 248.753 626.124L222.585 550.525ZM236.399 543.224C232.479 546.211 227.951 548.667 222.584 550.525L248.753 626.124C261.805 621.606 273.925 615.207 284.882 606.859L236.399 543.224ZM243.534 534.206C241.412 538.123 238.774 541.279 235.473 543.952L285.809 606.131C297.385 596.76 306.789 585.394 313.877 572.309L243.534 534.206ZM245.612 523.504C245.612 528.715 244.569 532.202 243.217 534.803L314.194 571.712C322.051 556.602 325.612 540.253 325.612 523.504H245.612ZM245.285 522.42C245.491 522.935 245.566 523.248 245.592 523.379C245.617 523.504 245.612 523.533 245.612 523.504H325.612C325.612 512.721 323.432 502.38 319.564 492.709L245.285 522.42ZM243.469 519.288C244.338 520.229 244.726 520.956 244.971 521.609L319.878 493.52C315.872 482.839 309.885 473.293 302.253 465.025L243.469 519.288ZM240.223 515.762C240.407 515.859 240.776 516.065 241.408 516.869L304.314 467.444C297.153 458.33 288.313 450.743 277.87 445.173L240.223 515.762ZM241.513 515.686C241.333 515.686 240.837 515.658 240.154 515.472C239.463 515.283 238.878 515.014 238.467 514.767L279.627 446.168C267.91 439.138 254.918 435.686 241.513 435.686V515.686ZM241.073 515.476C240.947 515.55 240.812 515.617 240.679 515.672C240.547 515.726 240.455 515.752 240.424 515.761C240.393 515.768 240.452 515.751 240.62 515.731C240.789 515.71 241.081 515.686 241.513 515.686V435.686C227.433 435.686 213.369 438.958 200.511 446.521L241.073 515.476ZM252.291 497.47C252.291 498.843 252.011 502.147 249.961 506.119C247.814 510.278 244.737 513.203 241.992 514.919L199.592 447.079C180.739 458.862 172.291 478.094 172.291 497.47H252.291ZM251.587 494.62C251.203 494.194 251.484 494.389 251.821 495.233C251.979 495.628 252.107 496.062 252.19 496.499C252.272 496.933 252.291 497.27 252.291 497.47H172.291C172.291 516.997 179.685 534.318 192.123 548.137L251.587 494.62ZM262.121 501.42C256.449 499.073 253.359 496.589 251.587 494.62L192.123 548.137C203.102 560.337 216.66 569.187 231.532 575.341L262.121 501.42ZM200.215 600.425L261.847 575.453L231.806 501.308L170.173 526.28L200.215 600.425ZM149.37 582.597C150.65 584.243 151.754 585.649 152.631 586.746C152.707 586.841 154.781 589.507 156.91 591.636L213.479 535.068C214 535.59 214.394 536.014 214.602 536.241C214.831 536.491 215.008 536.691 215.115 536.813C215.321 537.049 215.449 537.202 215.458 537.214C215.48 537.24 215.379 537.118 215.101 536.771C214.561 536.097 213.717 535.024 212.518 533.482L149.37 582.597ZM137.197 562.114C140.544 568.808 144.184 575.277 148.174 580.978L213.713 535.101C212.745 533.718 211.071 530.977 208.751 526.337L137.197 562.114ZM127.606 535.555C130.107 544.308 132.98 552.606 136.328 560.258L209.62 528.192C208.009 524.51 206.278 519.702 204.528 513.578L127.606 535.555ZM122.879 499.063C122.879 511.341 124.295 523.428 127.476 535.091L204.657 514.042C203.588 510.12 202.879 505.205 202.879 499.063H122.879ZM134.842 444.98C126.639 461.934 122.879 480.201 122.879 499.063H202.879C202.879 491.006 204.432 484.832 206.855 479.825L134.842 444.98ZM165.019 403.743C152.183 415.552 142.059 429.577 134.63 445.425L207.067 479.38C210.264 472.56 214.309 467.103 219.184 462.618L165.019 403.743ZM208.341 377.131C192.215 383.179 177.687 392.089 165.019 403.743L219.183 462.618C224.226 457.979 229.888 454.492 236.431 452.038L208.341 377.131ZM257.984 367.678C240.496 367.678 223.512 370.952 207.331 377.526L237.441 451.643C243.929 449.007 250.677 447.678 257.984 447.678V367.678ZM319.305 383.825C300.283 373.313 279.675 367.678 257.984 367.678V447.678C265.338 447.678 272.713 449.48 280.611 453.845L319.305 383.825ZM365.603 420.59C352.182 405.318 336.471 392.851 318.588 383.438L281.328 454.232C290.365 458.988 298.386 465.294 305.509 473.399L365.603 420.59ZM397.074 471.836C389.42 452.924 378.935 435.762 365.602 420.59L305.509 473.399C312.721 481.606 318.53 491.009 322.918 501.851L397.074 471.836ZM409.56 532.005C409.56 511.022 405.136 490.626 396.762 471.087L323.231 502.6C327.608 512.815 329.56 522.525 329.56 532.005H409.56ZM402.859 576.655C407.463 562.332 409.56 547.348 409.56 532.005H329.56C329.56 540.039 328.469 546.663 326.697 552.175L402.859 576.655ZM412.491 539.787L379.018 527.036L350.538 601.795L384.011 614.546L412.491 539.787ZM358.251 398.114V577.167H438.251V398.114H358.251ZM387.508 438.114H398.251V358.114H387.508V438.114ZM382.743 339.775L356.177 373.248L418.84 422.98L445.406 389.507L382.743 339.775ZM504.969 324.641H414.074V404.641H504.969V324.641ZM461.479 337.544C461.479 350.051 463.095 362.434 466.233 374.618L543.705 354.664C542.19 348.784 541.479 343.102 541.479 337.544H461.479ZM480.165 271.419C467.765 291.567 461.479 313.884 461.479 337.544H541.479C541.479 328.618 543.694 320.826 548.297 313.346L480.165 271.419ZM530.091 221.885C509.374 234.946 492.151 251.436 479.931 271.803L548.531 312.962C553.313 304.992 560.885 297.042 572.755 289.559L530.091 221.885ZM603.486 191.912C575.915 198.704 551.078 208.488 529.901 222.005L572.944 289.439C585.063 281.703 601.314 274.839 622.624 269.589L603.486 191.912ZM697.003 181.718C663.025 181.718 631.728 184.954 603.486 191.912L622.624 269.589C643.264 264.504 667.931 261.718 697.003 261.718V181.718ZM807.501 196.292C770.424 186.636 733.564 181.718 697.003 181.718V261.718C726.324 261.718 756.41 265.655 787.341 273.71L807.501 196.292ZM863.05 347.004L836.485 226.396L758.357 243.605L784.923 364.213L863.05 347.004ZM634.308 344.071C684.504 344.071 741.538 358.939 806.024 391.349L841.949 319.869C769.711 283.562 700.292 264.071 634.308 264.071V344.071ZM608.425 343.92C608.425 342.891 608.597 343.938 607.575 345.793C606.517 347.712 605.325 348.425 605.597 348.26C606.133 347.936 608.354 346.788 613.389 345.773C618.371 344.769 625.223 344.071 634.308 344.071V264.071C609.619 264.071 584.424 267.572 564.194 279.807C540.73 293.999 528.425 317.237 528.425 343.92H608.425ZM610.305 356.796C608.703 348.79 608.425 344.925 608.425 343.92H528.425C528.425 352.832 529.917 362.782 531.858 372.486L610.305 356.796ZM621.685 324.641H571.081V404.641H621.685V324.641ZM628.774 422.032L653.746 388.56L589.624 340.723L564.652 374.195L628.774 422.032ZM586.49 438.114H596.713V358.114H586.49V438.114ZM626.49 695.118V398.114H546.49V695.118H626.49ZM510.512 735.118H586.49V655.118H510.512V735.118ZM470.512 398.114V695.118H550.512V398.114H470.512ZM496.013 438.114H510.512V358.114H496.013V438.114ZM486.603 438.114H496.013V358.114H486.603V438.114ZM472.104 438.114H486.603V358.114H472.104V438.114ZM512.104 695.118V398.114H432.104V695.118H512.104ZM1590.21 381.325C1655.69 393.241 1738.11 441.583 1750.59 536.309L1829.91 525.859C1811.04 382.69 1687.91 317.79 1604.53 302.618L1590.21 381.325ZM1551.98 374.995C1549.17 375.396 1547.93 375.145 1550.18 375.284C1551.8 375.384 1554.38 375.63 1558.16 376.116C1565.67 377.084 1576.27 378.789 1590.21 381.325L1604.53 302.618C1590.01 299.976 1577.88 297.995 1568.38 296.772C1560.88 295.806 1549.76 294.502 1540.67 295.798L1551.98 374.995ZM1525.49 497.567L1583.55 350.044L1509.1 320.749L1451.05 468.271L1525.49 497.567ZM1610.78 421.133C1566.69 413.109 1519.41 423.848 1471.11 446.787L1505.43 519.05C1545.27 500.13 1574.88 495.914 1596.46 499.84L1610.78 421.133ZM1655.68 437.645C1641.52 429.666 1626.53 423.998 1610.78 421.133L1596.46 499.84C1602.61 500.958 1609.23 503.294 1616.4 507.338L1655.68 437.645ZM1693.47 467.563C1682.56 455.618 1669.89 445.654 1655.68 437.645L1616.4 507.338C1623.53 511.353 1629.44 516.079 1634.37 521.49L1693.47 467.563ZM1719.36 513.069C1713.96 496.571 1705.56 481.597 1694.25 468.445L1633.59 520.608C1637.96 525.688 1641.18 531.374 1643.34 537.963L1719.36 513.069ZM1722.55 571.008C1726.05 551.759 1725.35 532.43 1719.57 513.713L1643.13 537.318C1644.75 542.564 1645.28 548.789 1643.84 556.686L1722.55 571.008ZM1709.55 604.096C1715.87 594.031 1720.37 582.956 1722.55 571.008L1643.84 556.685C1643.63 557.872 1643.12 559.453 1641.79 561.567L1709.55 604.096ZM1684.44 631.681C1694.71 623.946 1703.35 614.478 1710 603.355L1641.34 562.308C1640.18 564.24 1638.63 566.034 1636.32 567.771L1684.44 631.681ZM1652.88 649.161C1665.62 645.08 1677.02 638.427 1686.9 629.67L1633.86 569.781C1631.89 571.532 1630.15 572.439 1628.48 572.973L1652.88 649.161ZM1610.77 652.388C1625.57 655.08 1640.51 653.876 1654.79 648.497L1626.57 573.637C1626.28 573.748 1626.14 573.761 1626.08 573.766C1626.01 573.772 1625.72 573.794 1625.09 573.68L1610.77 652.388ZM1567.39 632.096C1580.04 643.008 1594.95 649.509 1610.77 652.388L1625.09 573.68C1621.65 573.053 1620.28 572.069 1619.64 571.516L1567.39 632.096ZM1547.36 572.374C1543.55 593.312 1548.88 615.261 1566.58 631.383L1620.44 572.229C1622.2 573.832 1624.27 576.593 1625.41 580.313C1626.49 583.83 1626.14 586.283 1626.06 586.696L1547.36 572.374ZM1579.45 520.484C1562.8 533.348 1551.26 550.929 1547.36 572.374L1626.06 586.696C1626.18 586.068 1626.31 585.86 1626.38 585.74C1626.48 585.578 1626.95 584.88 1628.37 583.782L1579.45 520.484ZM1630.17 497.633C1611.65 501.625 1594.37 508.953 1579.45 520.484L1628.37 583.782C1632.4 580.668 1638.24 577.73 1647.03 575.836L1630.17 497.633ZM1546.62 525.79L1617.18 570.519L1660.01 502.95L1589.45 458.221L1546.62 525.79ZM1588.25 527.43C1590.1 525.783 1591.42 524.61 1592.29 523.853C1592.5 523.67 1592.67 523.528 1592.79 523.42C1592.85 523.367 1592.9 523.327 1592.94 523.297C1592.95 523.283 1592.97 523.272 1592.98 523.264C1592.98 523.256 1592.99 523.252 1592.99 523.252C1592.99 523.252 1592.98 523.257 1592.97 523.266C1592.96 523.275 1592.94 523.29 1592.92 523.31C1592.87 523.347 1592.79 523.418 1592.67 523.514C1592.55 523.606 1592.35 523.763 1592.09 523.961C1591.85 524.14 1591.4 524.481 1590.8 524.896L1545.27 459.114C1542.74 460.864 1540.09 463.231 1539.78 463.501C1538.5 464.614 1536.86 466.068 1534.92 467.803L1588.25 527.43ZM1580.62 536.904C1584.71 531.454 1587.73 528.018 1589.72 526.051L1533.45 469.182C1527.72 474.856 1522.1 481.609 1516.63 488.895L1580.62 536.904ZM1571.54 553.341C1575.24 545.851 1578.68 539.884 1581.81 535.234L1515.44 490.565C1509.9 498.809 1504.7 508.006 1499.8 517.948L1571.54 553.341ZM1565.35 573.612C1566.87 565.247 1569.1 558.443 1571.75 552.908L1499.59 518.381C1493.47 531.154 1489.26 544.888 1486.64 559.29L1565.35 573.612ZM1566.14 602.863C1563.82 594.49 1563.29 584.934 1565.35 573.612L1486.64 559.29C1482.64 581.243 1483.18 603.091 1489.05 624.253L1566.14 602.863ZM1579.21 630.346C1573.36 622.599 1569.01 613.725 1566.27 603.339L1488.92 623.777C1494.22 643.803 1503.01 662.195 1515.38 678.572L1579.21 630.346ZM1601.07 649.923C1592.41 644.745 1585.2 638.274 1579.21 630.346L1515.38 678.572C1527.62 694.768 1542.58 708.161 1560.02 718.59L1601.07 649.923ZM1630.15 661.447C1619.84 659.57 1610.55 655.928 1601.99 650.492L1559.1 718.021C1576.49 729.067 1595.5 736.455 1615.83 740.154L1630.15 661.447ZM1664.62 658.542C1652.33 662.681 1641.05 663.43 1630.15 661.447L1615.83 740.154C1640.84 744.704 1665.82 742.553 1690.15 734.358L1664.62 658.542ZM1702.89 638.293C1691.3 647.469 1678.85 654.059 1665.39 658.29L1689.38 734.61C1712.38 727.383 1733.49 716.106 1752.55 701.007L1702.89 638.293ZM1733.1 604.488C1724.64 617.846 1714.58 629.033 1702.89 638.293L1752.55 701.007C1771.51 685.991 1787.57 668.006 1800.68 647.295L1733.1 604.488ZM1749.52 565.059C1747.12 578.227 1741.97 591.082 1733.54 603.808L1800.24 647.976C1814.27 626.792 1823.77 603.866 1828.22 579.382L1749.52 565.059ZM1750.59 536.309C1751.7 544.697 1751.49 554.207 1749.52 565.06L1828.22 579.381C1831.51 561.338 1832.22 543.423 1829.91 525.859L1750.59 536.309ZM797.869 765.736H872.785V685.736H797.869V765.736ZM757.869 714.488V725.736H837.869V714.488H757.869ZM746.565 694.905C750.241 698.581 755.294 706.478 758.733 722.758L837.005 706.219C831.569 680.492 821.275 656.478 803.134 638.336L746.565 694.905ZM742.661 692.302C744.777 693.33 745.928 694.268 746.565 694.905L803.134 638.336C795.597 630.8 786.94 624.872 777.614 620.342L742.661 692.302ZM737.126 690.567C738.791 690.792 740.597 691.3 742.661 692.302L777.613 620.342C768.234 615.786 758.271 612.698 747.839 611.288L737.126 690.567ZM735.491 690.985C736.542 690.673 737.377 690.611 738.295 690.708L746.67 611.147C735.164 609.936 723.739 611.019 712.693 614.303L735.491 690.985ZM735.458 691.472C736.006 690.924 736.317 690.725 736.359 690.699C736.386 690.682 736.371 690.693 736.319 690.717C736.266 690.742 736.203 690.767 736.137 690.787L712.047 614.501C699.113 618.585 688.036 625.757 678.889 634.904L735.458 691.472ZM738.054 687.772C737.676 688.653 736.873 690.057 735.457 691.472L678.889 634.903C672.569 641.223 667.843 648.511 664.523 656.258L738.054 687.772ZM738.559 685.138C738.543 685.535 738.484 686.073 738.335 686.709C738.186 687.347 737.97 687.978 737.703 688.567L664.873 655.463C661.023 663.934 658.986 672.873 658.623 681.941L738.559 685.138ZM737.839 683.663C738.387 685.465 738.445 687.146 738.306 688.306L658.876 678.774C657.756 688.106 658.468 697.635 661.305 706.956L737.839 683.663ZM733.741 677.324C734.652 678.235 735.635 679.453 736.508 680.981C737.385 682.516 738 684.1 738.378 685.608L660.766 705.011C663.558 716.179 669.26 725.98 677.172 733.892L733.741 677.324ZM727.51 673.999C729.008 674.387 730.374 674.976 731.531 675.66C732.665 676.331 733.387 676.97 733.741 677.324L677.172 733.892C685.215 741.935 695.343 748.304 707.433 751.439L727.51 673.999ZM700.712 680.757C702.597 678.872 706.098 676.114 711.379 674.429C716.86 672.679 722.181 672.754 726.466 673.743L708.477 751.695C727.879 756.172 745.407 749.199 757.281 737.325L700.712 680.757ZM695.672 691.491C695.729 690.41 696.005 688.563 696.951 686.357C697.915 684.106 699.273 682.195 700.712 680.757L757.281 737.325C768.914 725.692 774.758 710.956 775.561 695.695L695.672 691.491ZM694.989 689.543C695.436 690.62 695.593 691.279 695.645 691.553C695.693 691.809 695.658 691.763 695.672 691.491L775.561 695.696C776.25 682.612 773.574 670.202 768.888 658.901L694.989 689.543ZM787.5 654.305L747.532 637.386L716.346 711.057L756.314 727.977L787.5 654.305ZM811.108 700.516C811.279 699.143 811.428 697.912 811.54 696.907C811.594 696.419 811.657 695.826 811.712 695.223C811.715 695.188 811.907 693.301 811.907 691.141H731.907C731.907 690.745 731.913 690.408 731.92 690.149C731.926 689.887 731.935 689.66 731.943 689.478C731.958 689.123 731.976 688.838 731.988 688.656C732.001 688.466 732.012 688.313 732.021 688.212C732.029 688.108 732.036 688.029 732.041 687.979C732.049 687.884 732.054 687.843 732.05 687.875C732.048 687.902 732.041 687.966 732.029 688.072C732.005 688.289 731.968 688.606 731.916 689.042C731.864 689.473 731.801 689.988 731.725 690.594L811.108 700.516ZM806.667 718.257C808.337 713.245 809.859 707.881 810.808 702.506L732.025 688.603C732.026 688.598 732.009 688.695 731.962 688.904C731.915 689.111 731.844 689.403 731.741 689.787C731.532 690.566 731.22 691.614 730.772 692.959L806.667 718.257ZM797.801 737.294C800.916 731.686 803.708 725.961 805.969 720.184L731.469 691.032C730.788 692.774 729.656 695.223 727.868 698.443L797.801 737.294ZM780.82 759.394C787.24 752.974 792.958 745.774 797.564 737.714L728.105 698.023C727.48 699.117 726.333 700.744 724.252 702.825L780.82 759.394ZM745.08 782.13C758.867 777.335 770.788 769.426 780.82 759.393L724.251 702.825C721.86 705.217 720.05 706.135 718.798 706.57L745.08 782.13ZM706.979 787.994C720.23 788.546 733.173 786.44 745.544 781.965L718.333 706.735C715.339 707.818 712.752 708.165 710.309 708.063L706.979 787.994ZM669.533 779.048C681.385 784.435 693.956 787.451 706.979 787.994L710.31 708.063C707.64 707.952 705.172 707.371 702.638 706.219L669.533 779.048ZM638.185 757.677C647.506 766.998 658.352 774.343 670.527 779.484L701.644 705.784C699.107 704.713 696.875 703.23 694.754 701.109L638.185 757.677ZM613.811 715.947C618.35 731.699 626.414 745.906 638.185 757.677L694.753 701.108C693.12 699.475 691.703 697.336 690.684 693.798L613.811 715.947ZM608.898 672.873C607.937 687.768 609.621 702.473 614.045 716.728L690.45 693.017C688.989 688.309 688.385 683.398 688.732 678.023L608.898 672.873ZM619.095 630.173C613.311 643.825 609.85 658.111 608.898 672.873L688.732 678.023C689.087 672.515 690.367 667.021 692.756 661.384L619.095 630.173ZM644.07 592.238C632.974 603.334 624.594 616.405 618.786 630.923L693.065 660.634C695.104 655.535 697.676 651.769 700.638 648.807L644.07 592.238ZM671.246 572.189C661.081 577.409 652.048 584.26 644.07 592.238L700.639 648.806C703.449 645.996 705.859 644.346 707.791 643.354L671.246 572.189ZM817.501 577.199C780.115 556.14 726.232 543.953 671.246 572.189L707.791 643.354C732.299 630.769 757.014 634.946 778.238 646.901L817.501 577.199ZM757.869 590.251V612.05H837.869V590.251H757.869ZM757.869 440.952V590.251H837.869V440.952H757.869ZM756.958 462.887C761.999 462.887 764.908 464.17 768.311 467.902L827.428 414.002C808.87 393.648 784.504 382.887 756.958 382.887V462.887ZM742.844 467.377C748.806 463.837 753.341 462.887 756.958 462.887V382.887C737.198 382.887 718.709 388.668 702.001 398.588L742.844 467.377ZM793.821 443.806C780.551 423.104 761.99 407.567 739.681 396.897L705.165 469.068C715.442 473.983 722.031 480.053 726.471 486.979L793.821 443.806ZM813.429 506.304C813.429 483.445 805.982 462.286 793.563 443.408L726.729 487.377C732.02 495.419 733.429 501.534 733.429 506.304H813.429ZM807.53 551.671C811.738 537.471 813.429 522.125 813.429 506.304H733.429C733.429 516.694 732.286 524.017 730.826 528.944L807.53 551.671ZM794.038 581.766C799.083 575.46 801.848 568.133 802.762 565.772C804.31 561.772 805.865 557.09 807.41 552.071L730.947 528.544C730.32 530.582 729.767 532.303 729.285 533.731C728.797 535.176 728.422 536.207 728.156 536.893C727.866 537.643 727.829 537.664 728.047 537.216C728.165 536.974 728.453 536.398 728.919 535.61C729.159 535.204 729.483 534.676 729.896 534.064C730.304 533.458 730.859 532.677 731.568 531.791L794.038 581.766ZM679.33 598.891L763.809 596.766L761.797 516.791L677.318 518.916L679.33 598.891ZM669.14 507.898C669.14 513.296 667.999 515.908 667.199 517.232C666.384 518.581 664.502 520.936 659.469 523.626L697.179 594.181C712.69 585.891 726.215 574.255 735.672 558.602C745.145 542.923 749.14 525.523 749.14 507.898H669.14ZM671.789 512.943C673.338 513.377 673.746 513.685 673.45 513.505C673.085 513.284 672.156 512.625 671.167 511.379C670.161 510.111 669.567 508.834 669.279 507.906C669.018 507.063 669.14 506.943 669.14 507.898H749.14C749.14 492.223 745.016 475.74 733.83 461.646C722.82 447.773 707.968 439.997 693.359 435.906L671.789 512.943ZM705.191 525.427C707.937 512.794 711.932 503.012 716.606 495.445L648.542 453.405C638.34 469.924 631.354 488.479 627.016 508.433L705.191 525.427ZM627.674 531.122L632.456 538.56L699.751 495.3L694.969 487.861L627.674 531.122ZM604.987 490.329C612.124 502.564 619.103 515.16 625.925 528.121L696.718 490.862C689.372 476.903 681.829 463.288 674.089 450.019L604.987 490.329ZM582.435 450.601L604.75 489.919L674.325 450.43L652.01 411.113L582.435 450.601ZM736.768 324.443C673.01 324.443 621.391 354.228 584.269 408.185L650.177 453.529C673.979 418.934 702.057 404.443 736.768 404.443V324.443ZM743.675 324.443H736.768V404.443H743.675V324.443ZM818.833 347.379C798.677 334.975 774.63 328.052 748.714 324.762L738.636 404.124C757.351 406.501 769.433 410.913 776.905 415.511L818.833 347.379ZM757.869 364.443V381.445H837.869V364.443H757.869ZM905.954 324.443H797.869V404.443H905.954V324.443ZM911.494 422.473L937.528 389.001L874.38 339.885L848.346 373.358L911.494 422.473ZM872.785 437.916H879.92V357.916H872.785V437.916ZM912.785 725.736V397.916H832.785V725.736H912.785ZM1060.9 756.704H1137.94V676.704H1060.9V756.704ZM1020.9 691.201V716.704H1100.9V691.201H1020.9ZM1026.37 725.888C1033.48 725.888 1041.08 726.991 1049.3 729.482L1072.5 652.92C1057.34 648.326 1041.92 645.888 1026.37 645.888V725.888ZM1011.5 728.535C1015.94 726.827 1020.8 725.888 1026.37 725.888V645.888C1011.39 645.888 996.765 648.49 982.786 653.867L1011.5 728.535ZM998.224 736.25C1002.09 733.161 1006.61 730.497 1012 728.34L982.29 654.062C969.973 658.988 958.555 665.534 948.248 673.78L998.224 736.25ZM987.941 747.612C990.802 743.525 994.464 739.469 999.142 735.492L947.33 674.537C937.84 682.604 929.459 691.654 922.402 701.735L987.941 747.612ZM985.432 754.473C985.803 752.528 986.759 749.642 989.182 745.728L921.161 703.62C914.374 714.582 909.309 726.572 906.845 739.504L985.432 754.473ZM899.007 753.019L915.478 772.677L976.8 721.3L960.329 701.641L899.007 753.019ZM877.156 726.903C884.275 735.446 891.57 744.164 899.04 753.058L960.297 701.602C952.89 692.785 945.663 684.147 938.613 675.688L877.156 726.903ZM856.561 703.295C863.592 710.995 870.456 718.864 877.156 726.903L938.613 675.688C931.144 666.725 923.486 657.947 915.64 649.353L856.561 703.295ZM881.301 625.014C870.977 632.992 861.798 642.06 854.101 652.324L918.101 700.324C921.029 696.42 924.957 692.382 930.217 688.317L881.301 625.014ZM915.031 604.408C902.959 609.98 891.64 616.922 881.107 625.165L930.412 688.166C936.172 683.657 942.21 679.973 948.556 677.044L915.031 604.408ZM950.783 591.294C938.014 594.486 925.706 599.048 913.905 604.949L949.682 676.503C956.3 673.194 963.12 670.672 970.186 668.905L950.783 591.294ZM989.175 585.849C975.834 585.849 962.565 587.905 949.496 591.639L971.473 668.561C978.24 666.627 984.098 665.849 989.175 665.849V585.849ZM1036.87 591.105C1021.39 587.566 1005.46 585.849 989.175 585.849V665.849C999.81 665.849 1009.74 666.966 1019.05 669.094L1036.87 591.105ZM1077.67 604.408C1065.25 598.677 1051.42 594.338 1036.64 591.052L1019.28 669.147C1030 671.529 1038.14 674.274 1044.14 677.044L1077.67 604.408ZM1020.9 632.756V640.726H1100.9V632.756H1020.9ZM1015.23 651.441C1024.27 655.677 1030.87 659.864 1035.57 663.715L1086.23 601.798C1075.35 592.897 1062.82 585.395 1049.19 579.005L1015.23 651.441ZM984.172 638.184C994.836 641.84 1004.72 646.047 1013.87 650.768L1050.56 579.678C1037.74 573.064 1024.25 567.353 1010.12 562.508L984.172 638.184ZM952.95 629.429C963.146 631.529 973.437 634.397 983.832 638.066L1010.46 562.627C996.767 557.794 982.972 553.933 969.082 551.073L952.95 629.429ZM930.2 626.532C935.491 626.532 942.877 627.293 952.716 629.381L969.316 551.122C955.777 548.25 942.619 546.532 930.2 546.532V626.532ZM923.516 626.994L932.548 626.463L927.851 546.601L918.819 547.132L923.516 626.994ZM887.472 616.559C896.372 622.223 906.612 625.989 917.846 626.925L924.489 547.201C925.749 547.306 926.965 547.572 928.065 547.955C929.152 548.333 929.941 548.76 930.422 549.066L887.472 616.559ZM863.103 571.124C863.103 588.437 870.821 604.545 885.42 615.162L932.474 550.463C935.15 552.41 938.155 555.506 940.341 559.877C942.506 564.207 943.103 568.258 943.103 571.124H863.103ZM880.132 531.151C870.53 540.753 863.103 554.387 863.103 571.124H943.103C943.103 574.749 942.306 578.353 940.846 581.566C939.439 584.659 937.753 586.666 936.7 587.719L880.132 531.151ZM933.767 477.004L879.998 531.285L936.834 587.585L990.603 533.304L933.767 477.004ZM862.027 420.742C865.245 483.862 907.331 522.588 944.405 540.985L979.965 469.323C959.176 459.007 943.192 441.564 941.923 416.668L862.027 420.742ZM865.521 389.359C862.804 399.499 861.48 410.022 862.027 420.742L941.923 416.668C941.85 415.24 941.982 413.101 942.795 410.065L865.521 389.359ZM885.02 350.908C875.999 362.321 869.319 375.185 865.521 389.359L942.795 410.065C943.597 407.071 945.079 403.935 947.782 400.516L885.02 350.908ZM914.186 323.619C902.728 331.209 892.822 340.599 884.521 351.553L948.281 399.871C951.301 395.886 954.645 392.778 958.365 390.314L914.186 323.619ZM951.974 307.47C938.411 310.506 925.755 315.956 914.185 323.62L958.366 390.314C961.975 387.923 965.609 386.398 969.449 385.538L951.974 307.47ZM996.547 307.955C981.434 303.906 966.088 304 951.182 307.656L970.24 385.352C972.844 384.714 974.487 384.867 975.842 385.229L996.547 307.955ZM1029.4 323.944C1019.51 316.494 1008.46 311.148 996.547 307.955L975.842 385.229C977.984 385.804 979.695 386.659 981.267 387.843L1029.4 323.944ZM1053.41 349.45C1046.83 339.149 1038.46 330.377 1028.53 323.306L982.138 388.481C983.774 389.645 984.979 390.927 985.983 392.5L1053.41 349.45ZM1066.7 383.558C1064.5 371.436 1060.11 359.943 1053.41 349.45L985.983 392.5C986.864 393.88 987.561 395.519 987.972 397.788L1066.7 383.558ZM1064.95 422.898C1068.39 410.06 1069.23 396.61 1066.6 383.071L988.063 398.275C988.15 398.728 988.304 399.86 987.679 402.193L1064.95 422.898ZM1055.18 446.641C1059.6 439.091 1062.76 431.07 1064.95 422.899L987.679 402.193C987.087 404.402 986.48 405.64 986.136 406.228L1055.18 446.641ZM1044.97 461.505C1048.59 456.991 1051.89 452.105 1054.93 447.058L986.384 405.812C984.764 408.503 983.479 410.304 982.579 411.425L1044.97 461.505ZM1032.8 473.75C1036.77 470.438 1040.41 466.7 1043.64 463.076L983.908 409.854C983.111 410.749 982.495 411.394 982.054 411.833C981.603 412.282 981.435 412.415 981.538 412.33L1032.8 473.75ZM1023.85 480.09C1025.72 479.02 1027.25 477.923 1027.26 477.916C1027.73 477.581 1028.19 477.249 1028.56 476.982C1029.31 476.43 1030.22 475.752 1031.22 475.002L983.118 411.077C982.685 411.403 982.318 411.677 982.014 411.904C981.705 412.135 981.485 412.296 981.34 412.402C981.27 412.454 981.232 412.481 981.223 412.488C981.209 412.497 981.254 412.465 981.342 412.404C981.413 412.354 981.626 412.205 981.928 412.004C982.084 411.9 982.325 411.741 982.628 411.55C982.783 411.452 982.978 411.33 983.203 411.193C983.425 411.058 983.716 410.885 984.06 410.687L1023.85 480.09ZM948.745 453.923L979.917 477.36L1027.99 413.417L996.82 389.98L948.745 453.923ZM967.815 382.556C968.056 382.4 968.269 382.285 968.436 382.204C968.603 382.124 968.707 382.086 968.731 382.078C968.779 382.061 968.462 382.177 967.659 382.281L977.905 461.622C989.283 460.153 1000.73 456.526 1011.2 449.769L967.815 382.556ZM959.904 393.788C960.518 391.496 961.638 389.075 963.301 386.861C964.933 384.69 966.634 383.318 967.815 382.556L1011.2 449.769C1023.5 441.828 1033.06 429.864 1037.18 414.493L959.904 393.788ZM967.025 420.922C963.88 417.566 961.03 412.819 959.74 406.969C958.493 401.318 959.139 396.645 959.904 393.788L1037.18 414.493C1041.42 398.668 1038.69 380.396 1025.39 366.211L967.025 420.922ZM974.91 426.061C973.296 425.628 970.446 424.401 967.769 421.694L1024.65 365.438C1016.21 356.909 1006.07 351.587 995.615 348.787L974.91 426.061ZM985.499 425.941C981.833 426.98 978.039 426.899 974.91 426.061L995.615 348.787C985.256 346.011 974.354 345.951 963.7 348.969L985.499 425.941ZM988.894 424.025C987.608 424.983 985.757 425.934 983.55 426.441L965.649 348.469C956.561 350.556 948.312 354.5 941.11 359.863L988.894 424.025ZM989.749 422.499C988.673 423.998 987.388 425.12 986.27 425.822L943.734 358.067C936.405 362.668 929.954 368.61 924.757 375.852L989.749 422.499ZM991.675 418.027C991.053 420.349 990.057 422.105 989.232 423.203L925.274 375.148C920.434 381.588 916.628 389.011 914.401 397.322L991.675 418.027ZM991.496 416.757C991.609 417.265 991.64 417.73 991.629 418.065C991.619 418.384 991.577 418.392 991.675 418.027L914.401 397.321C911.24 409.12 910.608 421.632 913.427 434.229L991.496 416.757ZM991.702 416.904C991.532 416.672 991.44 416.502 991.342 416.096L913.58 434.889C916.136 445.465 920.679 455.31 927.125 464.125L991.702 416.904ZM993.927 418.628C992.542 417.694 991.645 416.803 990.994 415.965L927.833 465.064C933.905 472.875 941.11 479.503 949.205 484.961L993.927 418.628ZM996.56 419.969C996.223 419.879 995.36 419.594 993.927 418.628L949.205 484.961C957.253 490.386 966.151 494.643 975.855 497.243L996.56 419.969ZM1004.1 420.599C1000.6 420.76 998.186 420.405 996.56 419.969L975.855 497.243C986.374 500.062 997.114 501.006 1007.79 500.513L1004.1 420.599ZM989.84 419.851L977.387 432.548L1034.5 488.564L1046.96 475.868L989.84 419.851ZM1032.83 376.864C1008.83 400.507 993.685 415.623 988.912 420.83L1047.88 474.888C1050.9 471.594 1064.09 458.373 1088.98 433.844L1032.83 376.864ZM1020.9 364.443V405.354H1100.9V364.443H1020.9ZM1177.84 324.443H1060.9V404.443H1177.84V324.443ZM1174.92 425.502L1206.8 392.029L1148.87 336.857L1116.99 370.33L1174.92 425.502ZM1137.94 437.916H1145.96V357.916H1137.94V437.916ZM1177.94 716.704V397.916H1097.94V716.704H1177.94ZM1100.9 553.591V493.021H1020.9V553.591H1100.9ZM1007.77 582.964C1017.88 582.964 1030.89 585.238 1047.23 591.182L1074.57 515.999C1051.96 507.775 1029.54 502.964 1007.77 502.964V582.964ZM1002.99 582.964H1007.77V502.964H1002.99V582.964ZM991.028 500.354C985.121 504.995 979.618 509.767 974.705 514.68L1031.27 571.249C1033.45 569.077 1036.44 566.411 1040.45 563.259L991.028 500.354ZM1005.75 487.999C1000.15 492.937 995.254 497.034 991.028 500.354L1040.45 563.259C1046.15 558.787 1052.23 553.674 1058.68 547.986L1005.75 487.999ZM1034.64 462.849L1005.95 487.82L1058.47 548.165L1087.16 523.193L1034.64 462.849ZM1445.03 718.695L1267.96 612.191L1226.73 680.746L1403.8 787.249L1445.03 718.695ZM1453.55 695.86C1438.73 702.86 1423.7 709.669 1408.47 716.286L1440.35 789.658C1456.34 782.713 1472.12 775.561 1487.71 768.201L1453.55 695.86ZM1499.01 674.092C1484.18 681.484 1469.15 688.684 1453.91 695.692L1487.35 768.369C1503.33 761.017 1519.11 753.458 1534.69 745.692L1499.01 674.092ZM1338.32 641.067L1494.98 743.382L1538.72 676.402L1382.06 574.086L1338.32 641.067ZM1383.03 536.154C1371.41 548.728 1356.37 561.61 1337.47 574.655L1382.91 640.498C1405.62 624.823 1425.39 608.187 1441.79 590.445L1383.03 536.154ZM1412.52 497.518C1405.26 509.368 1395.43 522.378 1382.68 536.537L1442.14 590.063C1457.4 573.108 1470.38 556.202 1480.72 539.331L1412.52 497.518ZM1426.93 467.407C1424.59 475.165 1420.1 485.146 1412.52 497.519L1480.72 539.331C1490.75 522.983 1498.66 506.637 1503.53 490.462L1426.93 467.407ZM1431.23 450.214C1431.23 450.179 1431.23 450.521 1431.14 451.305C1431.05 452.081 1430.88 453.167 1430.58 454.597C1429.97 457.498 1428.93 461.343 1427.29 466.249L1503.16 491.62C1507.66 478.166 1511.23 463.789 1511.23 450.214H1431.23ZM1431.25 450.161C1431.25 450.156 1431.25 450.141 1431.24 450.118C1431.23 450.095 1431.23 450.074 1431.23 450.059C1431.22 450.044 1431.22 450.044 1431.23 450.064C1431.23 450.085 1431.23 450.134 1431.23 450.214H1511.23C1511.23 440.87 1509.65 431.635 1506.41 422.745L1431.25 450.161ZM1436.84 456.692C1432.25 452.77 1430.66 448.524 1430.25 447.008L1507.41 425.897C1504.6 415.606 1499 404.579 1488.81 395.87L1436.84 456.692ZM1417.69 443.258C1423.86 446.951 1430.54 451.622 1437.71 457.41L1487.95 395.152C1478.31 387.377 1468.58 380.481 1458.75 374.601L1417.69 443.258ZM1394.57 429.771C1402.8 433.876 1409.8 437.964 1415.68 441.975L1460.76 375.884C1451.43 369.523 1441.22 363.639 1430.25 358.171L1394.57 429.771ZM1364.57 415.918C1376.23 420.791 1385.98 425.311 1393.95 429.458L1430.87 358.484C1420.43 353.058 1408.57 347.605 1395.42 342.107L1364.57 415.918ZM1321.81 398.157C1338.42 404.859 1352.51 410.714 1364.13 415.733L1395.86 342.292C1383.47 336.94 1368.75 330.828 1351.75 323.968L1321.81 398.157ZM1219.97 328.595C1255.8 362.24 1290.51 387.311 1323.63 398.839L1349.93 323.286C1332.63 317.263 1307.72 301.249 1274.72 270.273L1219.97 328.595ZM1288.54 427.103L1287.34 299.059L1207.35 299.809L1208.55 427.853L1288.54 427.103ZM1319.68 434.117C1295.64 421.212 1285.62 411.277 1282.38 406.142L1214.71 448.813C1229.08 471.601 1253.87 489.588 1281.85 504.605L1319.68 434.117ZM1336.72 439.047C1330.75 437.48 1323.47 435.144 1314.77 431.893L1286.76 506.829C1297.27 510.758 1307.19 514.007 1316.43 516.429L1336.72 439.047ZM1355.34 442.809C1349.5 441.562 1342.51 440.128 1334.4 438.51L1318.75 516.966C1326.65 518.539 1333.26 519.897 1338.63 521.044L1355.34 442.809ZM1378.63 450.315C1370.79 446.407 1362.19 444.172 1354.8 442.698L1339.16 521.154C1341.21 521.563 1342.55 521.914 1343.32 522.148C1344.16 522.402 1343.9 522.388 1342.94 521.914L1378.63 450.315ZM1405.59 493.295C1405.59 485.543 1403.82 475.808 1397.64 466.57C1391.36 457.177 1382.74 451.617 1374.79 448.647L1346.78 523.582C1342.04 521.809 1335.82 518.043 1331.14 511.044C1326.56 504.2 1325.59 497.456 1325.59 493.295H1405.59ZM1387.06 536.714C1395.95 527.167 1405.59 512.483 1405.59 493.295H1325.59C1325.59 484.478 1330.03 480.564 1328.52 482.185L1387.06 536.714ZM1358.57 559.053C1369.11 552.971 1378.77 545.604 1387.06 536.714L1328.52 482.185C1326.4 484.464 1323.25 487.07 1318.59 489.763L1358.57 559.053ZM1327.6 573.382C1338.46 569.445 1348.81 564.687 1358.57 559.052L1318.59 489.764C1313.14 492.905 1307.08 495.726 1300.34 498.171L1327.6 573.382ZM1290.56 579.965C1302.9 579.965 1315.01 577.581 1326.58 573.736L1301.36 497.817C1296.12 499.556 1292.62 499.965 1290.56 499.965V579.965ZM1254.29 576.869C1265.69 579.035 1277.87 579.965 1290.56 579.965V499.965C1281.64 499.965 1274.61 499.299 1269.21 498.274L1254.29 576.869ZM1224.1 567.388C1233.54 572.091 1244.15 574.944 1254.29 576.869L1269.21 498.273C1266.08 497.679 1263.74 497.094 1262.06 496.588C1260.34 496.069 1259.69 495.742 1259.79 495.788L1224.1 567.388ZM1287.3 644.59L1281.9 529.709L1201.99 533.467L1207.39 648.347L1287.3 644.59Z" fill="#FF1744" mask="url(#path-6-outside-1_806_215)"/>
</svg>
