<svg width="549" height="185" viewBox="0 0 549 185" fill="none" xmlns="http://www.w3.org/2000/svg">
<path d="M346.664 91.3999V121.992C346.664 123.272 346.408 124.552 345.896 125.832C345.384 127.112 344.659 128.307 343.72 129.416C342.781 130.44 341.629 131.293 340.264 131.976C338.899 132.659 337.32 133 335.528 133C333.309 133 331.133 132.317 329 130.952C326.952 129.587 325.544 127.496 324.776 124.68C323.923 122.632 322.643 120.712 320.936 118.92C319.229 117.128 317.267 115.592 315.048 114.312C312.915 112.947 310.653 111.88 308.264 111.112C305.875 110.344 303.571 109.96 301.352 109.96H300.968C299.347 109.96 297.64 110.259 295.848 110.856C294.141 111.368 292.477 112.093 290.856 113.032C289.32 113.971 287.912 115.08 286.632 116.36C285.437 117.555 284.584 118.835 284.072 120.2C282.621 121.907 281.427 123.059 280.488 123.656C279.549 124.168 278.739 124.424 278.056 124.424H276.648C274.003 124.424 271.869 123.656 270.248 122.12C268.627 120.584 267.816 117.683 267.816 113.416V113.288C267.816 111.24 268.2 109.192 268.968 107.144C269.821 105.096 270.973 103.261 272.424 101.64C273.875 100.019 275.667 98.7386 277.8 97.7999C279.933 96.7759 282.28 96.2639 284.84 96.2639C288.253 96.2639 291.837 96.7333 295.592 97.6719C299.432 98.6106 303.144 100.061 306.728 102.024C310.312 103.901 313.597 106.376 316.584 109.448C319.571 112.435 321.96 115.976 323.752 120.072C324.179 121.011 324.435 121.48 324.52 121.48V92.2959C324.52 91.2719 324.733 90.1626 325.16 88.9679C325.672 87.6879 326.184 86.3653 326.696 84.9999C327.293 83.5493 327.805 82.0986 328.232 80.6479C328.744 79.1119 329 77.5759 329 76.0399C329 75.0159 328.744 73.4799 328.232 71.4319C327.805 69.2986 326.952 67.2079 325.672 65.1599C324.392 63.1119 322.6 61.3199 320.296 59.7839C317.992 58.1626 315.005 57.3519 311.336 57.3519C309.032 57.3519 306.856 57.7786 304.808 58.6319C302.845 59.4853 301.864 60.6799 301.864 62.2159C301.949 62.7279 302.205 62.9839 302.632 62.9839C304.509 62.5573 306.045 62.3439 307.24 62.3439C309.117 62.3439 310.995 62.7706 312.872 63.6239C314.835 64.3919 316.541 65.4586 317.992 66.8239C319.528 68.1893 320.765 69.8106 321.704 71.6879C322.643 73.5653 323.112 75.5706 323.112 77.7039V78.9839C323.112 80.8613 322.685 82.7386 321.832 84.6159C320.979 86.4079 319.827 88.0293 318.376 89.4799C316.925 90.8453 315.219 91.9973 313.256 92.9359C311.379 93.7893 309.373 94.2159 307.24 94.2159C303.827 94.2159 301.011 93.4053 298.792 91.7839C296.573 90.1626 294.824 88.2853 293.544 86.1519C292.264 84.0186 291.368 81.9279 290.856 79.8799C290.344 77.8319 290.088 76.3386 290.088 75.3999C290.088 72.4986 290.771 69.7253 292.136 67.0799C293.587 64.3493 295.464 61.9599 297.768 59.9119C300.072 57.8639 302.632 56.2426 305.448 55.0479C308.349 53.7679 311.293 53.1279 314.28 53.1279H316.072L319.784 53.6399C321.917 53.8959 323.795 54.2799 325.416 54.7919C327.037 55.3039 328.573 55.9866 330.024 56.8399C331.56 57.6079 333.096 58.5893 334.632 59.7839C336.168 60.9786 337.875 62.4719 339.752 64.2639C342.312 67.4213 344.061 69.9813 345 71.9439C346.024 73.9066 346.536 76.0399 346.536 78.3439V90.3759C346.621 90.7173 346.664 91.0586 346.664 91.3999Z" fill="#FF1744"/>
<path d="M453.799 90.2479C453.799 92.5519 453.372 94.9413 452.519 97.4159C451.666 99.8053 450.428 102.024 448.807 104.072C447.186 106.035 445.223 107.699 442.919 109.064C440.7 110.344 438.14 110.984 435.239 110.984H434.471C432.252 110.984 430.076 110.515 427.943 109.576C425.895 108.637 424.06 107.4 422.439 105.864C420.818 104.243 419.495 102.365 418.471 100.232C417.532 98.0133 417.063 95.6666 417.063 93.1919C417.063 91.1439 417.447 89.0959 418.215 87.0479C419.068 84.9146 420.263 83.0373 421.799 81.4159C423.42 79.7093 425.34 78.3439 427.559 77.3199C429.778 76.2106 432.295 75.6559 435.111 75.6559C435.623 75.6559 436.263 75.7413 437.031 75.9119C437.799 75.9973 438.738 76.1253 439.847 76.2959C440.274 76.2959 440.53 75.9973 440.615 75.3999V75.1439C437.287 71.4746 433.319 69.6399 428.711 69.6399C426.834 69.6399 424.956 70.0239 423.079 70.7919C421.287 71.4746 419.623 72.4986 418.087 73.8639C416.636 75.2293 415.442 76.8933 414.503 78.8559C413.564 80.7333 413.095 82.8666 413.095 85.2559C413.095 85.5119 413.138 85.6399 413.223 85.6399C413.138 85.8959 413.095 86.2799 413.095 86.7919V120.84C413.095 122.205 412.796 123.613 412.199 125.064C411.687 126.515 410.876 127.837 409.767 129.032C408.743 130.141 407.506 131.08 406.055 131.848C404.604 132.616 402.983 133 401.191 133H400.551C399.015 133 397.735 132.829 396.711 132.488C395.772 132.147 394.876 131.635 394.023 130.952C393.17 130.184 392.188 129.203 391.079 128.008C390.055 126.813 388.69 125.363 386.983 123.656C376.999 113.928 369.404 106.675 364.199 101.896C359.079 97.1173 356.434 94.4719 356.263 93.9599C354.215 91.3146 353.191 88.5413 353.191 85.6399V85.1279C353.191 83.6773 353.575 82.0986 354.343 80.3919C356.22 76.2106 358.78 72.4559 362.023 69.1279C365.351 65.7146 369.106 62.8559 373.287 60.5519C377.554 58.1626 382.076 56.3279 386.855 55.0479C391.719 53.7679 396.668 53.1279 401.703 53.1279C406.14 53.1279 410.663 53.7253 415.271 54.9199C419.964 56.0293 424.444 57.6506 428.711 59.7839C433.063 61.9173 437.074 64.5626 440.743 67.7199C444.498 70.8773 447.655 74.4186 450.215 78.3439C452.604 82.0986 453.799 86.0666 453.799 90.2479ZM373.671 74.3759H372.647C371.367 74.3759 370.087 74.6319 368.807 75.1439C367.527 75.6559 366.375 76.3386 365.351 77.1919C364.327 77.9599 363.474 78.9413 362.791 80.1359C362.194 81.2453 361.895 82.4399 361.895 83.7199C361.895 85.1706 362.535 86.7919 363.815 88.5839C365.095 90.3759 366.631 92.1679 368.423 93.9599C370.215 95.6666 372.092 97.3306 374.055 98.9519C376.018 100.488 377.682 101.768 379.047 102.792C380.583 103.987 382.119 105.096 383.655 106.12C385.276 107.144 386.898 108.125 388.519 109.064V85.3839C388.519 84.3599 388.05 83.2079 387.111 81.9279C386.172 80.6479 384.978 79.4533 383.527 78.3439C382.162 77.2346 380.583 76.2959 378.791 75.5279C376.999 74.7599 375.292 74.3759 373.671 74.3759Z" fill="#FF1744"/>
<path d="M413.922 137.76C414.007 138.187 414.135 138.699 414.306 139.296C414.477 139.893 414.69 140.661 414.946 141.6C414.519 146.976 412.727 151.2 409.57 154.272C406.327 157.429 401.335 159.691 394.594 161.056C394.253 161.141 393.741 161.184 393.058 161.184H391.522C385.037 161.184 380.13 159.605 376.802 156.448C373.474 153.291 371.767 149.152 371.682 144.032C371.767 143.435 371.853 142.923 371.938 142.496C372.023 142.069 372.109 141.685 372.194 141.344L372.322 141.088C374.797 132.981 381.879 128.117 393.57 126.496C396.471 126.496 399.159 126.837 401.634 127.52L402.53 127.776C406.541 128.971 410.466 130.848 414.306 133.408C418.146 135.968 421.559 138.912 424.546 142.24C427.618 145.653 430.05 149.323 431.842 153.248C433.719 157.259 434.658 161.312 434.658 165.408C434.658 167.456 434.317 169.717 433.634 172.192L432.738 175.136C432.482 176.075 431.97 177.056 431.202 178.08C430.434 179.104 429.453 180.085 428.258 181.024C427.149 181.963 425.783 182.731 424.162 183.328C422.626 183.925 420.919 184.224 419.042 184.224C416.055 184.224 413.879 183.499 412.514 182.048C411.149 180.683 410.466 179.275 410.466 177.824V176.928C410.466 176.843 410.551 176.544 410.722 176.032L410.85 175.648C411.362 173.941 413.111 171.936 416.098 169.632C418.317 166.389 419.767 163.616 420.45 161.312C421.133 159.093 421.474 156.789 421.474 154.4C421.474 153.12 421.303 151.712 420.962 150.176C420.706 148.64 420.279 147.104 419.682 145.568C419.085 144.032 418.317 142.581 417.378 141.216C416.439 139.851 415.287 138.699 413.922 137.76ZM403.298 141.6L402.914 143.008C400.866 146.677 398.221 148.512 394.978 148.512C393.783 148.512 392.802 148.341 392.034 148L390.754 147.616L387.298 145.696H386.274C384.653 145.696 383.842 146.379 383.842 147.744C383.927 148.427 384.269 149.195 384.866 150.048C385.378 150.987 386.274 151.797 387.554 152.48L389.858 153.76C390.626 154.101 391.693 154.272 393.058 154.272C393.826 154.272 394.893 154.059 396.258 153.632C397.538 153.291 398.818 152.736 400.098 151.968C401.293 151.2 402.359 150.219 403.298 149.024C404.151 147.915 404.578 146.592 404.578 145.056C404.578 143.861 404.151 142.709 403.298 141.6Z" fill="#FF1744"/>
<path d="M548.913 119.432C548.913 121.821 548.529 123.869 547.761 125.576C546.993 127.283 546.012 128.691 544.817 129.8C543.622 130.909 542.3 131.72 540.849 132.232C539.398 132.744 537.99 133 536.625 133C535.174 133 533.681 132.701 532.145 132.104C530.694 131.507 529.372 130.696 528.177 129.672C526.982 128.563 526.001 127.24 525.233 125.704C524.55 124.168 524.209 122.461 524.209 120.584L524.081 103.304C524.081 101 524.849 98.6959 526.385 96.3919C528.177 92.7226 529.073 88.9253 529.073 84.9999C529.073 82.6959 528.646 80.3493 527.793 77.9599C526.94 75.4853 525.66 73.2666 523.953 71.3039C522.332 69.2559 520.326 67.5919 517.937 66.3119C515.548 64.9466 512.817 64.2639 509.745 64.2639H509.617C506.886 64.2639 504.412 64.7759 502.193 65.7999C500.06 66.7386 498.993 67.9759 498.993 69.5119C498.993 69.8533 499.164 70.1519 499.505 70.4079H499.761C502.15 69.8959 503.772 69.6399 504.625 69.6399C506.673 69.6399 508.764 70.0666 510.897 70.9199C513.03 71.6879 514.95 72.8399 516.657 74.3759C518.449 75.8266 519.857 77.6613 520.881 79.8799C521.99 82.0133 522.545 84.4453 522.545 87.1759V87.6879C522.545 89.7359 522.118 91.8266 521.265 93.9599C520.412 96.0079 519.217 97.8853 517.681 99.5919C516.145 101.213 514.268 102.536 512.049 103.56C509.916 104.584 507.526 105.096 504.881 105.096H504.753C499.121 105.096 494.385 102.707 490.545 97.9279L489.393 96.1359C485.894 99.4639 481.798 101.128 477.105 101.128H476.977C474.588 101.128 472.326 100.659 470.193 99.7199C468.06 98.7813 466.182 97.5013 464.561 95.8799C463.025 94.2586 461.788 92.3813 460.849 90.2479C459.91 88.1146 459.441 85.8533 459.441 83.4639C459.441 81.3306 459.868 79.2399 460.721 77.1919C461.574 75.0586 462.769 73.1813 464.305 71.5599C465.841 69.8533 467.633 68.4879 469.681 67.4639C471.814 66.3546 474.118 65.7999 476.593 65.7999H477.745C478.086 65.7999 478.598 65.8426 479.281 65.9279C480.049 65.9279 480.817 66.0133 481.585 66.1839C482.353 66.2693 483.078 66.4826 483.761 66.8239C484.529 67.0799 485.126 67.4213 485.553 67.8479C485.894 67.8479 486.15 67.4639 486.321 66.6959C486.321 65.5013 485.852 64.4773 484.913 63.6239C483.974 62.6853 482.822 61.9173 481.457 61.3199C480.092 60.7226 478.641 60.2959 477.105 60.0399C475.654 59.6986 474.374 59.5279 473.265 59.5279H472.881C469.809 59.5279 466.652 60.3813 463.409 62.0879C463.153 62.1733 462.812 62.2159 462.385 62.2159H461.873C459.142 61.7893 457.777 60.5946 457.777 58.6319V58.5039C457.777 56.7119 458.63 55.5173 460.337 54.9199C462.044 54.2373 464.39 53.8959 467.377 53.8959C470.022 53.8959 472.412 54.1946 474.545 54.7919C476.678 55.3039 478.513 55.9013 480.049 56.5839C481.67 57.2666 482.95 57.9493 483.889 58.6319C484.913 59.3146 485.638 59.8266 486.065 60.1679C487.26 61.2773 488.326 62.3013 489.265 63.2399C490.289 64.1786 491.142 65.1173 491.825 66.0559L493.233 67.9759C497.073 64.8186 500.486 62.5999 503.473 61.3199C506.46 60.0399 509.788 59.3999 513.457 59.3999C514.225 59.3999 515.334 59.4853 516.785 59.6559C518.236 59.8266 520.028 60.1679 522.161 60.6799C522.844 60.8506 523.398 61.0213 523.825 61.1919C524.252 61.3626 524.593 61.4479 524.849 61.4479H524.977C525.233 60.4239 525.702 59.4426 526.385 58.5039C527.153 57.4799 528.049 56.5839 529.073 55.8159C530.182 54.9626 531.377 54.3226 532.657 53.8959C533.937 53.3839 535.26 53.1279 536.625 53.1279C538.161 53.1279 539.654 53.4266 541.105 54.0239C542.556 54.6213 543.836 55.4746 544.945 56.5839C546.14 57.6933 547.078 59.1013 547.761 60.8079C548.529 62.5146 548.913 64.4346 548.913 66.5679V119.432Z" fill="#FF1744"/>
<path d="M98.48 121.352C97.5414 129.459 93.7014 133.512 86.96 133.512C79.28 132.403 75.44 128.563 75.44 121.992V117.768C75.44 112.904 73.3067 108.424 69.04 104.328C61.5307 117.981 50.6507 124.808 36.4 124.808H36.016C21.5947 124.808 10.6294 117.256 3.12004 102.152C1.58404 97.5441 0.81604 93.4908 0.81604 89.9921V88.7121C0.81604 81.8854 3.16271 76.1254 7.85604 71.4321H9.13604L10.416 72.3281L9.77604 76.1681C9.77604 78.8988 10.2454 81.5868 11.184 84.2321C12.1227 86.8774 13.488 89.2668 15.28 91.4001C17.1574 93.5334 19.4614 95.2828 22.192 96.6481C25.008 97.9281 28.2507 98.5681 31.92 98.5681H32.176C35.248 98.5681 38.192 98.1414 41.008 97.2881C43.824 96.3494 46.3414 94.9841 48.56 93.1921C50.7787 91.4001 52.656 89.1388 54.192 86.4081C55.8134 83.6774 56.9227 80.4774 57.52 76.8081V74.8881C57.52 66.4401 52.4854 60.8081 42.416 57.9921H39.6C38.32 57.9921 37.2534 58.6321 36.4 59.9121V60.1681C36.4 60.4241 38.1067 61.0641 41.52 62.0881C47.664 65.8428 50.736 70.8774 50.736 77.1921C50.736 79.0694 50.3947 80.9894 49.712 82.9521C49.0294 84.8294 48.0054 86.5788 46.64 88.2001C45.36 89.7361 43.696 91.0161 41.648 92.0401C39.6 92.9788 37.2107 93.4481 34.48 93.4481H34.096C32.2187 93.4481 30.2987 93.1068 28.336 92.4241C26.4587 91.7414 24.7094 90.7601 23.088 89.4801C21.552 88.1148 20.272 86.4081 19.248 84.3601C18.3094 82.3121 17.84 79.9228 17.84 77.1921V75.2721C17.84 72.7974 18.3094 70.3228 19.248 67.8481C20.1867 65.3734 21.5947 63.1974 23.472 61.3201C25.3494 59.3574 27.6534 57.7788 30.384 56.5841C33.2 55.3894 36.4854 54.7921 40.24 54.7921C45.1894 54.7921 49.6694 55.8588 53.68 57.9921C57.6907 60.0401 61.0614 62.7281 63.792 66.0561C66.608 69.2988 68.7414 72.9681 70.192 77.0641C71.728 81.1601 72.496 85.2561 72.496 89.3521C72.496 90.9734 72.3254 92.5094 71.984 93.9601C71.728 95.4108 71.472 96.7334 71.216 97.9281H73.776L75.44 98.3121V66.3121C75.44 64.6054 75.696 62.9841 76.208 61.4481C76.72 59.8268 77.4454 58.4188 78.384 57.2241C79.408 55.9441 80.6454 54.9628 82.096 54.2801C83.632 53.5121 85.3814 53.1281 87.344 53.1281C92.464 53.1281 96.176 56.2428 98.48 62.4721V121.352Z" fill="#FF1744"/>
<path d="M185.322 32.3921C185.322 35.3788 184.426 37.8108 182.634 39.6881C180.927 41.4801 178.282 42.3761 174.698 42.3761C172.223 42.3761 169.749 41.8641 167.274 40.8401C164.799 39.7308 162.069 38.0668 159.082 35.8481C155.754 33.3734 152.213 31.5814 148.458 30.4721C144.789 29.2774 141.034 28.6801 137.194 28.6801C134.634 28.6801 132.117 29.0214 129.642 29.7041C127.167 30.3014 124.949 31.2401 122.986 32.5201C121.109 33.7148 119.573 35.2081 118.378 37.0001C117.183 38.7921 116.586 40.7974 116.586 43.0161C116.586 47.6241 119.359 52.1894 124.906 56.7121C126.869 59.1868 127.85 61.7041 127.85 64.2641V121.992C127.85 123.187 127.594 124.467 127.082 125.832C126.655 127.112 125.973 128.307 125.034 129.416C124.181 130.44 123.071 131.293 121.706 131.976C120.426 132.659 118.89 133 117.098 133H116.714C115.519 133 114.282 132.787 113.002 132.36C111.807 131.848 110.655 131.165 109.546 130.312C108.522 129.459 107.669 128.392 106.986 127.112C106.303 125.832 105.962 124.339 105.962 122.632V63.7521C105.962 62.8988 106.133 61.8748 106.474 60.6801C106.901 59.4854 107.498 58.3761 108.266 57.3521C109.034 56.2428 109.93 55.3041 110.954 54.5361C112.063 53.7681 113.343 53.3841 114.794 53.3841C112.319 52.0188 109.93 50.3121 107.626 48.2641C105.322 46.2161 103.317 43.9974 101.61 41.6081C99.818 39.2188 98.41 36.7441 97.386 34.1841C96.2767 31.5388 95.722 28.9788 95.722 26.5041C95.722 23.0908 96.6607 19.8054 98.538 16.6481C100.33 13.4908 102.847 10.7174 106.09 8.32809C109.333 5.85342 113.173 3.93342 117.61 2.56808C122.133 1.11742 127.039 0.39209 132.33 0.39209H134.762C139.114 0.39209 143.978 1.03209 149.354 2.31209C154.815 3.50675 160.021 5.42675 164.97 8.07208C169.919 10.6321 174.271 13.9601 178.026 18.0561C181.781 22.0668 184.213 26.8454 185.322 32.3921Z" fill="#FF1744"/>
<path d="M159.788 101C161.068 101.171 162.433 101.469 163.884 101.896C165.335 102.237 166.913 102.664 168.62 103.176V79.2401L168.364 77.5761V72.9681C167.169 67.4214 164.012 64.6481 158.892 64.6481H158.38C152.577 65.3308 149.676 67.7201 149.676 71.8161V72.7121C149.676 75.6988 153.601 79.7094 161.452 84.7441C164.183 88.7548 165.548 92.1254 165.548 94.8561C165.548 97.5868 163.628 99.6348 159.788 101ZM168.748 65.5441C169.004 61.1921 170.241 58.0348 172.46 56.0721C174.679 54.1094 177.153 53.1281 179.884 53.1281C186.711 54.8348 190.124 58.2481 190.124 63.3681V131.72C190.039 135.048 189.271 137.48 187.82 139.016C186.455 140.552 184.321 141.363 181.42 141.448L177.324 141.576H176.428C171.223 141.576 168.62 138.333 168.62 131.848V121.608C168.62 113.16 164.183 107.699 155.308 105.224C154.199 105.224 153.345 105.053 152.748 104.712C146.604 105.651 143.532 107.016 143.532 108.808V110.344C146.263 109.661 148.14 109.32 149.164 109.32C157.271 109.32 162.049 114.269 163.5 124.168V125.192C161.452 134.067 157.185 138.504 150.7 138.504H147.116C140.46 138.504 135.852 133.384 133.292 123.144V119.56C133.292 112.477 138.412 106.675 148.652 102.152C139.436 100.445 134.743 97.9281 134.572 94.6001C134.487 92.7228 134.401 91.3148 134.316 90.3761C134.316 89.3521 134.316 88.7548 134.316 88.5841C134.316 85.1708 135.852 82.0988 138.924 79.3681H140.46C143.191 79.3681 144.556 80.6054 144.556 83.0801C144.044 83.0801 143.02 83.9334 141.484 85.6401V86.4081C143.105 92.5521 146.689 95.6241 152.236 95.6241C154.625 95.6241 155.82 94.2588 155.82 91.5281C155.82 88.7121 152.065 85.0854 144.556 80.6481C140.119 75.4428 137.9 71.0908 137.9 67.5921V65.5441C137.9 59.9974 142.508 56.3708 151.724 54.6641C159.404 54.6641 165.036 58.2908 168.62 65.5441H168.748Z" fill="#FF1744"/>
<path d="M206.931 84.1041C206.931 89.2241 216.275 97.0748 234.963 107.656V85.0001C230.952 78.4294 225.235 75.1441 217.811 75.1441C210.558 76.2534 206.931 79.2401 206.931 84.1041ZM235.603 131.848C231.166 126.899 225.832 124.424 219.603 124.424C214.227 124.424 209.235 128.264 204.627 135.944C203.091 136.968 201.64 137.48 200.275 137.48C196.008 137.48 193.875 134.493 193.875 128.52V125.448C193.875 119.133 198.184 114.483 206.803 111.496C220.371 111.496 230.568 118.664 237.395 133H238.547V129.288C238.547 126.387 231.635 119.475 217.811 108.552C203.987 97.7148 197.075 89.8641 197.075 85.0001C200.232 76.2108 205.054 70.1948 211.539 66.9521V66.0561C200.616 59.4001 195.155 50.6961 195.155 39.9441C195.155 29.2774 203.006 22.6214 218.707 19.9761C230.824 22.3654 236.883 27.1868 236.883 34.4401V38.9201C236.883 46.1734 231.123 50.9948 219.603 53.3841C212.264 53.3841 206.248 50.6961 201.555 45.3201L200.659 47.1121C203.816 56.1574 209.832 60.6801 218.707 60.6801C227.667 58.2908 234.622 57.0961 239.571 57.0961H240.467C254.291 57.0961 261.203 62.2161 261.203 72.4561V133.896C260.264 141.747 256.979 145.672 251.347 145.672H248.659C245.16 145.672 240.808 141.064 235.603 131.848Z" fill="#FF1744"/>
</svg>
