<svg width="1440" height="1024" viewBox="0 0 1440 1024" fill="none" xmlns="http://www.w3.org/2000/svg">
<path fill-rule="evenodd" clip-rule="evenodd" d="M1440 0H0V797.973C6.59205 788.958 11.8794 779.163 15.7655 768.756C19.6135 758.466 21.2382 746.084 20.5969 732.08L19.6563 711.586C19.528 708.896 22.4782 707.103 24.787 708.469L42.445 718.844C66.6447 733.105 86.013 753.556 99.9514 779.771C116.797 811.324 124.493 840.314 122.911 866.017C122.868 866.786 123.168 867.554 123.766 868.067C124.408 868.664 125.134 868.75 125.605 868.707C126.075 868.664 126.759 868.494 127.358 867.853C136.379 857.82 142.75 847.615 146.213 837.624L151.771 821.699C151.963 821.167 152.282 820.69 152.701 820.31C153.12 819.93 153.627 819.658 154.175 819.519C154.724 819.38 155.299 819.377 155.849 819.512C156.399 819.646 156.907 819.913 157.329 820.29L169.771 831.69C184.849 845.475 196.915 862.22 205.216 880.875C205.703 881.969 206.177 883.066 206.636 884.167C211.32 875.75 216.717 867.715 222.783 860.155C239.36 839.682 260.36 823.223 284.212 812.01C294.124 807.316 303.477 801.524 312.094 794.744C324.479 784.984 335.03 773.405 343.478 760.301C350.387 749.597 355.295 735.972 358.039 719.948L362.053 696.497C362.574 693.418 366.36 692.117 368.637 694.237L386.066 710.366C409.943 732.518 426.813 760.486 436.105 793.639C447.367 833.558 448.9 868.308 440.738 897.035C440.499 897.895 440.648 898.84 441.199 899.569C441.777 900.405 442.579 900.682 443.123 900.75C443.666 900.818 444.483 900.794 445.32 900.217C458.025 891.085 467.769 881.103 474.168 870.642L484.41 853.977C484.759 853.422 485.239 852.961 485.808 852.634C486.377 852.307 487.018 852.125 487.674 852.103C488.33 852.082 488.981 852.221 489.571 852.51C490.16 852.798 490.67 853.227 491.055 853.758L502.323 869.756C515.985 889.109 525.503 911.068 530.282 934.26C531.111 938.268 531.795 942.283 532.334 946.302C590.685 887.213 633.293 868.589 721.5 920.5C808.003 971.408 878.413 987.558 907.215 941.425C908.295 939.357 909.428 937.315 910.613 935.299C910.743 935.034 910.872 934.768 911 934.5L911.042 934.576C922.101 916.203 937.173 900.562 955.134 888.823C962.605 883.91 969.499 878.173 975.688 871.722C984.581 862.439 991.788 851.894 997.124 840.357C1001.49 830.932 1003.91 819.375 1004.31 806.127L1004.89 786.738C1004.96 784.193 1007.87 782.714 1009.95 784.168L1025.85 795.214C1047.64 810.393 1064.43 831.062 1075.69 856.776C1089.3 887.73 1094.48 915.613 1091.15 939.731C1091.05 940.453 1091.28 941.199 1091.8 941.724C1092.37 942.334 1093.05 942.467 1093.49 942.46C1093.94 942.453 1094.6 942.341 1095.21 941.781C1104.43 932.968 1111.16 923.804 1115.15 914.633L1121.53 900.018C1121.74 899.53 1122.08 899.103 1122.5 898.775C1122.92 898.446 1123.42 898.227 1123.95 898.135C1124.48 898.043 1125.02 898.082 1125.53 898.248C1126.03 898.414 1126.49 898.703 1126.87 899.088L1137.78 910.727C1138.66 911.667 1139.53 912.618 1140.38 913.58C1142.8 894.489 1148.37 875.876 1156.9 858.511C1161.71 848.653 1165.39 838.288 1167.89 827.611C1171.46 812.254 1172.47 796.62 1170.88 781.11C1169.59 768.436 1164.91 754.73 1157.05 740.503L1145.53 719.683C1144.02 716.953 1146.16 713.572 1149.26 713.805L1172.95 715.513C1205.43 717.898 1236.08 729.201 1264.04 749.286C1297.77 773.426 1320.67 799.605 1332.24 827.136C1332.59 827.957 1333.3 828.602 1334.19 828.827C1335.16 829.119 1335.96 828.834 1336.43 828.548C1336.89 828.261 1337.52 827.732 1337.81 826.759C1342.03 811.692 1343.4 797.81 1341.86 785.644L1339.45 766.233C1339.38 765.581 1339.46 764.921 1339.71 764.311C1339.95 763.7 1340.33 763.158 1340.83 762.731C1341.33 762.304 1341.93 762.006 1342.57 761.863C1343.21 761.72 1343.87 761.737 1344.51 761.911L1363.3 767.365C1386.05 773.945 1407.2 785.148 1425.42 800.274C1430.57 804.545 1435.44 809.073 1440 813.847V0ZM192.574 1024C193.001 1023.37 193.423 1022.74 193.839 1022.1C194.052 1022.74 194.268 1023.37 194.489 1024H192.574Z" fill="#FF1744"/>
</svg>
