<svg width="363" height="554" viewBox="0 0 363 554" fill="none" xmlns="http://www.w3.org/2000/svg">
<g clip-path="url(#clip0_805_2)">
<path d="M299.506 554H59.0574C32.9895 554 11.7815 532.792 11.7815 506.724V47.2759C11.7815 21.208 32.9895 0 59.0574 0H299.506C325.573 0 346.781 21.208 346.781 47.2759V506.724C346.781 532.792 325.573 554 299.506 554Z" fill="#F2F2F2"/>
<path d="M346.782 169C345.679 169 344.782 169.897 344.782 171V235C344.782 236.103 345.679 237 346.782 237C347.885 237 348.782 236.103 348.782 235V171C348.782 169.897 347.885 169 346.782 169Z" fill="#F2F2F2"/>
<path d="M342.282 47.2761V506.716C342.282 529.406 324.622 547.966 302.292 549.406H302.282C301.952 549.426 301.622 549.446 301.282 549.456C300.692 549.486 300.102 549.496 299.502 549.496C299.502 549.496 297.302 549.336 293.282 549.036C289.222 548.736 283.312 548.286 275.942 547.696C273.732 547.526 271.402 547.336 268.942 547.136C264.042 546.736 258.662 546.296 252.892 545.796C250.592 545.606 248.212 545.396 245.782 545.186C233.362 544.116 219.452 542.866 204.782 541.446C202.302 541.216 199.802 540.976 197.282 540.726C196.622 540.656 195.952 540.596 195.282 540.526C184.822 539.496 174.072 538.386 163.282 537.206C162.612 537.136 161.942 537.066 161.282 536.996C142.692 534.946 124.032 532.716 106.572 530.316C93.142 528.476 80.422 526.536 69.002 524.526C65.282 523.866 61.702 523.206 58.282 522.536C57.612 522.406 56.942 522.276 56.282 522.136C32.112 517.296 16.282 512.076 16.282 506.716V47.2761C16.282 23.6461 35.432 4.49609 59.062 4.49609H84.602C88.682 4.49609 91.962 7.67608 92.312 11.7461C92.342 12.0161 92.372 12.2861 92.422 12.5561C93.162 16.6461 96.912 19.4961 101.072 19.4961H257.492C261.652 19.4961 265.402 16.6461 266.142 12.5561C266.192 12.2861 266.222 12.0161 266.252 11.7461C266.602 7.67608 269.882 4.49609 273.962 4.49609H299.502C323.132 4.49609 342.282 23.6461 342.282 47.2761V47.2761Z" fill="white"/>
<path d="M10.7817 121C9.67871 121 8.78174 121.897 8.78174 123V139C8.78174 140.103 9.67871 141 10.7817 141C11.8848 141 12.7817 140.103 12.7817 139V123C12.7817 121.897 11.8848 121 10.7817 121Z" fill="#F2F2F2"/>
<path d="M10.7817 169C9.67871 169 8.78174 169.897 8.78174 171V202C8.78174 203.103 9.67871 204 10.7817 204C11.8848 204 12.7817 203.103 12.7817 202V171C12.7817 169.897 11.8848 169 10.7817 169Z" fill="#F2F2F2"/>
<path d="M10.7817 213C9.67871 213 8.78174 213.897 8.78174 215V246C8.78174 247.103 9.67871 248 10.7817 248C11.8848 248 12.7817 247.103 12.7817 246V215C12.7817 213.897 11.8848 213 10.7817 213Z" fill="#F2F2F2"/>
<path d="M82.2817 11.5H47.2817C46.1772 11.5 45.2817 12.3954 45.2817 13.5V14.5C45.2817 15.6046 46.1772 16.5 47.2817 16.5H82.2817C83.3863 16.5 84.2817 15.6046 84.2817 14.5V13.5C84.2817 12.3954 83.3863 11.5 82.2817 11.5Z" fill="#F2F2F2"/>
<path d="M280.282 16.5C282.491 16.5 284.282 14.7091 284.282 12.5C284.282 10.2909 282.491 8.5 280.282 8.5C278.073 8.5 276.282 10.2909 276.282 12.5C276.282 14.7091 278.073 16.5 280.282 16.5Z" fill="#F2F2F2"/>
<path d="M291.282 16.5C293.491 16.5 295.282 14.7091 295.282 12.5C295.282 10.2909 293.491 8.5 291.282 8.5C289.073 8.5 287.282 10.2909 287.282 12.5C287.282 14.7091 289.073 16.5 291.282 16.5Z" fill="#F2F2F2"/>
<path d="M302.282 16.5C304.491 16.5 306.282 14.7091 306.282 12.5C306.282 10.2909 304.491 8.5 302.282 8.5C300.073 8.5 298.282 10.2909 298.282 12.5C298.282 14.7091 300.073 16.5 302.282 16.5Z" fill="#F2F2F2"/>
<path d="M64.6907 157.425C75.4099 157.425 84.0996 148.919 84.0996 138.425C84.0996 127.932 75.4099 119.425 64.6907 119.425C53.9714 119.425 45.2817 127.932 45.2817 138.425C45.2817 148.919 53.9714 157.425 64.6907 157.425Z" fill="#FF1744"/>
<path d="M220.284 131.925H115.813C112.229 131.925 109.313 129.009 109.313 125.425C109.313 121.841 112.229 118.925 115.813 118.925H220.284C223.868 118.925 226.784 121.841 226.784 125.425C226.784 129.009 223.868 131.925 220.284 131.925Z" fill="#E6E6E6"/>
<path d="M52.3372 351.877C50.6697 351.877 49.3132 353.234 49.3132 354.901C49.3132 356.569 50.6697 357.925 52.3372 357.925H161.76C163.427 357.925 164.784 356.569 164.784 354.901C164.784 353.234 163.427 351.877 161.76 351.877H52.3372Z" fill="#F2F2F2"/>
<path d="M301.813 153.925H115.813C112.229 153.925 109.313 151.009 109.313 147.425C109.313 143.841 112.229 140.925 115.813 140.925H301.813C305.397 140.925 308.313 143.841 308.313 147.425C308.313 151.009 305.397 153.925 301.813 153.925Z" fill="#E6E6E6"/>
<path d="M89.532 61.9253H49.7815C47.0247 61.9253 44.7815 59.6821 44.7815 56.9253C44.7815 54.1685 47.0247 51.9253 49.7815 51.9253H89.532C92.2888 51.9253 94.5315 54.1685 94.5315 56.9253C94.5315 59.6821 92.2888 61.9253 89.532 61.9253Z" fill="#E6E6E6"/>
<path d="M301.313 52.4253H261.563C259.078 52.4253 257.063 54.44 257.063 56.9253C257.063 59.4106 259.078 61.4253 261.563 61.4253H301.313C303.799 61.4253 305.813 59.4106 305.813 56.9253C305.813 54.44 303.799 52.4253 301.313 52.4253Z" fill="#FF1744"/>
<path d="M244.313 61.9253H204.563C201.806 61.9253 199.563 59.6821 199.563 56.9253C199.563 54.1685 201.806 51.9253 204.563 51.9253H244.313C247.07 51.9253 249.313 54.1685 249.313 56.9253C249.313 59.6821 247.07 61.9253 244.313 61.9253Z" fill="#E6E6E6"/>
<path d="M95.2815 337.193H57.2815C50.3889 337.193 44.7815 331.585 44.7815 324.693V312.277C44.7815 305.384 50.3889 299.777 57.2815 299.777H95.2815C102.174 299.777 107.781 305.384 107.781 312.277V324.693C107.781 331.585 102.174 337.193 95.2815 337.193Z" fill="#F2F2F2"/>
<path d="M295.813 265.632H57.2815C50.3889 265.632 44.7815 260.024 44.7815 253.132V198.425C44.7815 191.533 50.3889 185.925 57.2815 185.925H295.813C302.706 185.925 308.313 191.533 308.313 198.425V253.132C308.313 260.024 302.706 265.632 295.813 265.632Z" fill="#FF1744"/>
<path d="M294.281 337.193H256.281C249.389 337.193 243.781 331.585 243.781 324.693V312.277C243.781 305.384 249.389 299.777 256.281 299.777H294.281C301.174 299.777 306.781 305.384 306.781 312.277V324.693C306.781 331.585 301.174 337.193 294.281 337.193Z" fill="#F2F2F2"/>
<path d="M193.813 337.193H155.813C148.921 337.193 143.313 331.585 143.313 324.693V312.277C143.313 305.384 148.921 299.777 155.813 299.777H193.813C200.706 299.777 206.313 305.384 206.313 312.277V324.693C206.313 331.585 200.706 337.193 193.813 337.193V337.193Z" fill="#F2F2F2"/>
<path d="M108.813 392.425H78.8132V420.425H108.813V392.425Z" fill="#F2F2F2"/>
<path d="M108.813 432.425H91.8132V460.425H108.813V432.425Z" fill="#F2F2F2"/>
<path d="M147.813 432.425H117.813V460.425H147.813V432.425Z" fill="#F2F2F2"/>
<path d="M147.813 472.425H117.813V500.425H147.813V472.425Z" fill="#F2F2F2"/>
<path d="M186.813 432.425H156.813V460.425H186.813V432.425Z" fill="#F2F2F2"/>
<path d="M147.813 392.425H117.813V420.425H147.813V392.425Z" fill="#F2F2F2"/>
<path d="M186.813 392.425H156.813V420.425H186.813V392.425Z" fill="#F2F2F2"/>
<path d="M264.813 392.425H234.813V420.425H264.813V392.425Z" fill="#F2F2F2"/>
<path d="M186.813 472.425H156.813V500.425H186.813V472.425Z" fill="#F2F2F2"/>
<path d="M225.813 392.425H195.813V420.425H225.813V392.425Z" fill="#F2F2F2"/>
<path d="M280.313 432.425H260.813V460.425H280.313C283.075 460.425 285.313 458.187 285.313 455.425V437.425C285.313 434.664 283.075 432.425 280.313 432.425Z" fill="#F2F2F2"/>
<path d="M108.813 472.425H102.813C100.052 472.425 97.8132 474.664 97.8132 477.425V495.425C97.8132 498.187 100.052 500.425 102.813 500.425H108.813V472.425Z" fill="#F2F2F2"/>
<path d="M225.813 472.425H195.813V500.425H225.813V472.425Z" fill="#F2F2F2"/>
<path d="M302.813 392.425H273.813V420.425H302.813C305.575 420.425 307.813 418.187 307.813 415.425V397.425C307.813 394.664 305.575 392.425 302.813 392.425Z" fill="#F2F2F2"/>
<path d="M251.813 472.847C251.2 472.579 250.525 472.425 249.813 472.425H234.813V500.425H249.813C250.525 500.425 251.2 500.272 251.813 500.003V472.847Z" fill="#F2F2F2"/>
<path d="M225.813 432.425H195.813V460.425H225.813V432.425Z" fill="#F2F2F2"/>
<path d="M251.813 432.425H234.813V460.425H251.813V432.425Z" fill="#F2F2F2"/>
<path d="M82.8132 432.425H72.3132C69.5518 432.425 67.3132 434.664 67.3132 437.425V455.425C67.3132 458.187 69.5518 460.425 72.3132 460.425H82.8132V432.425Z" fill="#F2F2F2"/>
<path d="M69.8132 392.425H49.8132C47.0518 392.425 44.8132 394.664 44.8132 397.425V415.425C44.8132 418.187 47.0518 420.425 49.8132 420.425H69.8132V392.425Z" fill="#F2F2F2"/>
<path d="M262.825 542.98L253.916 542.979L249.678 508.615L262.827 508.616L262.825 542.98Z" fill="#FFB6B6"/>
<path d="M263.139 552.274L235.742 552.273V551.927C235.742 546.038 240.516 541.264 246.406 541.263H246.406L251.411 537.467L260.748 541.264L263.139 541.264L263.139 552.274H263.139Z" fill="#2F2E41"/>
<path d="M318.291 542.98L309.381 542.979L305.143 508.615L318.292 508.616L318.291 542.98Z" fill="#FFB6B6"/>
<path d="M318.604 552.274L291.207 552.273V551.927C291.208 546.038 295.982 541.264 301.871 541.263H301.872L306.876 537.467L316.213 541.264L318.605 541.264L318.604 552.274V552.274Z" fill="#2F2E41"/>
<path d="M336.285 279.824H259.769L250.481 308.517L248.24 430.541L248.633 525.757L266.058 525.822L281.404 423.474C281.404 423.474 279.697 413.406 282.704 414.805C285.711 416.205 280.629 403.852 284.17 405.029C287.711 406.205 291.156 358.436 291.156 358.436L299.6 430.541L305.022 525.757H320.738L333.917 378.897C333.917 378.897 329.778 370.008 335.245 364.106C340.711 358.205 340.15 309.442 340.15 309.442L336.285 279.824V279.824Z" fill="#2F2E41"/>
<path d="M338.302 278.011C338.302 278.011 345.638 288.46 339.237 304.829C328.6 332.033 258.032 309.152 253.711 292.205C247.072 289.913 258.139 286.561 254.882 281.002C254.683 280.663 256.711 288.205 255.103 279.86C252.523 266.466 256.952 225.319 256.952 225.319L258.415 200.9C259.831 177.247 269.448 154.827 285.609 137.499L285.609 137.499H322.353L338.302 163.383L339.954 228.258L338.302 278.011H338.302Z" fill="#3F3D56"/>
<path d="M226.3 280.48L237.693 263.208L247.629 268.944L234.989 286.738C235.029 287.424 234.98 288.129 234.827 288.833C233.998 292.663 230.485 295.034 226.98 294.128C223.475 293.222 221.307 289.382 222.136 285.551C222.664 283.108 224.287 281.264 226.3 280.48H226.3Z" fill="#FFB6B6"/>
<path d="M280.227 143.046H280.227C267.464 143.046 256.963 153.092 256.397 165.842L253.959 220.771C253.959 220.771 253.941 223.822 252.812 222.918C251.684 222.015 251.588 225.21 251.588 225.21C251.588 225.21 251.537 230.096 250.473 227.299C249.408 224.502 249.263 229.563 249.263 229.563L233.762 256.234C235.845 260.542 234.227 265.868 233.711 270.205L244.857 280.464C244.857 280.464 244.759 277.384 247.162 277.436C261.89 277.754 276.969 237.972 276.715 223.258C276.426 206.469 280.227 143.046 280.227 143.046L280.227 143.046Z" fill="#3F3D56"/>
<path d="M285.463 66.6235L296.856 83.896L306.792 78.1591L294.152 60.366C294.192 59.6793 294.143 58.975 293.99 58.2707C293.161 54.4402 289.648 52.0696 286.143 52.9758C282.639 53.882 280.47 57.7219 281.299 61.5525C281.827 63.9954 283.45 65.8394 285.463 66.6235H285.463Z" fill="#FFB6B6"/>
<path d="M339.39 204.058H339.39C326.627 204.058 316.126 194.012 315.56 181.262L313.122 126.333C313.122 126.333 313.104 123.282 311.975 124.186C310.847 125.089 310.751 121.894 310.751 121.894C310.751 121.894 310.7 117.008 309.636 119.805C308.571 122.602 308.426 117.54 308.426 117.54L288.156 79.5891L289.307 74.6387L300.4 66.3188C300.4 66.3188 304.883 67.7458 306.325 69.6678C313.599 79.3649 335.609 109.834 335.878 123.846C336.201 140.634 339.39 204.058 339.39 204.058V204.058Z" fill="#3F3D56"/>
<path d="M294.405 131.948C294.948 132.073 295.492 132.182 296.035 132.265C297.724 132.541 299.413 132.625 301.06 132.524C306.059 132.265 310.774 130.418 314.587 127.374C318.616 124.164 321.626 119.624 322.888 114.224C325.856 101.474 317.922 88.7161 305.173 85.7482C292.607 82.8137 280.042 90.4719 276.831 102.895C276.781 103.088 276.731 103.272 276.689 103.464C273.721 116.222 281.647 128.971 294.405 131.948V131.948Z" fill="#FFB6B6"/>
<path d="M324.121 116.626C320.812 125.361 312.436 132.285 303.1 132.701C301.51 132.766 299.855 132.646 298.45 131.888C297.035 131.139 295.945 129.632 296.065 128.042C296.314 124.909 300.576 123.707 301.778 120.795C302.573 118.872 301.657 116.404 299.79 115.47C297.923 114.546 295.399 115.285 294.336 117.088C296.277 114.13 295.14 109.961 292.691 107.418C290.25 104.867 286.821 103.564 283.511 102.325L283.437 101.068C281.098 101.964 278.547 100.162 277.53 97.8229C278.713 96.39 279.462 94.6521 280.183 92.9419C279.213 93.626 278.131 94.1252 276.985 94.4302C277.049 92.3965 273.999 91.4259 274.516 89.4291C275.238 86.6559 279.407 82.5052 278.038 79.9907C280.59 80.7118 282.254 83.6884 281.533 86.2399C282.448 83.7439 283.363 81.2479 284.278 78.7428C284.99 80.4807 285.702 82.2186 286.423 83.9473C289.908 81.7749 293.513 79.5655 297.562 78.8722C301.611 78.1697 306.27 79.3529 308.535 82.7918C310.892 81.3589 314.054 81.8026 316.384 83.2909C318.713 84.7793 320.34 87.1365 321.644 89.577C326.062 97.8044 327.43 107.899 324.121 116.626V116.626Z" fill="#2F2E41"/>
<path d="M26 550.567C26 551.144 26.3098 551.608 26.6955 551.608H348.305C348.69 551.608 349 551.144 349 550.567C349 549.989 348.69 549.525 348.305 549.525H26.6955C26.3098 549.525 26 549.989 26 550.567Z" fill="#CCCCCC"/>
</g>
<defs>
<clipPath id="clip0_805_2">
<rect width="363" height="554" fill="white"/>
</clipPath>
</defs>
</svg>
